<svg version="1.0" xmlns="http://www.w3.org/2000/svg" width="728.000000pt" height="724.000000pt" viewBox="0 0 728.000000 724.000000" preserveAspectRatio="xMidYMid meet">
<path d="M1877 6219 c-58 -12 -117 -47 -146 -88 -27 -37 -61 -111 -60 -131 0
-8 9 8 20 35 29 71 63 112 118 140 68 34 129 39 251 21 203 -30 774 -62 1430
-81 555 -16 955 -25 1325 -30 226 -4 500 -8 610 -10 110 -2 326 -4 481 -4
l281 -1 49 -32 c156 -104 234 -268 279 -587 29 -208 66 -519 95 -791 30 -285
58 -524 81 -699 18 -132 21 -188 16 -390 -5 -256 -13 -304 -68 -412 -16 -32
-42 -73 -59 -92 -37 -43 -128 -91 -201 -107 -72 -16 -335 -8 -524 16 -114 15
-216 18 -552 18 l-413 1 -4 30 c-3 16 -14 107 -25 200 -19 151 -25 178 -56
242 -40 82 -96 127 -171 139 -53 8 -86 0 -142 -32 -88 -51 -96 -111 -62 -420
11 -98 20 -184 20 -190 0 -6 -61 -17 -152 -28 -304 -34 -720 -96 -928 -137
-346 -67 -489 -65 -636 9 -180 92 -309 356 -398 818 -61 313 -83 645 -96 1389
-9 573 -16 669 -61 842 -37 148 -110 272 -181 309 -39 20 -104 17 -147 -7 -50
-29 -118 -117 -148 -191 -16 -38 -27 -90 -30 -139 -5 -70 -3 -84 21 -133 35
-71 64 -90 127 -83 l48 6 26 -53 c71 -145 146 -617 174 -1101 21 -351 22 -611
7 -1185 -25 -930 -18 -1355 29 -1635 56 -337 156 -524 330 -619 l30 -16 -30 6
c-199 43 -450 172 -588 303 -125 117 -224 298 -261 475 -48 226 -35 758 34
1411 53 493 111 959 126 1016 2 8 21 21 42 28 93 33 111 75 128 301 8 112 21
202 34 250 18 63 21 93 17 190 -10 236 -49 270 -247 216 -52 -14 -109 -26
-125 -26 -36 0 -75 -25 -75 -47 0 -9 12 -41 26 -72 20 -40 28 -77 32 -139 4
-62 8 -80 15 -67 13 25 1 134 -25 211 -12 39 -17 68 -12 74 5 4 34 11 64 13
30 3 82 13 115 21 82 21 131 20 154 -3 46 -46 53 -269 12 -401 -15 -49 -21
-102 -24 -215 -4 -126 -8 -158 -26 -201 -34 -78 -97 -106 -139 -61 -39 42 -62
129 -76 287 -2 25 -3 -10 -1 -78 3 -112 6 -128 32 -180 22 -45 49 -74 70 -77
1 0 -11 -68 -28 -150 -36 -183 -111 -641 -135 -823 -9 -74 -21 -128 -25 -120
-4 7 -46 128 -93 268 -118 352 -147 468 -211 860 -73 440 -105 780 -105 1102
0 330 40 496 130 543 74 38 224 -50 334 -195 39 -51 86 -125 86 -136 0 -2 -22
-4 -48 -4 -83 0 -226 -46 -265 -84 -22 -22 -22 -68 0 -114 17 -37 132 -166
140 -158 3 3 -8 24 -25 48 -37 54 -82 143 -82 162 0 11 24 15 118 17 99 3 123
7 155 26 20 12 43 20 51 17 15 -6 68 -87 129 -199 46 -84 45 -55 -3 76 -37
102 -72 160 -111 183 -16 10 -29 23 -29 30 0 43 -170 277 -216 298 -13 6 -24
14 -24 18 0 4 -29 22 -64 39 -55 28 -72 32 -117 28 -30 -2 -74 -12 -99 -20
-25 -9 -107 -30 -183 -47 -156 -36 -178 -49 -226 -135 -92 -162 -138 -539
-112 -900 39 -524 143 -985 348 -1545 256 -699 297 -823 343 -1026 31 -134 47
-275 42 -354 l-3 -45 -112 0 c-185 0 -347 -50 -450 -137 l-49 -41 -43 21
c-162 79 -204 236 -88 331 83 68 293 141 518 180 61 10 95 19 77 20 -35 1
-237 -32 -307 -50 -166 -43 -281 -96 -334 -154 -42 -46 -67 -111 -56 -152 3
-13 -5 -88 -17 -166 -29 -180 -30 -300 -4 -342 34 -52 70 -86 116 -110 157
-79 405 -85 675 -15 110 29 212 66 203 75 -3 3 -21 -1 -40 -9 -98 -41 -413
-82 -553 -72 -249 19 -368 89 -391 233 -3 21 2 102 10 180 9 78 16 145 16 148
0 4 22 -18 49 -48 119 -129 340 -186 564 -143 41 8 98 26 125 40 203 103 200
401 -11 1037 -56 167 -206 580 -281 774 -26 66 -100 307 -140 455 -113 423
-185 955 -171 1270 7 154 29 329 52 410 21 76 67 171 95 197 15 13 78 35 177
62 84 23 155 41 157 41 2 0 -8 -16 -21 -36 -117 -172 -127 -652 -30 -1340 54
-377 112 -655 181 -869 20 -60 79 -217 132 -349 l95 -238 -12 -112 c-33 -296
-42 -422 -48 -676 -9 -412 14 -567 113 -765 94 -190 238 -332 439 -433 112
-56 164 -75 290 -105 302 -71 486 -92 665 -76 170 15 649 93 1245 204 l170 31
88 -43 c160 -80 408 -129 516 -103 73 17 101 43 100 88 l-1 37 -8 -32 c-4 -18
-13 -39 -20 -47 -67 -81 -457 -7 -629 119 -82 60 -116 130 -108 218 3 34 13
85 22 113 l15 51 138 6 c75 3 148 9 162 12 l25 6 -3 -84 c-6 -144 35 -193 210
-248 100 -31 110 -33 89 -20 -17 11 76 18 414 31 526 21 949 53 998 74 170 75
244 402 217 961 -6 132 -15 265 -20 295 -7 44 -8 36 -4 -45 14 -313 16 -523 5
-663 -24 -313 -104 -497 -231 -532 -42 -12 -457 -35 -915 -50 -181 -6 -388
-15 -460 -20 -115 -7 -134 -6 -164 10 l-35 17 55 7 c69 8 397 23 789 36 575
19 703 38 791 117 51 46 64 72 91 180 21 82 23 111 23 413 0 247 -4 367 -18
500 -10 96 -21 177 -23 179 -12 12 -11 -14 2 -109 24 -168 30 -684 11 -850
-19 -158 -36 -213 -82 -267 -78 -91 -190 -109 -778 -123 -236 -6 -531 -17
-655 -25 -125 -8 -235 -15 -245 -15 -11 0 -24 14 -34 38 -21 50 -12 192 13
207 51 30 56 44 50 119 -7 84 25 224 62 271 29 37 37 71 24 101 -9 18 -8 48 4
121 22 145 28 358 15 535 -6 87 -14 164 -17 172 -4 11 24 15 153 22 260 12
672 8 833 -9 307 -34 424 -32 557 8 259 78 336 381 265 1050 -11 105 -28 273
-36 375 -9 102 -21 235 -26 295 -5 61 -12 144 -15 185 -14 169 -56 554 -75
683 -22 153 -45 229 -98 332 -40 78 -155 201 -212 227 -40 19 -121 21 -1230
36 -360 5 -662 12 -670 15 -8 3 -247 8 -530 11 -283 4 -589 8 -680 11 -91 3
-253 7 -360 10 -343 10 -663 25 -725 35 -70 12 -102 11 -168 -1z m87 -113 c64
-27 119 -128 161 -295 39 -157 46 -259 55 -831 5 -311 15 -635 24 -755 41
-541 133 -967 257 -1191 48 -88 112 -176 158 -217 129 -116 348 -149 621 -93
313 63 700 125 1008 161 73 8 150 18 171 21 l38 6 7 -43 c36 -248 50 -719 22
-719 -28 0 -64 -61 -110 -187 -26 -70 -54 -154 -63 -186 -9 -36 -30 -79 -54
-110 -75 -99 -100 -226 -64 -327 8 -24 14 -44 13 -45 -2 -1 -79 -17 -173 -34
-93 -18 -214 -41 -268 -52 -304 -61 -631 -94 -860 -86 -242 7 -343 38 -441
134 -128 124 -187 280 -231 611 -12 96 -24 502 -26 897 -1 231 -10 661 -20
955 -25 734 -27 766 -21 300 2 -223 8 -794 12 -1270 8 -798 10 -875 28 -990
44 -267 110 -421 231 -537 66 -63 135 -99 237 -125 78 -19 116 -22 299 -22
289 -1 492 26 1034 133 343 68 334 67 351 36 7 -14 11 -27 9 -29 -8 -7 -767
-138 -879 -151 -30 -4 -102 -15 -160 -25 -402 -70 -654 -62 -837 27 -82 40
-166 115 -206 184 -148 252 -193 808 -152 1864 16 396 13 1219 -5 1440 -31
398 -78 723 -131 910 -33 120 -56 169 -92 204 -22 20 -32 22 -75 16 -47 -6
-52 -5 -68 20 -41 63 -35 170 17 272 33 66 66 103 114 127 36 19 29 19 69 2z
m2725 -2580 c75 -56 102 -127 126 -336 9 -74 25 -211 35 -305 31 -269 35 -418
16 -579 -20 -160 -23 -170 -45 -160 -9 3 -73 9 -143 12 l-128 5 0 198 c0 152
-7 261 -29 466 -58 529 -64 609 -45 648 35 75 145 101 213 51z m171 -1416 c22
-12 26 -49 10 -80 -9 -17 -12 -17 -38 10 -17 17 -44 30 -70 35 -26 4 -42 12
-42 21 0 16 -45 19 -55 4 -3 -5 -21 -10 -38 -10 -48 -1 -111 -33 -142 -74 -28
-36 -115 -289 -115 -332 0 -27 11 -31 115 -39 134 -11 267 24 292 77 11 21 12
19 12 -19 1 -66 -27 -76 -219 -81 -85 -2 -171 0 -190 5 -34 9 -35 11 -34 59 2
54 68 271 109 359 14 29 33 56 43 60 54 23 322 26 362 5z m-210 -62 c0 -7 -8
-44 -17 -81 -19 -73 -13 -90 29 -79 28 7 45 38 59 110 10 46 17 61 27 57 7 -3
25 -5 38 -5 14 0 27 -7 30 -15 4 -8 -11 -87 -32 -175 l-38 -160 -36 -11 c-38
-12 -263 -9 -276 3 -4 4 -2 13 3 20 17 22 71 181 78 231 9 57 31 87 76 103 45
16 59 17 59 2z m-3250 -168 c0 -6 -11 -32 -24 -58 -28 -55 -84 -91 -182 -117
-98 -26 -305 -18 -362 14 -17 10 13 33 96 75 109 55 472 121 472 86z m2914
-278 c4 -7 14 -12 22 -12 10 0 14 -6 10 -17 -22 -77 -28 -118 -29 -184 l-1
-77 -44 -6 c-25 -3 -48 -3 -51 0 -3 3 -6 51 -6 107 0 98 1 105 39 182 38 78
39 79 46 49 4 -17 10 -36 14 -42z"/>
<path d="M3860 5452 c-86 -23 -143 -57 -211 -128 -94 -100 -141 -202 -160
-346 -18 -145 22 -279 126 -416 46 -62 65 -76 330 -268 259 -186 461 -368 505
-454 l22 -44 16 30 c8 16 32 51 54 78 21 27 36 56 33 64 -3 7 -5 23 -5 35 0
18 -7 14 -48 -26 l-48 -47 -93 90 c-118 115 -247 218 -479 383 -202 144 -248
191 -309 317 -32 64 -38 87 -41 160 -2 48 1 111 7 142 17 78 72 189 123 244
92 100 174 136 313 135 163 0 277 -55 395 -190 75 -85 91 -84 181 13 124 132
221 177 385 177 153 0 263 -59 349 -188 103 -154 121 -354 45 -504 -20 -39
-20 -42 -4 -60 25 -27 31 -24 58 29 59 117 72 248 36 386 -90 353 -431 504
-759 337 -24 -13 -80 -58 -124 -101 l-82 -78 -84 79 c-95 90 -171 132 -276
154 -91 19 -174 18 -255 -3z"/>
<path d="M1740 5156 c0 -3 15 -29 34 -58 59 -93 78 -137 71 -168 -9 -41 -47
-72 -98 -77 -40 -5 -46 -2 -71 28 -30 35 -29 20 -10 199 7 72 -1 77 -15 9 -5
-24 -17 -65 -26 -91 -22 -60 -14 -107 26 -152 37 -43 82 -53 138 -30 62 25 91
65 91 126 0 45 -5 57 -55 122 -52 70 -85 105 -85 92z"/>
<path d="M4698 4923 c-20 -2 -41 -10 -47 -17 -6 -7 -12 -72 -13 -147 l-3 -134
-135 -3 c-107 -2 -138 -6 -152 -19 -16 -14 -18 -35 -18 -168 0 -105 4 -156 13
-168 10 -14 35 -17 152 -19 l140 -3 5 -143 c4 -112 8 -145 20 -152 8 -5 83
-10 167 -10 125 0 154 3 167 16 13 12 16 41 16 148 l0 133 77 7 c42 3 107 6
144 6 57 0 70 3 79 19 5 11 10 85 10 169 0 131 -2 151 -18 165 -14 13 -45 17
-152 19 l-135 3 -5 137 c-3 93 -9 141 -18 150 -13 13 -212 21 -294 11z m254
-198 c2 -92 7 -138 16 -147 9 -9 54 -14 147 -16 l135 -4 0 -129 0 -129 -134 0
c-112 0 -136 -3 -147 -17 -10 -11 -15 -55 -17 -150 l-4 -133 -124 0 -124 0 0
123 c0 178 6 171 -165 178 -77 4 -141 7 -142 8 -2 0 -3 57 -3 125 l0 124 140
4 c95 2 143 7 152 16 9 9 14 55 16 147 l4 135 123 0 123 0 4 -135z"/>

</svg>
