<svg version="1.0" xmlns="http://www.w3.org/2000/svg"
 width="278.000000pt" height="257.000000pt" viewBox="0 0 278.000000 257.000000"
 preserveAspectRatio="xMidYMid meet">
<metadata>
Created by potrace 1.16, written by Peter Selinger 2001-2019
</metadata>
<g transform="translate(0.000000,257.000000) scale(0.100000,-0.100000)"
fill="#000000" stroke="none">
<path d="M1110 2285 c-63 -135 -119 -245 -124 -245 -5 0 -91 25 -191 57 l-183
56 -17 86 c-10 47 -21 90 -25 94 -5 6 -386 -50 -398 -58 -4 -3 105 -523 125
-592 9 -34 15 -65 11 -68 -3 -3 -38 -15 -79 -26 -41 -11 -105 -29 -142 -40
l-69 -20 209 -165 c120 -96 209 -174 211 -185 2 -13 -50 -84 -158 -215 -89
-108 -160 -197 -158 -199 1 -1 103 -11 225 -21 l222 -18 14 -41 c7 -22 17 -39
22 -39 6 1 27 5 47 8 l37 7 4 -93 3 -93 2 92 2 91 43 7 c68 11 77 15 77 39 0
51 -142 1138 -161 1234 -11 57 -18 106 -16 109 3 2 91 -23 197 -56 105 -34
195 -61 199 -61 4 0 52 92 106 205 54 112 102 202 106 200 4 -3 69 -86 145
-185 75 -99 138 -180 140 -180 1 0 95 50 207 110 113 61 209 110 214 110 6 0
7 -92 5 -225 -4 -205 -3 -225 12 -225 23 0 459 -40 470 -43 7 -2 -70 -99 -251
-313 l-42 -50 185 -149 c120 -96 181 -151 172 -155 -7 -4 -110 -33 -228 -65
-118 -32 -219 -62 -224 -66 -5 -4 14 -100 44 -219 29 -116 50 -213 47 -216 -3
-3 -108 26 -233 65 -125 39 -229 70 -230 68 -1 -1 -46 -94 -99 -207 -52 -112
-97 -206 -99 -208 -3 -2 -140 171 -283 358 -10 12 -14 13 -25 2 -11 -11 -11
-13 1 -10 8 2 67 -67 146 -170 72 -94 138 -180 148 -189 16 -16 23 -4 118 193
56 115 102 210 103 211 1 1 107 -31 234 -72 128 -41 239 -75 246 -75 10 0 -1
57 -41 222 -29 122 -50 225 -46 229 5 4 109 36 233 70 124 34 231 65 238 68 9
5 -45 55 -165 151 -98 79 -184 149 -192 156 -11 10 12 43 138 195 83 101 151
187 151 191 0 5 -10 8 -22 8 -13 0 -124 9 -248 20 -123 11 -229 20 -234 20 -5
0 -6 96 -2 235 4 129 5 235 1 235 -3 0 -102 -52 -219 -115 -118 -63 -217 -115
-222 -115 -5 0 -72 83 -149 184 -77 102 -144 184 -150 182 -5 -1 -54 -94 -107
-206 -53 -111 -99 -205 -102 -207 -10 -10 -406 120 -406 134 0 7 4 13 8 13 5
0 91 -26 193 -59 l184 -59 111 226 110 226 154 -202 c84 -111 157 -202 162
-202 7 0 105 51 377 198 l84 45 -6 -246 -7 -246 32 -5 c18 -3 136 -15 262 -26
126 -11 230 -21 232 -23 2 -1 -69 -90 -158 -196 -160 -191 -162 -193 -140
-210 84 -64 371 -297 371 -301 1 -3 -110 -36 -246 -74 -137 -37 -251 -70 -254
-74 -3 -4 20 -106 52 -227 32 -121 58 -227 59 -236 0 -14 -43 -3 -242 57 -134
41 -247 72 -253 70 -5 -2 -57 -105 -114 -230 -57 -124 -107 -223 -112 -221 -4
3 -76 93 -160 200 l-152 194 -66 -36 c-36 -20 -79 -45 -96 -55 -16 -10 -35
-18 -41 -18 -6 0 -16 29 -23 65 -7 36 -16 67 -20 69 -3 2 -64 -7 -136 -20
-183 -32 -225 -41 -232 -48 -3 -3 9 -80 27 -171 31 -156 34 -166 54 -162 12 3
96 18 189 33 98 16 167 32 167 38 -1 6 -7 40 -15 76 -8 36 -14 72 -15 82 0 11
33 34 96 68 52 28 99 50 104 48 4 -2 78 -97 164 -213 86 -116 160 -211 164
-213 4 -1 60 103 124 232 l117 234 276 -91 c151 -49 277 -88 280 -85 3 2 -21
118 -53 257 -58 250 -59 253 -38 262 12 5 136 41 276 79 140 39 259 72 265 74
5 1 -91 82 -213 180 -122 98 -222 181 -222 185 0 4 78 101 174 216 95 116 173
211 171 212 -1 2 -561 53 -581 53 -3 0 -4 119 -2 265 2 151 -1 265 -6 265 -5
0 -117 -58 -248 -130 -132 -71 -245 -130 -251 -130 -7 1 -86 97 -176 215 -90
118 -165 215 -165 215 -1 0 -53 -110 -116 -245z m-533 -211 c25 -124 65 -386
98 -644 31 -239 64 -497 74 -572 l18 -137 -21 -5 c-12 -2 -42 -8 -68 -11 l-47
-7 -20 68 c-144 488 -299 1064 -337 1248 -24 121 -43 221 -41 222 5 5 281 52
292 50 5 -2 28 -97 52 -212z m-252 -514 c0 -10 -25 -21 -72 -35 -40 -11 -74
-22 -76 -25 -3 -3 46 -45 108 -95 83 -66 115 -99 123 -122 5 -18 8 -33 5 -33
-6 0 -311 249 -318 260 -3 4 18 15 47 23 29 9 76 22 103 30 59 18 80 17 80 -3z
m25 -72 c6 -24 18 -65 26 -92 8 -27 13 -51 11 -52 -4 -4 -186 140 -187 147 0
7 95 37 122 38 12 1 21 -12 28 -41z m110 -391 c0 -13 -43 -74 -104 -147 -57
-69 -102 -128 -99 -132 2 -5 16 -7 31 -7 24 2 24 2 5 6 -13 2 -23 7 -23 10 0
14 193 234 200 226 4 -4 22 -62 39 -128 18 -66 38 -133 43 -148 6 -15 8 -30 6
-33 -8 -7 -381 28 -392 37 -9 8 275 350 286 342 5 -2 8 -14 8 -26z m439 -684
c18 -72 43 -205 38 -209 -6 -6 -225 -44 -253 -44 -19 0 -23 12 -43 108 -11 59
-21 114 -21 123 0 12 27 20 123 36 67 11 127 21 134 22 7 0 17 -16 22 -36z"/>
</g>
</svg>
