<?xml version="1.0" encoding="UTF-8" standalone="no"?>
<svg
   xmlns:dc="http://purl.org/dc/elements/1.1/"
   xmlns:cc="http://creativecommons.org/ns#"
   xmlns:rdf="http://www.w3.org/1999/02/22-rdf-syntax-ns#"
   xmlns:svg="http://www.w3.org/2000/svg"
   xmlns="http://www.w3.org/2000/svg"
   id="svg95"
   version="1.1"
   viewBox="0 0 18.473207 19.457458"
   height="73.540001"
   width="69.82">
  <defs
     id="defs89" />
  <metadata
     id="metadata92">
    <rdf:RDF>
      <cc:Work
         rdf:about="">
        <dc:format>image/svg+xml</dc:format>
        <dc:type
           rdf:resource="http://purl.org/dc/dcmitype/StillImage" />
        <dc:title></dc:title>
      </cc:Work>
    </rdf:RDF>
  </metadata>
  <g
     transform="translate(90.39175,-60.750314)"
     id="layer1">
    <g
       id="g107">
      <path
         d="m -75.101198,79.915918 v -0.23495 c 0,-0.7747 0.256469,-1.507419 0.613833,-2.159353 h 0.577497 l 1.715559,-1.715205 V 65.183213 l -1.715559,-1.715558 h -0.561269 c -0.366536,-0.660048 -0.630061,-1.403703 -0.630061,-2.190045 v -0.235302 h -12.105569 v 0.235302 c 0,0.786342 -0.263878,1.529997 -0.630414,2.190045 h -0.560917 l -1.715205,1.715558 V 75.80641 l 1.715205,1.715205 h 0.577497 c 0.357364,0.651934 0.613834,1.384653 0.613834,2.159353 v 0.23495 z"
         style="fill:#ffffff;fill-opacity:1;fill-rule:nonzero;stroke:none;stroke-width:0.35277775"
         id="path14808" />
      <path
         d="m -74.915389,80.207772 v -0.242359 c 0,-0.798336 0.26423,-1.553986 0.632883,-2.226027 h 0.595489 l 1.768475,-1.768122 V 65.019278 l -1.768475,-1.768828 h -0.578909 c -0.377824,-0.680155 -0.649463,-1.447094 -0.649463,-2.257425 v -0.242711 h -12.479867 v 0.242711 c 0,0.810331 -0.271991,1.57727 -0.649816,2.257425 h -0.578556 l -1.768122,1.768828 v 10.951986 l 1.768122,1.768122 h 0.595489 c 0.368653,0.672041 0.632883,1.427691 0.632883,2.226027 v 0.242359 z m -8.05815,-17.975791 c 0.207433,0 0.375355,-0.167922 0.375355,-0.375003 0,-0.01693 -0.0074,-0.0314 -0.0095,-0.04762 0.499176,-0.209903 1.007529,-0.401461 1.524348,-0.573969 h -0.14358 c 0.515761,0.171802 1.023408,0.363361 1.521883,0.572911 -0.0025,0.01658 -0.0099,0.0314 -0.0099,0.04868 0,0.20708 0.16757,0.375002 0.375003,0.375002 0.116417,0 0.2159,-0.05574 0.285044,-0.138641 0.384881,0.177094 0.762,0.367947 1.134534,0.567619 h -6.470275 c 0.37218,-0.199319 0.748947,-0.389466 1.133122,-0.566561 0.06879,0.0822 0.168275,0.137583 0.283986,0.137583 m -2.843389,1.01847 h -1.130653 c 0.300567,-0.460022 1.100314,-1.287639 2.970036,-1.287639 h 0.504473 c -0.809625,0.379237 -1.591734,0.809625 -2.343856,1.287639 m 1.040342,-0.377825 h 7.242174 c 0.216959,0.122061 0.431448,0.248003 0.643467,0.377825 H -85.4197 c 0.211667,-0.129822 0.426508,-0.255764 0.643114,-0.377825 m 8.282516,0.377825 c -0.752122,-0.478014 -1.534583,-0.908402 -2.344208,-1.287639 h 0.539397 c 1.870075,0 2.669469,0.827617 2.970036,1.287639 z m 1.671108,0 h -0.257527 c -0.191911,-0.336902 -0.672042,-0.961319 -1.711325,-1.287639 h 1.507066 c 0.100542,0.452614 0.259998,0.884767 0.461786,1.287639 m -0.570794,-2.015066 c 0.0099,0.174625 0.03069,0.34678 0.06032,0.515761 h -3.652661 c -0.04657,-0.154164 -0.183797,-0.269522 -0.353836,-0.269522 -0.113595,0 -0.211667,0.05327 -0.280811,0.132644 -0.318201,-0.134056 -0.640287,-0.259997 -0.966254,-0.378883 z m -6.33095,0 c -0.325966,0.118886 -0.648405,0.245533 -0.967669,0.379941 -0.06844,-0.08008 -0.166864,-0.133702 -0.281164,-0.133702 -0.169686,0 -0.30727,0.115358 -0.353483,0.269522 h -3.650545 c 0.02963,-0.168981 0.05045,-0.341136 0.06032,-0.515761 z m -5.301191,0.727427 h 1.541286 c -1.038931,0.32632 -1.519414,0.950737 -1.711325,1.287639 h -0.2921 c 0.201789,-0.402872 0.361597,-0.835025 0.462139,-1.287639 m -2.880783,3.257198 1.484841,-1.484489 h 0.954969 c -0.807508,0.339372 -1.381477,0.892175 -1.789288,1.501775 h -0.01587 v 0.02469 c -0.286809,0.434622 -0.490714,0.893939 -0.634647,1.325033 z m 0,2.168172 c 0.106538,-0.499534 0.296686,-1.121834 0.634647,-1.719086 v 9.656938 c -0.05927,-0.104775 -0.121356,-0.204258 -0.174978,-0.316794 -0.231775,-0.488598 -0.372886,-0.979312 -0.459669,-1.389945 z m 1.484841,9.866135 -1.484841,-1.484136 v -1.367366 c 0.143933,0.431094 0.347838,0.890763 0.634647,1.325033 v 0.02505 h 0.01587 c 0.407811,0.609247 0.98178,1.16205 1.789288,1.501422 z m 9.084028,1.471789 c -0.207434,0 -0.375003,0.168275 -0.375003,0.375003 0,0.01693 0.0071,0.0314 0.0095,0.04763 -0.499181,0.209903 -1.007886,0.401461 -1.524353,0.573969 h 0.143581 c -0.516114,-0.171802 -1.023409,-0.363361 -1.522236,-0.572911 0.0025,-0.01658 0.01023,-0.0314 0.01023,-0.04868 0,-0.206728 -0.167922,-0.375003 -0.375356,-0.375003 -0.116416,0 -0.2159,0.05574 -0.284691,0.138642 -0.384881,-0.176742 -0.762,-0.367595 -1.134534,-0.56762 h 6.470298 c -0.372181,0.199673 -0.748948,0.38982 -1.133123,0.566914 -0.06914,-0.08255 -0.168627,-0.137936 -0.284338,-0.137936 m 2.793294,-0.986719 h 1.159581 c -0.316089,0.464961 -1.119717,1.256241 -2.948517,1.256241 h -0.504825 c 0.791633,-0.371122 1.557161,-0.790927 2.293761,-1.256241 m -0.990247,0.346427 h -7.242151 c -0.19932,-0.112896 -0.397581,-0.227196 -0.593019,-0.346435 h 8.428213 c -0.195439,0.119239 -0.393347,0.233539 -0.593019,0.346427 m -8.232069,-0.346427 c 0.736599,0.465314 1.502127,0.885119 2.293761,1.256241 h -0.538692 c -1.8288,0 -2.632428,-0.79128 -2.948517,-1.256241 z m -1.70427,0 h 0.259645 c 0.2032,0.343252 0.685094,0.939094 1.692275,1.256241 h -1.506714 c -0.09843,-0.440619 -0.25012,-0.862894 -0.445206,-1.256241 m 0.553861,1.983316 c -0.0099,-0.174625 -0.03069,-0.346427 -0.06032,-0.515761 h 3.652308 c 0.04657,0.154517 0.18415,0.269522 0.353837,0.269522 0.113947,0 0.212019,-0.05292 0.280811,-0.132644 0.318558,0.134056 0.640644,0.259997 0.966258,0.378883 z m 6.330597,0 c 0.32632,-0.118886 0.648759,-0.245533 0.96767,-0.379941 0.06844,0.08043 0.167216,0.133702 0.281164,0.133702 0.169686,0 0.307269,-0.115005 0.353836,-0.269522 h 3.650544 c -0.02963,0.169334 -0.05045,0.341136 -0.06032,0.515761 z m 5.301897,-0.727075 h -1.541286 c 1.007534,-0.317147 1.488722,-0.912989 1.691922,-1.256241 h 0.294217 c -0.194733,0.393347 -0.34678,0.815622 -0.444853,1.256241 m -11.508316,-1.741311 c -0.921808,-0.222955 -1.659819,-0.730602 -2.214386,-1.509183 v -10.49161 c 0.482247,-0.67557 1.188508,-1.262592 2.223205,-1.518003 h 11.266664 c 0.921808,0.223308 1.660172,0.730603 2.214386,1.509183 v 10.491963 c -0.481894,0.67557 -1.188508,1.262592 -2.223558,1.51765 z m 14.389452,-1.484136 -1.484841,1.484136 h -0.95497 c 0.807156,-0.339372 1.381478,-0.892175 1.788936,-1.501422 h 0.01588 v -0.02505 c 0.286456,-0.43427 0.491067,-0.893939 0.635,-1.325033 z m 0,-2.168172 c -0.107244,0.499886 -0.297391,1.121833 -0.635,1.718733 v -9.656585 c 0.05927,0.104775 0.121709,0.203905 0.174978,0.316442 0.23107,0.488597 0.373239,0.979663 0.460022,1.390297 z m 0,-7.014986 c -0.143933,-0.431094 -0.348544,-0.890411 -0.635,-1.325033 v -0.02469 h -0.01588 c -0.407458,-0.6096 -0.98178,-1.162402 -1.788936,-1.501775 h 0.95497 l 1.484841,1.484489 z"
         style="fill:#0a0a0d;fill-opacity:1;fill-rule:nonzero;stroke:none;stroke-width:0.35277775"
         id="path14820" />
    </g>
  </g>
</svg>
