<?xml version="1.0" encoding="UTF-8" standalone="no"?>
<svg
   xmlns:dc="http://purl.org/dc/elements/1.1/"
   xmlns:cc="http://creativecommons.org/ns#"
   xmlns:rdf="http://www.w3.org/1999/02/22-rdf-syntax-ns#"
   xmlns:svg="http://www.w3.org/2000/svg"
   xmlns="http://www.w3.org/2000/svg"
   id="svg75"
   version="1.1"
   viewBox="0 0 26.410719 20.163012"
   height="20.163012mm"
   width="26.410719mm">
  <defs
     id="defs69" />
  <metadata
     id="metadata72">
    <rdf:RDF>
      <cc:Work
         rdf:about="">
        <dc:format>image/svg+xml</dc:format>
        <dc:type
           rdf:resource="http://purl.org/dc/dcmitype/StillImage" />
        <dc:title></dc:title>
      </cc:Work>
    </rdf:RDF>
  </metadata>
  <g
     transform="translate(-53.457797,-96.738989)"
     id="layer1">
    <g
       id="g87">
      <path
         d="m 53.795301,106.71304 c 3.594805,-3.28366 3.764491,-8.832499 3.778602,-8.89741 l 0.07161,-0.386998 0.320675,0.303742 c 0.416983,0.392289 1.372306,0.690739 2.082094,0.916517 0.124531,-0.510823 0.185209,-1.161698 0.188737,-1.175456 l 0.07126,-0.386997 0.324555,0.303742 c 1.273175,1.201561 3.738387,1.820686 5.806723,1.89618 h -0.02858 c 2.068336,-0.07549 4.642202,-0.739775 5.918905,-1.940983 l 0.324555,-0.303742 0.07161,0.386997 c 0,0.01341 0.05997,0.664634 0.188736,1.175103 0.709084,-0.225778 1.664406,-0.524228 2.077862,-0.916164 l 0.324908,-0.303741 0.07126,0.386997 c 0.01411,0.06456 0.416983,5.658553 4.008261,8.942213 l 0.117475,0.1076 -0.117475,0.10724 c -3.591278,3.28436 -3.99415,8.878 -4.008261,8.94256 l -0.07126,0.38665 -0.324908,-0.30339 c -0.413447,-0.39229 -1.368769,-0.69074 -2.077853,-0.91617 -0.128763,0.51047 -0.188736,1.1617 -0.188736,1.17511 l -0.07161,0.38664 -0.324555,-0.30339 c -1.276707,-1.20085 -3.850573,-1.86584 -5.918909,-1.94133 h 0.02858 c -2.068336,0.0755 -4.533548,0.78528 -5.806723,1.98649 l -0.324555,0.30339 -0.07126,-0.38665 c -0.0035,-0.0134 -0.06421,-0.66463 -0.188737,-1.1751 -0.709788,0.22543 -1.665111,0.52352 -2.082094,0.91616 l -0.320675,0.30339 -0.07161,-0.38664 c -0.01412,-0.0646 -0.183802,-5.70336 -3.778607,-8.98772 l -0.117828,-0.10724 z"
         style="fill:#ffffff;fill-opacity:1;fill-rule:nonzero;stroke:none;stroke-width:0.35277775"
         id="path14748" />
      <path
         d="m 75.197727,115.47713 c 0.185914,-0.79833 0.152753,-1.99284 0.815975,-3.62444 0.663575,-1.63159 1.442155,-2.70792 2.611967,-4.26578 0.485069,-0.76624 0.485069,-0.76624 0,-1.45063 -2.580923,-2.92276 -3.056114,-6.382099 -3.427942,-7.974891 -0.922161,2.603851 0.46743,5.081411 1.014236,5.851521 l 0.185561,-0.33231 v 0.58208 1.22449 c 0.404989,0.53764 0.849842,0.77364 1.334558,1.22273 l 0.120298,0.11077 -0.120298,0.11042 c -0.484716,0.44909 -0.929569,0.68545 -1.334558,1.22273 v 1.2252 0.58173 l -0.185561,-0.33514 c -0.546806,0.77011 -1.936397,3.25014 -1.014236,5.85152 M 72.548719,98.479595 c -0.05468,-0.232834 -0.102306,-0.784578 -0.135114,-0.936978 -0.674511,0.490361 -1.6256,1.178278 -2.664531,1.408289 0.944034,-0.08855 1.924756,-0.232834 2.799645,-0.471311 m 1.748719,-0.107598 c -0.269522,0.121709 -0.913694,0.230011 -1.220611,0.326673 0.419453,1.58503 1.334558,3.90207 2.956278,6.27909 v -0.64064 c -0.138289,-0.17992 -0.787048,-1.05834 -1.272117,-2.26343 -0.0035,-0.0138 -0.452614,-1.50495 -0.46355,-3.701693 m -1.220611,16.570323 c 0.306917,0.097 0.951089,0.20532 1.220611,0.32703 0.01093,-2.19957 0.460022,-3.69112 0.46355,-3.70205 0.485069,-1.20756 1.133828,-2.08316 1.272117,-2.26589 v -0.63783 c -1.62172,2.37702 -2.536825,4.69442 -2.956278,6.27874 m -0.528108,0.21908 c -0.874889,-0.23813 -1.855611,-0.38241 -2.799645,-0.47131 1.038931,0.23001 1.99002,0.91828 2.664531,1.40864 0.03281,-0.1524 0.08043,-0.70485 0.135114,-0.93733 m -12.123561,0 c 0.05821,0.23248 0.105833,0.78493 0.138642,0.93733 0.674158,-0.49036 1.6256,-1.17863 2.66453,-1.40864 -0.944033,0.0889 -1.928283,0.23318 -2.803172,0.47131 m 2.799291,-16.210494 c -1.038577,-0.230011 -1.986491,-0.917928 -2.660649,-1.408289 -0.03281,0.1524 -0.08043,0.704144 -0.138642,0.936978 0.874889,0.238477 1.859139,0.382763 2.799291,0.471311 m -9.646355,7.758994 c 3.674533,-3.38561 3.869972,-9.152467 3.884436,-9.219142 l 0.07302,-0.398991 0.327731,0.313266 c 0.426508,0.404284 1.402997,0.711906 2.128308,0.944739 0.127353,-0.526344 0.189442,-1.19768 0.192969,-1.211791 l 0.07303,-0.398992 0.331612,0.313267 c 1.301397,1.23825 3.799769,1.923344 5.913966,2.001308 h -0.02893 c 2.114199,-0.07796 4.609044,-0.763058 5.913969,-2.001308 l 0.331964,-0.313267 0.07303,0.398992 c 0,0.01411 0.06138,0.685447 0.192969,1.211791 0.724958,-0.232833 1.701447,-0.540455 2.124075,-0.944739 l 0.331964,-0.313266 0.07303,0.398991 c 0.01447,0.06667 0.562328,5.833532 4.233333,9.219142 l 0.119945,0.11077 -0.119945,0.11042 c -3.671005,3.38596 -4.218869,9.15282 -4.233333,9.2195 l -0.07303,0.39863 -0.331964,-0.31291 c -0.422628,-0.40463 -1.399117,-0.71226 -2.124075,-0.94474 -0.131586,0.52635 -0.192969,1.19768 -0.192969,1.21179 l -0.07303,0.39864 -0.331964,-0.31291 c -1.304925,-1.23825 -3.79977,-1.9237 -5.913967,-2.00131 h 0.02893 c -2.114197,0.0776 -4.612569,0.76306 -5.913966,2.00131 l -0.331612,0.31291 -0.07303,-0.39864 c -0.0035,-0.0141 -0.06562,-0.68544 -0.192969,-1.21179 -0.725311,0.23248 -1.7018,0.54011 -2.128308,0.94474 l -0.327733,0.31291 -0.07302,-0.39863 c -0.01447,-0.0667 -0.209903,-5.83354 -3.884436,-9.2195 l -0.120297,-0.11042 z m 2.133953,0.11077 c 2.711803,2.57916 4.078816,5.90832 4.625622,7.9943 2.711803,-0.72319 5.556955,-0.70732 6.154561,-0.68227 h -0.0067 c 0.597253,-0.025 3.442406,-0.0409 6.154209,0.68227 0.546805,-2.08598 1.913819,-5.41514 4.622094,-7.9943 -2.708275,-2.57916 -4.075289,-5.90832 -4.622094,-7.994648 -2.711803,0.723547 -5.556956,0.70732 -6.154209,0.67945 h 0.0067 c -0.597606,0.02787 -3.442758,0.0441 -6.154561,-0.67945 -0.546806,2.086328 -1.913819,5.415488 -4.625622,7.994648 m 1.049867,-2.80776 c 0.550333,-0.77011 1.939925,-3.24732 1.017763,-5.851521 -0.371827,1.592792 -0.494594,5.052131 -3.075164,7.974891 -0.488597,0.68439 -0.488597,0.68439 -0.0035,1.36596 2.580569,2.91959 2.706864,6.3821 3.078691,7.97489 0.922162,-2.60138 -0.46743,-5.08141 -1.017763,-5.85152 l -0.182387,0.33514 v -0.58173 -1.2252 c -0.404636,-0.53728 -0.849136,-0.77364 -1.333852,-1.22273 l -0.120298,-0.11042 0.120298,-0.11077 c 0.484716,-0.44909 0.929216,-0.68509 1.333852,-1.22273 v -1.22449 -0.58208 z m 0.182386,5.2885 c 0.138641,0.18273 0.787047,1.05833 1.268236,2.26307 0,0 0.456494,1.49683 0.463903,3.70487 0.273402,-0.12171 0.917574,-0.23001 1.223786,-0.32703 -0.4191,-1.58432 -1.333853,-3.90172 -2.955925,-6.27874 z m 0,-4.32365 c 1.622072,-2.37702 2.536825,-4.69406 2.955925,-6.27909 -0.306212,-0.09666 -0.950384,-0.204964 -1.223786,-0.326673 -0.0039,1.102431 0.02223,2.097973 -0.182034,2.815163 -0.203905,0.71755 -1.411464,2.97004 -1.550105,3.14996 z"
         style="fill:#0a0a0d;fill-opacity:1;fill-rule:nonzero;stroke:none;stroke-width:0.35277775"
         id="path14760" />
    </g>
  </g>
</svg>
