<?xml version="1.0" encoding="UTF-8" standalone="no"?>
<svg
   xmlns:dc="http://purl.org/dc/elements/1.1/"
   xmlns:cc="http://creativecommons.org/ns#"
   xmlns:rdf="http://www.w3.org/1999/02/22-rdf-syntax-ns#"
   xmlns:svg="http://www.w3.org/2000/svg"
   xmlns="http://www.w3.org/2000/svg"
   id="svg7995"
   version="1.1"
   viewBox="0 0 75.436676 72.989281"
   height="72.989281mm"
   width="75.436676mm">
  <defs
     id="defs7989">
    <style
       id="style8558">.cls-1{fill:#fff;}.cls-2{fill:#231f20;}</style>
  </defs>
  <metadata
     id="metadata7992">
    <rdf:RDF>
      <cc:Work
         rdf:about="">
        <dc:format>image/svg+xml</dc:format>
        <dc:type
           rdf:resource="http://purl.org/dc/dcmitype/StillImage" />
        <dc:title></dc:title>
      </cc:Work>
    </rdf:RDF>
  </metadata>
  <g
     transform="translate(0,-224.01072)"
     id="layer1">
    <g
       transform="matrix(0.26458333,0,0,0.26458333,0,283.96398)"
       id="Layer_2"
       data-name="Layer 2">
      <g
         id="Layer_1-2"
         data-name="Layer 1">
        <polygon
           style="fill:#ffffff"
           class="cls-1"
           points="51.61,44.08 47.41,48.28 5.13,48.28 0.92,44.08 0.92,5.01 5.13,0.8 47.41,0.8 51.61,5.01 "
           id="polygon8564" />
        <path
           style="fill:#231f20"
           class="cls-2"
           d="m 279.545,47.9 h -2.66 c 2.04783,-0.894973 3.78681,-2.373105 5,-4.25 v 0 -0.07 c 0.75944,-1.169155 1.3613,-2.433398 1.79,-3.76 V 43.7 Z M 1.38,43.7 v -3.88 c 0.4287067,1.326602 1.0305667,2.590845 1.79,3.76 v 0.07 h 0.05 c 1.2318389,1.887483 2.9964185,3.366667 5.07,4.25 H 5.58 Z m 4.2,-268.91501 h 2.71 c -2.0758209,0.87968 -3.8413688,2.35968 -5.07,4.25 H 3.17 v 0.07 c -0.7594333,1.16916 -1.3612933,2.4334 -1.79,3.76 v -3.88 z m 276.375,5.46 c 0.16,0.3 0.34,0.58 0.49,0.9 0.58901,1.25675 1.02545,2.5795 1.3,3.94 V 37.55 c -0.34948,1.703795 -0.95288,3.345439 -1.79,4.87 z m -280.575,4.89 c 0.3494836,-1.70379 0.9528803,-3.34543 1.79,-4.87 V 42.44 C 3.01,42.14 2.83,41.86 2.68,41.54 2.0924049,40.282688 1.6560229,38.960115 1.38,37.6 Z M 274.885,47.9 H 10.2 C 7.6468695,47.30482 5.4075665,45.778671 3.92,43.62 v -264.53501 c 1.5015634,-2.16195 3.7486351,-3.69324 6.31,-4.3 h 264.655 c 2.54924,0.59801 4.78655,2.11923 6.28,4.27 V 43.65 c -1.503,2.13714 -3.73728,3.649189 -6.28,4.25 m 8.86,-268.91501 v 3.88 c -0.4287,-1.3266 -1.03056,-2.59084 -1.79,-3.76 v -0.07 0 c -1.22863,-1.89032 -2.99418,-3.37032 -5.07,-4.25 h 2.71 z m -3.63,-5.58 H 5 l -5,5 V 44.27 l 5,5 h 275.115 l 5,-5 v -265.86501 z"
           id="path8566" />
      </g>
    </g>
  </g>
</svg>
