
<?xml version="1.0" encoding="UTF-8"?>
<svg width="60" height="136" version="1.1" viewBox="0 0 15.875 35.983334" xmlns="http://www.w3.org/2000/svg" xmlns:cc="http://creativecommons.org/ns#" xmlns:dc="http://purl.org/dc/elements/1.1/" xmlns:rdf="http://www.w3.org/1999/02/22-rdf-syntax-ns#">
<metadata>
<rdf:RDF>
<cc:Work rdf:about="">
<dc:format>image/svg+xml</dc:format>
<dc:type rdf:resource="http://purl.org/dc/dcmitype/StillImage"/>
<dc:title/>
</cc:Work>
</rdf:RDF>
</metadata>
<g transform="translate(108.53 -53.379)">
<path d="m-106.13 53.598c-0.18137 0.75008-0.7883 1.1354-1.5174 1.416l-0.42322 3.7264 0.40847 1.4544-0.70284 0.57369c0.42597 2.9742 0.7467 4.8104 0.92917 7.7846l-0.0394 7.0074c-0.28894 2.1494-0.50583 4.3111-0.8854 6.4288l0.73971 0.56165-0.4456 1.4237 0.27698 3.802c0.23987 0.01966 1.4952 0.46442 1.6103 1.385l11.035-0.02859c0.10132-0.72921 1.2843-1.1735 1.5946-1.4492l0.40811-3.7202-0.37991-1.3171 0.73276-0.67154c-0.4233-2.0041-0.54352-2.8196-0.79682-4.8934l-0.09564-8.8713c0.14073-2.7304 0.50855-4.6874 0.81306-7.4224l-0.57352-0.57434 0.32186-1.436-0.39341-3.7523c-0.39632-0.20831-1.202-0.31668-1.5826-1.3964z" fill="#fff" stroke="#fff" stroke-width=".062836"/>
<g transform="matrix(.34998 0 0 -.35215 -69.138 75.137)">
<path d="m-69.536 0-2e-3 17.367c0.316 5.131 1.078 19.529 2.257 23.355l0.085 0.277-0.246 0.152c-0.017 0.01-0.756 0.478-1.505 1.263 0.243 1.383 0.556 2.69 0.956 3.843l0.049 0.139-1.014 11.302-0.439 0.136c-1.031 0.32-3.969 1.605-3.969 3.264v0.687h-33.023v-0.687c0-1.66-2.865-2.919-3.968-3.264l-0.44-0.137-1.014-11.301 0.049-0.139c0.4-1.152 0.711-2.454 0.954-3.834-0.746-0.792-1.486-1.262-1.503-1.272l-0.246-0.153 0.085-0.276c1.177-3.821 1.939-18.195 2.255-23.333l2e-3 -17.369c-0.316-5.131-1.078-15.529-2.257-19.354l-0.085-0.277 0.246-0.153c0.017-9e-3 0.756-0.476 1.505-1.262-0.243-1.383-0.555-2.689-0.956-3.843l-0.049-0.14 1.014-11.301 0.44-0.136c1.103-0.345 3.968-1.604 3.968-3.264v-0.687h33.023v0.687c0 1.66 2.865 2.919 3.969 3.264l0.439 0.136 1.014 11.301-0.049 0.14c-0.399 1.151-0.711 2.454-0.954 3.834 0.746 0.792 1.486 1.262 1.503 1.271l0.246 0.154-0.085 0.276c-1.177 3.82-1.939 14.195-2.255 19.334m-1.567-25.444c5e-3 -0.013 0.182-0.431 0.415-1.052 0.103-0.93 0.183-2.863-0.544-4.99-1.205-3.524-4.152-6.102-8.539-7.536h-20.24c-9.423 3.066-9.32 10.331-9.061 12.501 0.242 0.653 0.433 1.105 0.445 1.138 0.363 1.547-0.142 2.885-0.856 3.924 1.381 7.57 0.678 17.211 0.643 17.646l-2e-3 28.962c0.037 0.479 0.741 10.138-0.644 17.711 0.711 1.048 1.211 2.4 0.839 3.972-5e-3 0.013-0.183 0.432-0.416 1.052-0.103 0.929-0.183 2.862 0.544 4.99 1.206 3.524 4.152 6.103 8.54 7.536h20.239c9.423-3.066 9.32-10.331 9.061-12.501-0.242-0.653-0.433-1.105-0.445-1.138-0.363-1.547 0.142-2.885 0.857-3.924-1.382-7.571-0.679-17.211-0.644-17.646l2e-3 -28.963c-0.037-0.478-0.741-10.137 0.644-17.711-0.71-1.048-1.21-2.4-0.838-3.971m3.026 66.117c-0.699-2.471-1.243-7.063-1.633-11.436-0.073 3.272-0.024 8.035 0.614 12.264 0.412-0.383 0.787-0.665 1.019-0.828m-2.337 5.864c0.035 0.082 0.464 1.09 0.868 2.338l0.207-2.309c-0.277-0.82-0.51-1.707-0.711-2.632-0.385 0.761-0.588 1.644-0.364 2.603m0.17 10.135 0.507-5.657c-0.102-0.488-0.239-0.995-0.389-1.484-0.032 0.987-0.189 2.205-0.634 3.504-0.823 2.408-2.816 5.459-7.534 7.375h3.637c0.512-2.105 3.276-3.321 4.413-3.738m-34.85 3.738h3.632c-6.802-2.761-8.044-7.94-8.146-10.931-0.156 0.503-0.3 1.03-0.406 1.535l0.507 5.658c1.137 0.417 3.902 1.633 4.413 3.738m-5.318-13.844 0.207 2.309c0.4-1.236 0.822-2.225 0.848-2.276 0.228-0.974 0.031-1.868-0.35-2.638-0.199 0.916-0.431 1.794-0.705 2.605m-0.244-5.062c0.638-4.223 0.688-8.983 0.615-12.265-0.391 4.372-0.934 8.963-1.633 11.434 0.233 0.163 0.608 0.446 1.018 0.831m-1.018-60.789c0.699 2.471 1.243 7.062 1.633 11.435 0.073-3.271 0.024-8.035-0.614-12.263-0.411 0.383-0.786 0.666-1.019 0.828m2.337-5.864c-0.035-0.083-0.464-1.09-0.868-2.338l-0.207 2.308c0.277 0.82 0.511 1.706 0.711 2.632 0.386-0.762 0.588-1.644 0.364-2.602m-0.17-10.135-0.507 5.657c0.102 0.486 0.24 0.994 0.389 1.483 0.032-0.987 0.189-2.204 0.634-3.503 0.823-2.41 2.816-5.459 7.534-7.375h-3.637c-0.511 2.105-3.276 3.321-4.413 3.738m34.85-3.738h-3.632c6.802 2.76 8.044 7.94 8.147 10.931 0.155-0.504 0.299-1.03 0.405-1.535l-0.507-5.658c-1.137-0.417-3.901-1.633-4.413-3.738m5.318 13.843-0.207-2.308c-0.4 1.237-0.822 2.223-0.847 2.276-0.229 0.974-0.032 1.867 0.349 2.638 0.199-0.916 0.431-1.794 0.705-2.606m0.244 5.063c-0.638 4.222-0.688 8.982-0.615 12.264 0.391-4.372 0.934-8.962 1.633-11.433-0.232-0.163-0.607-0.446-1.018-0.831" fill="#231f20"/>
</g>
<path d="m-104.77 54.602z" fill="none" stroke="#000" stroke-width=".26458px"/>
</g>
</svg>
