<?xml version="1.0" encoding="UTF-8"?>
<svg width="21.431mm" height="159.81mm" version="1.1" viewBox="0 0 21.431252 159.80833" xmlns="http://www.w3.org/2000/svg" xmlns:cc="http://creativecommons.org/ns#" xmlns:dc="http://purl.org/dc/elements/1.1/" xmlns:rdf="http://www.w3.org/1999/02/22-rdf-syntax-ns#">
<metadata>
<rdf:RDF>
<cc:Work rdf:about="">
<dc:format>image/svg+xml</dc:format>
<dc:type rdf:resource="http://purl.org/dc/dcmitype/StillImage"/>
<dc:title/>
</cc:Work>
</rdf:RDF>
</metadata>
<g image-rendering="optimizeSpeed">
<g transform="matrix(.35496 0 0 -.35279 2.7889 2.8841)" image-rendering="optimizeQuality">
<path d="m0 0c1.048 0.336 2.179 0.55 3.416 0.55h4.442c0.591-0.581 1.217-1.112 1.862-1.612-2.325 0.712-6.166 1.593-9.72 1.062m-6.988-5.251c-0.335-0.442-0.623-0.86-0.869-1.242v-9.271l1.174 4.368c-0.742 2.432-0.555 4.74-0.305 6.145m57.836-6.065c0.944 3.025 0.359 5.933 0.102 6.927-0.885 1.035-1.992 2.104-3.339 2.985-4.864 2.353-11.991 0.092-14.047-0.653-3.317-2.163-7.184-3.333-11.232-3.333-4.05 0-7.918 1.17-11.235 3.334-2.061 0.745-9.202 3.011-14.064 0.642-1.338-0.877-2.438-1.939-3.319-2.969-0.255-0.989-0.844-3.906 0.101-6.933l0.023-0.07-0.02-0.069-1.675-6.231v-401.26l1.694-6.298-0.023-0.069c-0.944-3.026-0.359-5.934-0.102-6.928 0.885-1.035 1.992-2.103 3.339-2.984 4.864-2.354 11.991-0.092 14.047 0.652 3.317 2.163 7.184 3.333 11.232 3.333 4.05 0 7.918-1.17 11.235-3.334 2.061-0.745 9.203-3.011 14.064-0.642 1.338 0.877 2.438 1.939 3.319 2.969 0.255 0.989 0.844 3.906-0.101 6.934l-0.023 0.069 0.02 0.069 1.676 6.231v401.26l-1.695 6.298zm-8.96 15.377h3.167l-0.721 0.96h-8.08c-0.235 8e-3 -0.46 0.036-0.699 0.036v-0.036h-4.951c0.349-0.301 0.678-0.624 0.992-0.96h8.355c6.202-1.372 10.601-5.303 12.569-7.396v-1.834c-1.984 2.733-5.706 6.469-11.273 6.469h-12.419c-0.135 0.242-0.384 0.413-0.68 0.413-0.434 0-0.788-0.354-0.788-0.788 0-0.435 0.354-0.788 0.788-0.788 0.296 0 0.545 0.171 0.68 0.413h6.86c-3.668-3.341-8.367-5.19-13.356-5.19s-9.687 1.849-13.356 5.19h6.859c0.135-0.242 0.384-0.413 0.68-0.413 0.434 0 0.788 0.353 0.788 0.788 0 0.434-0.354 0.788-0.788 0.788-0.296 0-0.545-0.171-0.68-0.413h-12.419c-5.568 0-9.291-3.738-11.273-6.47v1.834c1.965 2.093 6.358 6.022 12.559 7.395h8.363c0.314 0.338 0.643 0.66 0.991 0.962h-4.948v0.036c-0.238 0-0.464-0.028-0.699-0.036h-8.081l-0.722-0.962h3.165c-5.029-1.586-8.695-4.704-10.628-6.678v2.531s3.646 2.17 4.576 4.147h1.95l1.284 1.712h7.293c2.824 0.357 6.386 1.017 8.071 2.184 0 0 1.198 0.727 1.198-0.461 0-0.726-2.739-1.348-4.864-1.723h2.723c0.102 0.099 0.238 0.161 0.391 0.161 0.119 0 0.222-0.045 0.314-0.109 2.056 1.445 4.553 2.3 7.251 2.3s5.196-0.855 7.253-2.3c0.091 0.064 0.195 0.109 0.314 0.109 0.153 0 0.29-0.062 0.391-0.161h2.723c-2.125 0.375-4.864 0.997-4.864 1.723 0 1.188 1.198 0.461 1.198 0.461 1.685-1.167 5.247-1.827 8.071-2.184h7.293l1.282-1.71h1.952c0.93-1.979 4.577-4.147 4.577-4.147v-2.532c-1.935 1.975-5.603 5.093-10.632 6.679m-11.826 0.779c-0.052-0.017-0.106-0.033-0.165-0.033-0.31 0-0.562 0.252-0.562 0.562 0 5e-3 3e-3 9e-3 3e-3 0.014-1.984 1.406-4.398 2.24-7.008 2.24-2.609 0-5.023-0.834-7.006-2.239 0-5e-3 3e-3 -0.01 3e-3 -0.015 0-0.31-0.252-0.562-0.562-0.562-0.059 0-0.113 0.016-0.166 0.033-0.299-0.246-0.585-0.507-0.86-0.78h0.911c2.041 1.825 4.726 2.944 7.68 2.944s5.64-1.119 7.681-2.944h0.91c-0.274 0.273-0.56 0.534-0.859 0.78m21.284-16.236 1.174-4.364v9.267c-0.247 0.38-0.533 0.798-0.868 1.238 0.249-1.406 0.436-3.712-0.306-6.141m-10.099 11.946h-4.445c-0.59-0.582-1.217-1.112-1.862-1.613 2.325 0.711 6.166 1.592 9.722 1.063-1.048 0.335-2.178 0.55-3.415 0.55m-1e-3 -437.73c1.237 0 2.368 0.213 3.416 0.549-3.554-0.531-7.394 0.35-9.72 1.063 0.645-0.5 1.271-1.031 1.862-1.612zm10.404 5.8c0.335 0.443 0.623 0.861 0.87 1.243v9.27l-1.175-4.368c0.742-2.432 0.555-4.739 0.305-6.145m0.87-0.081v-1.834c-1.966-2.092-6.359-6.021-12.56-7.394h-8.363c-0.314-0.339-0.643-0.66-0.991-0.963h4.948v-0.035c0.238 0 0.465 0.027 0.699 0.035h8.081l0.722 0.963h-3.164c5.028 1.586 8.694 4.703 10.628 6.678v-2.532s-3.647-2.17-4.577-4.146h-1.95l-1.284-1.713h-7.293c-2.824-0.357-6.386-1.017-8.071-2.184 0 0-1.198-0.726-1.198 0.461 0 0.727 2.739 1.349 4.864 1.723h-2.723c-0.101-0.099-0.238-0.16-0.391-0.16-0.119 0-0.222 0.045-0.314 0.108-2.056-1.444-4.553-2.3-7.251-2.3s-5.196 0.856-7.253 2.3c-0.091-0.063-0.195-0.108-0.314-0.108-0.153 0-0.289 0.061-0.391 0.16h-2.723c2.125-0.374 4.864-0.996 4.864-1.723 0-1.187-1.198-0.461-1.198-0.461-1.685 1.167-5.247 1.827-8.071 2.184h-7.293l-1.282 1.711h-1.952c-0.93 1.978-4.576 4.146-4.576 4.146v2.533c1.934-1.976 5.602-5.093 10.631-6.679h-3.167l0.721-0.961h8.08c0.236-8e-3 0.46-0.035 0.699-0.035v0.035h4.951c-0.349 0.302-0.678 0.624-0.992 0.961h-8.355c-6.202 1.371-10.601 5.303-12.568 7.395v1.834c1.983-2.733 5.705-6.468 11.272-6.468h12.419c0.135-0.243 0.384-0.414 0.68-0.414 0.434 0 0.788 0.354 0.788 0.789 0 0.434-0.354 0.788-0.788 0.788-0.296 0-0.545-0.171-0.68-0.413h-6.859c3.668 3.34 8.366 5.189 13.355 5.189s9.688-1.849 13.357-5.189h-6.86c-0.135 0.242-0.384 0.413-0.68 0.413-0.434 0-0.788-0.354-0.788-0.788 0-0.435 0.354-0.789 0.788-0.789 0.296 0 0.545 0.171 0.68 0.414h12.419c5.568 0 9.291 3.737 11.274 6.469m-21.597-9.229h-0.911c-2.041-1.825-4.726-2.945-7.68-2.945s-5.64 1.12-7.681 2.945h-0.91c0.274-0.274 0.56-0.534 0.859-0.78 0.052 0.016 0.106 0.033 0.165 0.033 0.31 0 0.562-0.252 0.562-0.563 0 0-3e-3 -9e-3 -3e-3 -0.013 1.984-1.407 4.398-2.241 7.008-2.241 2.609 0 5.023 0.834 7.006 2.24 0 4e-3 -3e-3 9e-3 -3e-3 9e-3 0 0.316 0.252 0.568 0.562 0.568 0.059 0 0.113-0.017 0.166-0.033 0.299 0.246 0.585 0.506 0.86 0.78m-37.607 15.455-1.173 4.364v-9.266c0.246-0.38 0.532-0.798 0.867-1.239-0.249 1.407-0.436 3.712 0.306 6.141m14.544-11.945c0.59 0.582 1.217 1.112 1.862 1.613-2.325-0.712-6.166-1.593-9.722-1.064 1.048-0.335 2.178-0.549 3.415-0.549z" fill="#deddde"/>
</g>
<g transform="matrix(.99383 0 0 .99704 .06625 .18375)">
<g transform="matrix(.35496 0 0 -.35279 1.5336 12.876)" image-rendering="optimizeQuality">
<path d="m0 0s2.231-11.25 1.5-21.5c0 0-3.125-3.125 0.25-8.187l-0.28-5.472h48.795l-0.281 5.472c3.375 5.062 0.25 8.187 0.25 8.187-0.731 10.25 1.5 21.5 1.5 21.5l-1.437 1.062c0.312 0.563 1.098 4.029 1.098 4.029l-0.952 11.545c-2.853-1.177-4.693 3.139-4.693 3.139h-39.766s-1.839-4.316-4.693-3.139l-0.951-11.545s0.785-3.466 1.097-4.029z" fill="#fff"/>
</g>
<g transform="matrix(.35496 0 0 -.35279 10.715 21.01)" image-rendering="optimizeQuality">
<path d="m0 0c6.731 0 12.208-3.695 12.208-8.238s-5.477-8.24-12.208-8.24-12.208 3.697-12.208 8.24 5.477 8.238 12.208 8.238" fill="#fff"/>
</g>
<g transform="matrix(.35496 0 0 -.35279 10.715 26.382)" image-rendering="optimizeQuality">
<path d="m0 0c-5.939 0-10.958 3.201-10.958 6.989s5.019 6.989 10.958 6.989 10.958-3.201 10.958-6.989-5.019-6.989-10.958-6.989m0-2.5c7.434 0 13.458 4.249 13.458 9.489s-6.024 9.489-13.458 9.489c-7.433 0-13.458-4.249-13.458-9.489s6.025-9.489 13.458-9.489" fill="#deddde"/>
</g>
<g transform="matrix(.35496 0 0 -.35279 2.3191 8.8124)" image-rendering="optimizeQuality">
<path d="m0 0c-0.641 1.551-0.945 4.839-0.945 4.839l0.023 0.279 0.413 0.128c0.968 0.3 3.725 1.507 3.725 3.063v0.644h40.878v-0.644c0-1.556 2.756-2.763 3.724-3.063l0.412-0.128 0.024-0.279s-0.304-3.288-0.945-4.839l-0.288 4.155c-1.067 0.391-3.66 1.532-4.14 3.508h-38.452c-0.481-1.976-3.074-3.117-4.14-3.508zm-1.444-43.269-1e-3 -2e-3c0.055 0 0.121-4e-3 0.181-8e-3 0.052 0.733 0.106 1.561 0.157 2.47-0.75 1.167-1.329 2.48-1.451 3.868-0.151 1.724 0.426 3.321 1.699 4.754 0 0.252-3e-3 0.51-5e-3 0.767 0 0-0.907 16.929-1.74 19.634l-0.107 0.346 0.31 0.191c0.014 9e-3 0.736 0.468 1.445 1.227 0 0 0.746 0.667 1.022 1.471 0.306 0.657 0.461 1.404 0.274 2.21-0.031 0.072-0.379 0.891-0.733 1.948l-0.169-1.876c0.176-0.517 0.326-1.07 0.467-1.636-0.197-0.403-0.568-1.04-1.028-1.331-0.195 0.949-0.419 1.862-0.703 2.679l-0.047 0.13 0.812 9.054c-0.01-1.353 0.912-4.294 0.912-4.294 0.305-1.85 1.342-4.289 1.376-4.382 0.363-1.538-0.166-2.859-0.887-3.868 1.083-6.091 0.028-27.819-0.108-30.346-0.503 0.638-0.959 1.67-1.206 2.284 0.051 1.316 0.087 2.739 0.105 4.213-0.591-0.969-0.85-2.003-0.754-3.09 0.109-1.258 0.662-2.471 1.377-3.557 0.036-0.053 0.068-0.101 0.101-0.149 0.097-0.142 0.197-0.281 0.298-0.42 0.023-0.03 0.035-0.046 0.035-0.046v-2e-3c1.578-2.116 3.623-3.611 3.778-3.722 0.776-0.409 1.546-0.886 2.291-1.386h0.012l0.165-0.119c0.52-0.353 1.024-0.719 1.509-1.087l0.118-0.085h-7e-3c0.932-0.711 1.784-1.422 2.485-2.04 0.913-0.01 1.811-0.073 2.602-0.148-0.825 0.659-1.532 1.393-2.096 2.188h-2.243l-1.634 1.291h1.522c-0.344 1.019-0.523 1.93-0.579 2.736-0.541-0.736-1.695-1.846-3.424-1.182 0.392-0.112 2.002-0.347 3.448 2.687l4e-3 -0.016c0.289 2.406 1.657 3.498 1.657 3.498-1.42-2.791-1.091-5.268-0.63-6.764 8e-3 -9e-3 0.297-0.41 0.878-0.419-0.352 0.887-0.551 1.818-0.551 2.785 0 5.621 6.354 10.191 14.161 10.191 7.809 0 14.162-4.57 14.162-10.191 0-0.967-0.199-1.898-0.55-2.785 0.581 9e-3 0.869 0.41 0.877 0.419 0.461 1.496 0.791 3.973-0.629 6.764 0 0 1.368-1.092 1.656-3.498l4e-3 0.016c1.446-3.034 3.056-2.799 3.449-2.687-1.729-0.664-2.884 0.446-3.425 1.182-0.055-0.806-0.234-1.717-0.579-2.736h1.522l-1.634-1.291h-2.242c-0.565-0.795-1.272-1.529-2.096-2.188 0.79 0.075 1.688 0.138 2.602 0.148 0.701 0.618 1.552 1.329 2.485 2.04h-7e-3l0.117 0.085c0.486 0.368 0.988 0.734 1.51 1.087l0.165 0.119h0.012c0.745 0.5 1.514 0.977 2.291 1.386 0.154 0.111 2.199 1.606 3.777 3.722v2e-3s0.013 0.016 0.035 0.046c0.102 0.139 0.201 0.278 0.298 0.42 0.033 0.048 0.066 0.096 0.101 0.149 0.716 1.086 1.267 2.299 1.377 3.557 0.096 1.087-0.162 2.121-0.753 3.09 0.017-1.474 0.052-2.897 0.104-4.213-0.247-0.614-0.703-1.646-1.206-2.284-0.137 2.527-1.191 24.255-0.107 30.346-0.721 1.009-1.25 2.33-0.887 3.868 0.032 0.093 1.07 2.532 1.376 4.382 0 0 0.922 2.941 0.91 4.294l0.813-9.054-0.046-0.13c-0.284-0.817-0.508-1.73-0.703-2.679-0.46 0.291-0.831 0.928-1.029 1.331 0.141 0.566 0.291 1.119 0.467 1.636l-0.169 1.876c-0.353-1.057-0.701-1.876-0.732-1.948-0.188-0.806-0.033-1.553 0.273-2.21 0.277-0.804 1.022-1.471 1.022-1.471 0.71-0.759 1.431-1.218 1.446-1.227l0.31-0.191-0.108-0.346c-0.832-2.705-1.739-19.634-1.739-19.634-2e-3 -0.257-5e-3 -0.515-5e-3 -0.767 1.272-1.433 1.85-3.03 1.698-4.754-0.123-1.388-0.701-2.701-1.45-3.868 0.05-0.909 0.104-1.737 0.155-2.47 0.062 4e-3 0.127 8e-3 0.183 8e-3l-1e-3 2e-3c0.978 0.081 1.835-0.462 1.419-1.146-0.415-0.686-1.126-0.76-1.126-0.76s0.269 0.171 0.49 0.563c0.11 0.197 0.024 0.288-0.09 0.333-0.082 0.014-0.162 0.028-0.251 0.036h-2e-3c-0.18 0.015-0.369 0.019-0.551 0.017 0.117-1.52 0.211-2.438 0.217-2.488l0.076-0.715h-8.097c-0.962-0.687-1.868-1.408-2.652-2.067 2.842 0.025 4.626-1.391 4.626-1.391l-1.81-0.718 1e-3 1e-3c-0.874-0.37-2.259-0.897-3.515-1.145 9e-3 -2e-3 0.02-5e-3 0.02-5e-3 -0.077-0.014-0.143-0.024-0.218-0.037-0.055-0.01-0.108-0.021-0.161-0.028-6.348-1.099-7.011-0.494-7.011-0.494 2.731 0 4.453 1.781 4.453 1.781l0.157 0.159c0.065 0.063 0.407 0.407 0.954 0.92-0.404-0.022-0.8-0.05-1.184-0.082h-5e-3c-0.098-9e-3 -0.19-0.019-0.286-0.028-0.19-0.022-0.465-0.067-0.775-0.147-0.18-0.045-0.375-0.105-0.575-0.177-0.031-0.011-0.061-0.022-0.092-0.035-0.207-0.079-0.42-0.174-0.626-0.289-0.025-0.013-0.047-0.031-0.071-0.046-0.174-0.1-0.34-0.222-0.503-0.354-0.05-0.042-0.099-0.084-0.148-0.128-0.179-0.166-0.35-0.347-0.492-0.563l-5.187-0.592 0.041 0.017c-0.695-0.077-1.402-0.129-2.126-0.129-0.722 0-1.429 0.052-2.125 0.129l0.041-0.017-5.187 0.592c-0.145 0.218-0.317 0.401-0.499 0.567-0.047 0.044-0.096 0.085-0.145 0.128-0.167 0.135-0.341 0.26-0.519 0.365-0.021 0.011-0.039 0.025-0.059 0.036-0.209 0.115-0.42 0.209-0.626 0.288-0.04 0.015-0.078 0.029-0.115 0.042-0.197 0.069-0.392 0.131-0.568 0.174-0.302 0.073-0.565 0.117-0.75 0.139-0.096 9e-3 -0.189 0.019-0.286 0.028h-5e-3c-0.384 0.032-0.781 0.06-1.184 0.082 0.547-0.513 0.889-0.857 0.953-0.92l0.157-0.159s1.722-1.781 4.452-1.781c0 0-0.662-0.605-7.009 0.494-0.054 7e-3 -0.107 0.018-0.161 0.028-0.076 0.013-0.142 0.023-0.218 0.037 0 0 0.011 3e-3 0.019 5e-3 -1.257 0.248-2.641 0.775-3.514 1.145l1e-3 -1e-3 -1.81 0.718s1.783 1.416 4.626 1.391c-0.784 0.659-1.691 1.38-2.652 2.067h-8.098l0.076 0.715c6e-3 0.05 0.101 0.968 0.218 2.488-0.184 2e-3 -0.371-2e-3 -0.552-0.017h-2e-3c-0.089-8e-3 -0.169-0.022-0.251-0.036-0.113-0.045-0.201-0.136-0.091-0.333 0.221-0.392 0.49-0.563 0.49-0.563s-0.709 0.074-1.124 0.76c-0.417 0.684 0.44 1.227 1.419 1.146m48.949 19.948c0.353 3.722 0.825 9.338 1.415 11.476-0.212 0.151-0.512 0.384-0.84 0.684-0.516-3.485-0.608-9.215-0.575-12.16m-1.412-20.306c0.403 0.109 0.797 0.181 1.184 0.227-0.022 0.305-0.046 0.636-0.068 0.975-0.374-0.438-0.752-0.844-1.116-1.202m-3.298-2.511h4.711c-0.042 0.434-0.098 1.055-0.158 1.816-1.41-0.169-3-0.884-4.553-1.816m-7.183-5.683c0.015-0.012 0.031-0.023 0.049-0.033 0.694-0.391 2.98 0.294 4.804 1.042-0.862 0.291-2.073 0.396-3.338 0.398-0.708-0.631-1.239-1.136-1.515-1.407m-11.958 0.223c4.573 0 8.58 1.672 10.832 4.169 0.182 0.202 0.353 0.409 0.513 0.619 0.017 0.023 0.031 0.047 0.048 0.069 0.144 0.196 0.282 0.395 0.405 0.601 0.613 1.027 0.957 2.15 0.957 3.327 0 4.843-5.722 8.785-12.755 8.785-7.032 0-12.754-3.942-12.754-8.785 0-1.177 0.344-2.3 0.957-3.327 0.123-0.206 0.26-0.405 0.407-0.603 0.015-0.022 0.03-0.044 0.047-0.067 0.16-0.21 0.331-0.417 0.511-0.619 2.252-2.497 6.26-4.169 10.832-4.169m-13.471 1.184c-1.265-2e-3 -2.476-0.107-3.338-0.398 1.824-0.748 4.108-1.433 4.803-1.042 0.018 0.01 0.035 0.021 0.049 0.033-0.276 0.271-0.806 0.776-1.514 1.407m-10.152 7.014c0.389-0.046 0.781-0.118 1.186-0.227-0.364 0.358-0.743 0.764-1.117 1.202-0.022-0.339-0.045-0.67-0.069-0.975m-0.227-2.738h4.711c-1.553 0.932-3.144 1.647-4.553 1.816-0.062-0.761-0.116-1.382-0.158-1.816m1e-3 22.817c0.033 2.945-0.061 8.675-0.576 12.16-0.328-0.3-0.628-0.533-0.839-0.684 0.589-2.138 1.061-7.754 1.415-11.476" fill="#231f20"/>
</g>
</g>
<g transform="matrix(.99382 0 0 1.0046 .066535 -.18142)">
<g transform="matrix(.35496 0 0 -.35279 1.5337 38.217)" image-rendering="optimizeQuality">
<path d="m0 0s2.231-11.25 1.5-21.5c0 0-3.125-3.125 0.25-8.187l-0.28-5.472h48.795l-0.281 5.472c3.375 5.062 0.25 8.187 0.25 8.187-0.731 10.25 1.5 21.5 1.5 21.5l-1.437 1.062c0.312 0.563 1.098 4.029 1.098 4.029l-0.952 11.545c-2.853-1.177-4.693 3.139-4.693 3.139h-39.766s-1.839-4.316-4.693-3.139l-0.951-11.545s0.785-3.466 1.097-4.029z" fill="#fff"/>
</g>
<g transform="matrix(.35496 0 0 -.35279 10.715 46.351)" image-rendering="optimizeQuality">
<path d="m0 0c6.731 0 12.208-3.695 12.208-8.238s-5.477-8.24-12.208-8.24-12.208 3.697-12.208 8.24 5.477 8.238 12.208 8.238" fill="#fff"/>
</g>
<g transform="matrix(.35496 0 0 -.35279 10.715 51.723)" image-rendering="optimizeQuality">
<path d="m0 0c-5.94 0-10.958 3.2-10.958 6.989 0 3.788 5.018 6.989 10.958 6.989s10.958-3.201 10.958-6.989c0-3.789-5.018-6.989-10.958-6.989m0-2.5c7.434 0 13.458 4.249 13.458 9.489s-6.024 9.489-13.458 9.489c-7.433 0-13.458-4.249-13.458-9.489s6.025-9.489 13.458-9.489" fill="#deddde"/>
</g>
<g transform="matrix(.35496 0 0 -.35279 14.441 51.662)" image-rendering="optimizeQuality">
<path d="m0 0c0.83 0.661 1.545 1.4 2.113 2.201h2.242l1.634 1.29h-1.521c0.344 1.019 0.524 1.93 0.579 2.736 0.541-0.737 1.693-1.845 3.425-1.182-0.394-0.111-2.002-0.346-3.45 2.687l-3e-3 -0.014c-0.289 2.403-1.658 3.496-1.658 3.496 1.419-2.791 1.092-5.267 0.63-6.763-9e-3 -0.011-0.296-0.41-0.876-0.42 0.35 0.887 0.549 1.82 0.549 2.785 0 5.621-6.353 10.192-14.161 10.192s-14.161-4.571-14.161-10.192c0-0.965 0.199-1.898 0.549-2.785-0.58 0.01-0.868 0.409-0.876 0.42-0.462 1.496-0.789 3.972 0.63 6.763 0 0-1.37-1.093-1.658-3.496l-4e-3 0.014c-1.446-3.033-3.055-2.798-3.448-2.687 1.731-0.663 2.884 0.445 3.424 1.182 0.057-0.806 0.234-1.717 0.579-2.736h-1.521l1.633-1.29h2.243c0.568-0.799 1.277-1.534 2.103-2.194-0.049-0.028-4.154-2.406-7.303-0.366 0 0 0.928-1.893 3.948-1.778l-0.017-4e-3c0.044 4e-3 0.079 2e-3 0.122 6e-3 0.024 0 0.047 2e-3 0.07 4e-3 3.467 0.338 5.085-1.134 5.085-1.134-0.506 1.19-1.495 1.613-2.296 1.754 0.348 0.124 0.709 0.266 1.09 0.433l4e-3 6e-3c0.805-0.199 1.891-0.633 2.532-1.601l5.187-0.592-0.041 0.017c0.695-0.075 1.401-0.128 2.126-0.128s1.431 0.053 2.126 0.128l-0.041-0.017 5.186 0.592c0.638 0.959 1.708 1.393 2.513 1.595 0.381-0.167 0.742-0.309 1.09-0.433-0.801-0.141-1.789-0.564-2.297-1.754 0 0 1.619 1.472 5.087 1.134 0.022-2e-3 0.046-4e-3 0.069-4e-3 0.043-4e-3 0.078-2e-3 0.121-6e-3l-0.015 4e-3c3.017-0.115 3.947 1.778 3.947 1.778-3.091-2.004-7.097 0.247-7.289 0.359m-21.329 2.201c-0.181 0.201-0.353 0.408-0.513 0.619-0.015 0.022-0.031 0.046-0.046 0.069-0.146 0.195-0.284 0.394-0.407 0.6-0.613 1.029-0.957 2.15-0.957 3.327 0 4.843 5.723 8.785 12.755 8.785s12.755-3.942 12.755-8.785c0-1.177-0.344-2.3-0.957-3.327-0.123-0.206-0.261-0.405-0.406-0.6-0.016-0.023-0.03-0.047-0.047-0.069-0.161-0.211-0.332-0.418-0.513-0.619-2.252-2.497-6.259-4.17-10.832-4.17s-8.58 1.673-10.832 4.17m33.261 41.379c-0.364-1.538 0.166-2.859 0.886-3.867-1.084-6.09-0.029-27.821 0.108-30.346 0.502 0.638 0.959 1.67 1.205 2.283-0.051 1.317-0.086 2.739-0.104 4.213 0.59-0.968 0.85-2.002 0.753-3.091-0.109-1.256-0.661-2.47-1.377-3.555-0.036-0.053-0.067-0.101-0.1-0.15-0.098-0.141-0.198-0.281-0.299-0.421-0.022-0.029-0.035-0.045-0.035-0.045v-2e-3c-1.577-2.116-3.623-3.611-3.776-3.723-0.778-0.409-1.546-0.886-2.293-1.385h-0.011l-0.166-0.119c-0.52-0.353-1.024-0.719-1.508-1.087l-0.117-0.084s-1.289-1.152-0.86-1.916c0.43-0.762 3.011-0.586 4.282 1.056 0 0-1.27-1.153-2.659-0.508-0.614 0.286-0.139 0.84 0.58 1.368h8.343l-0.077 0.715c-4e-3 0.049-0.1 0.967-0.217 2.488 0.185 2e-3 0.371-2e-3 0.553-0.017h2e-3c0.088-8e-3 0.168-0.023 0.25-0.037 0.114-0.044 0.201-0.136 0.091-0.332-0.221-0.393-0.49-0.563-0.49-0.563s0.709 0.073 1.125 0.759c0.416 0.683-0.441 1.226-1.419 1.147l2e-3 -2e-3c-0.057 0-0.122-5e-3 -0.183-9e-3 -0.052 0.733-0.105 1.561-0.155 2.47 0.749 1.168 1.327 2.48 1.449 3.868 0.153 1.724-0.425 3.321-1.697 4.753 0 0.254 2e-3 0.512 3e-3 0.77 0 0 0.909 16.928 1.741 19.633l0.107 0.346-0.308 0.19c-0.016 0.01-0.738 0.468-1.448 1.226 0 0-0.746 0.667-1.023 1.472-0.306 0.658-0.459 1.403-0.272 2.211 0.032 0.071 0.379 0.891 0.733 1.948l0.169-1.875c-0.177-0.519-0.326-1.072-0.468-1.638 0.199-0.402 0.568-1.04 1.029-1.331 0.196 0.949 0.419 1.862 0.703 2.679l0.046 0.13-0.812 9.054c0.011-1.352-0.911-4.293-0.911-4.293-0.306-1.85-1.343-4.29-1.375-4.383m1.126-36.376c0.022-0.339 0.046-0.669 0.067-0.975-0.387-0.045-0.78-0.118-1.184-0.227 0.364 0.359 0.743 0.765 1.117 1.202m-4.415-3.713c1.551 0.933 3.144 1.648 4.552 1.816 0.062-0.76 0.118-1.382 0.159-1.816zm5.285 34.978c0.328-0.301 0.629-0.534 0.84-0.685-0.59-2.138-1.061-7.754-1.414-11.475-0.034 2.944 0.06 8.673 0.574 12.16m-48.078 11.162c-0.643 1.549-0.947 4.838-0.947 4.838l0.025 0.278 0.412 0.129c0.967 0.3 3.723 1.506 3.723 3.062v0.646h40.879v-0.646c0-1.556 2.757-2.762 3.724-3.062l0.412-0.129 0.025-0.278s-0.304-3.289-0.946-4.838l-0.288 4.154c-1.066 0.39-3.66 1.532-4.14 3.508h-38.452c-0.48-1.976-3.074-3.118-4.14-3.508zm-2.866-44.417c0.416-0.686 1.126-0.759 1.126-0.759s-0.269 0.17-0.49 0.563c-0.11 0.196-0.022 0.288 0.091 0.332 0.082 0.014 0.163 0.029 0.25 0.037h2e-3c0.182 0.015 0.368 0.019 0.553 0.017-0.118-1.521-0.213-2.439-0.217-2.488l-0.077-0.715h8.318c0.72-0.528 1.195-1.082 0.581-1.368-1.39-0.645-2.659 0.508-2.659 0.508 1.271-1.642 3.851-1.818 4.282-1.056 0.43 0.764-0.859 1.916-0.859 1.916h0.023l-0.117 0.084c-0.484 0.368-0.988 0.734-1.508 1.087l-0.166 0.119h-0.012c-0.746 0.499-1.514 0.976-2.292 1.385-0.153 0.112-2.199 1.607-3.776 3.723v2e-3s-0.014 0.016-0.034 0.045c-0.103 0.14-0.202 0.28-0.3 0.421-0.033 0.049-0.064 0.097-0.1 0.15-0.716 1.085-1.268 2.299-1.377 3.555-0.097 1.089 0.163 2.123 0.753 3.091-0.018-1.474-0.053-2.896-0.104-4.213 0.246-0.613 0.703-1.645 1.205-2.283 0.137 2.525 1.191 24.256 0.108 30.346 0.72 1.008 1.249 2.329 0.888 3.867-0.033 0.093-1.071 2.533-1.377 4.383 0 0-0.923 2.941-0.911 4.293l-0.811-9.054 0.044-0.13c0.285-0.817 0.508-1.73 0.706-2.679 0.459 0.291 0.828 0.929 1.027 1.331-0.141 0.566-0.291 1.119-0.468 1.638l0.169 1.875c0.354-1.057 0.703-1.877 0.733-1.948 0.187-0.808 0.034-1.553-0.272-2.211-0.277-0.805-1.023-1.472-1.023-1.472-0.709-0.758-1.432-1.216-1.448-1.226l-0.308-0.19 0.107-0.346c0.833-2.705 1.74-19.633 1.74-19.633 2e-3 -0.258 4e-3 -0.516 4e-3 -0.77-1.272-1.432-1.85-3.029-1.697-4.753 0.122-1.388 0.701-2.7 1.449-3.868-0.051-0.909-0.103-1.737-0.155-2.47-0.062 4e-3 -0.126 9e-3 -0.183 9e-3l2e-3 2e-3c-0.978 0.079-1.836-0.464-1.42-1.147m2.965 1.99c0.373-0.437 0.753-0.843 1.116-1.202-0.404 0.109-0.797 0.182-1.184 0.227 0.021 0.306 0.045 0.636 0.068 0.975m-0.138-1.897c1.408-0.168 3.001-0.883 4.552-1.816h-4.711c0.041 0.434 0.097 1.056 0.159 1.816m-1.573 32.477c0.211 0.151 0.512 0.384 0.84 0.685 0.514-3.487 0.608-9.216 0.575-12.16-0.353 3.721-0.824 9.337-1.415 11.475" fill="#231f20"/>
</g>
</g>
<g transform="matrix(.99382 0 0 .99682 .066366 .37007)">
<g transform="matrix(.35496 0 0 -.35279 1.5336 63.387)" image-rendering="optimizeQuality">
<path d="m0 0s2.231-11.25 1.5-21.5c0 0-3.125-3.125 0.25-8.187l-0.28-5.472h48.795l-0.281 5.472c3.375 5.062 0.25 8.187 0.25 8.187-0.731 10.25 1.5 21.5 1.5 21.5l-1.437 1.062c0.312 0.563 1.098 4.029 1.098 4.029l-0.952 11.545c-2.853-1.177-4.693 3.139-4.693 3.139h-39.766s-1.839-4.316-4.693-3.139l-0.951-11.545s0.785-3.466 1.097-4.029z" fill="#fff"/>
</g>
<g transform="matrix(.35496 0 0 -.35279 10.715 71.521)" image-rendering="optimizeQuality">
<path d="m0 0c6.731 0 12.208-3.695 12.208-8.238s-5.477-8.24-12.208-8.24-12.208 3.697-12.208 8.24 5.477 8.238 12.208 8.238" fill="#fff"/>
</g>
<g transform="matrix(.35496 0 0 -.35279 10.715 76.893)" image-rendering="optimizeQuality">
<path d="m0 0c-5.94 0-10.958 3.2-10.958 6.989 0 3.788 5.018 6.989 10.958 6.989s10.958-3.201 10.958-6.989c0-3.789-5.018-6.989-10.958-6.989m0-2.5c7.434 0 13.458 4.249 13.458 9.489s-6.024 9.489-13.458 9.489c-7.433 0-13.458-4.249-13.458-9.489s6.025-9.489 13.458-9.489" fill="#deddde"/>
</g>
<g transform="matrix(.35496 0 0 -.35279 2.3194 59.323)" image-rendering="optimizeQuality">
<path d="m0 0c-0.641 1.55-0.945 4.838-0.945 4.838l0.023 0.279 0.412 0.128c0.968 0.3 3.725 1.506 3.725 3.063v0.644h40.878v-0.644c0-1.557 2.757-2.763 3.723-3.063l0.413-0.128 0.025-0.279s-0.305-3.288-0.946-4.838l-0.288 4.154c-1.067 0.392-3.661 1.533-4.141 3.508h-38.451c-0.481-1.975-3.074-3.116-4.141-3.508zm-1.445-43.269v-2e-3c0.055 0 0.12-5e-3 0.179-9e-3 0.053 0.732 0.107 1.561 0.157 2.469-0.748 1.168-1.327 2.482-1.45 3.869-0.152 1.724 0.426 3.321 1.7 4.754 0 0.253-4e-3 0.511-6e-3 0.767 0 0-0.907 16.93-1.739 19.633l-0.108 0.348 0.31 0.191c0.013 9e-3 0.736 0.467 1.445 1.225 0 0 0.746 0.667 1.023 1.471 0.306 0.658 0.459 1.406 0.273 2.211-0.03 0.071-0.38 0.892-0.734 1.948l-0.167-1.875c0.175-0.518 0.326-1.072 0.467-1.638-0.198-0.402-0.569-1.038-1.028-1.33-0.196 0.949-0.42 1.862-0.703 2.678l-0.047 0.132 0.811 9.053c-0.01-1.354 0.912-4.293 0.912-4.293 0.306-1.851 1.343-4.289 1.377-4.383 0.363-1.537-0.167-2.859-0.888-3.867 1.083-6.091 0.029-27.821-0.109-30.348-0.501 0.64-0.958 1.67-1.205 2.286 0.051 1.316 0.086 2.738 0.104 4.212-0.59-0.968-0.848-2.003-0.752-3.091 0.109-1.257 0.66-2.471 1.377-3.556 0.035-0.054 0.068-0.101 0.1-0.148 0.097-0.143 0.197-0.283 0.298-0.421 0.024-0.03 0.035-0.046 0.035-0.046v-2e-3c1.578-2.115 3.624-3.611 3.778-3.722 0.777-0.409 1.546-0.886 2.292-1.387h0.011l0.166-0.117c0.52-0.355 1.023-0.721 1.507-1.088l0.12-0.084h-5.8c-0.081-0.522-0.077-2.059 2.581-2.619 0 0 0.381-1.329 4.324-2.255 3.943-0.925 0.811 3.927-0.389 4.874l0.012 0.01-1.621 1.279h1.521c-0.344 1.02-0.523 1.931-0.579 2.737-0.54-0.737-1.694-1.845-3.424-1.182 0.393-0.111 2.001-0.346 3.448 2.686l5e-3 -0.014c0.289 2.405 1.656 3.497 1.656 3.497-1.419-2.79-1.091-5.267-0.629-6.763 8e-3 -0.011 0.295-0.411 0.877-0.42-0.352 0.887-0.551 1.819-0.551 2.785 0 5.62 6.354 10.192 14.162 10.192 7.809 0 14.162-4.572 14.162-10.192 0-0.966-0.201-1.898-0.551-2.785 0.581 9e-3 0.869 0.409 0.878 0.42 0.461 1.496 0.789 3.973-0.63 6.763 0 0 1.368-1.092 1.656-3.497l5e-3 0.014c1.445-3.032 3.055-2.797 3.449-2.686-1.73-0.663-2.885 0.445-3.426 1.182-0.055-0.806-0.234-1.717-0.578-2.737h1.52l-1.633-1.289c-1.198-0.947-4.33-5.799-0.388-4.874 3.943 0.926 4.324 2.255 4.324 2.255 2.66 0.56 2.663 2.097 2.582 2.619h-5.776l0.117 0.084c0.486 0.367 0.989 0.733 1.51 1.088l0.165 0.117h0.012c0.745 0.501 1.514 0.978 2.292 1.387 0.153 0.111 2.199 1.607 3.775 3.722v2e-3s0.014 0.016 0.035 0.046c0.102 0.138 0.203 0.278 0.299 0.421 0.033 0.047 0.066 0.094 0.102 0.148 0.715 1.085 1.266 2.299 1.377 3.556 0.094 1.088-0.162 2.123-0.754 3.091 0.017-1.474 0.053-2.896 0.105-4.212-0.248-0.616-0.705-1.646-1.206-2.286-0.137 2.527-1.191 24.257-0.108 30.348-0.72 1.008-1.25 2.33-0.888 3.867 0.033 0.094 1.07 2.532 1.376 4.383 0 0 0.922 2.939 0.912 4.293l0.812-9.053-0.046-0.132c-0.283-0.816-0.508-1.729-0.704-2.678-0.46 0.292-0.829 0.928-1.028 1.33 0.141 0.566 0.292 1.12 0.467 1.638l-0.169 1.875c-0.353-1.056-0.701-1.877-0.732-1.948-0.188-0.805-0.033-1.553 0.273-2.211 0.277-0.804 1.022-1.471 1.022-1.471 0.711-0.758 1.431-1.216 1.447-1.225l0.309-0.191-0.108-0.348c-0.832-2.703-1.74-19.633-1.74-19.633 0-0.256-4e-3 -0.514-4e-3 -0.767 1.273-1.433 1.85-3.03 1.698-4.754-0.123-1.387-0.701-2.701-1.45-3.869 0.051-0.908 0.105-1.737 0.156-2.469 0.061 4e-3 0.126 9e-3 0.182 9e-3l-2e-3 2e-3c0.979 0.079 1.837-0.463 1.42-1.148-0.415-0.684-1.125-0.759-1.125-0.759s0.267 0.172 0.489 0.564c0.111 0.196 0.025 0.288-0.089 0.331-0.084 0.014-0.164 0.028-0.252 0.037h-2e-3c-0.181 0.016-0.368 0.02-0.55 0.018 0.117-1.52 0.211-2.44 0.216-2.49l0.077-0.713h-2.567c-1.196-4.562-9.523-6.065-9.523-6.065-1.526 1.347-3.222 0.944-3.222 0.944 1.356 0.721 1.696 2.289 1.696 2.289l-1.882-0.447c-0.805-0.201-1.876-0.636-2.513-1.595l-5.188-0.593 0.043 0.017c-0.696-0.075-1.403-0.127-2.126-0.127-0.724 0-1.43 0.052-2.126 0.127l0.042-0.017-5.187 0.593c-0.645 0.968-1.731 1.404-2.537 1.602v-7e-3l-1.881 0.447s0.338-1.568 1.695-2.289c0 0-1.697 0.403-3.222-0.944 0 0-8.327 1.503-9.524 6.065h-2.541l0.075 0.713c6e-3 0.05 0.101 0.97 0.218 2.49-0.184 2e-3 -0.371-2e-3 -0.552-0.018h-2e-3c-0.088-9e-3 -0.169-0.023-0.251-0.037-0.114-0.043-0.201-0.135-0.09-0.331 0.221-0.392 0.49-0.564 0.49-0.564s-0.709 0.075-1.126 0.759c-0.415 0.685 0.441 1.227 1.42 1.148m48.949 19.948c0.353 3.721 0.824 9.337 1.415 11.475-0.211 0.151-0.511 0.383-0.84 0.685-0.515-3.486-0.608-9.217-0.575-12.16m-1.412-20.307c0.404 0.109 0.797 0.18 1.184 0.228-0.022 0.305-0.046 0.634-0.067 0.974-0.374-0.438-0.754-0.844-1.117-1.202m-3.299-2.512h4.712c-0.042 0.436-0.098 1.057-0.157 1.818-1.41-0.169-3.002-0.884-4.555-1.818m-6.529-1.289c-0.508-0.717-1.125-1.384-1.844-1.991 1.338-0.042 2.428 1.194 2.987 1.991zm-25.364 4.615c0-1.178 0.342-2.299 0.956-3.328 0.123-0.205 0.26-0.404 0.408-0.601 0.015-0.022 0.029-0.045 0.045-0.068 0.16-0.21 0.332-0.417 0.513-0.618 2.252-2.497 6.259-4.17 10.832-4.17s8.58 1.673 10.831 4.17c0.183 0.201 0.354 0.408 0.513 0.618 0.018 0.023 0.031 0.046 0.047 0.068 0.146 0.197 0.283 0.396 0.406 0.601 0.613 1.028 0.957 2.15 0.957 3.328 0 4.843-5.721 8.784-12.754 8.784s-12.754-3.941-12.754-8.784m1.991-6.607c-0.721 0.607-1.338 1.275-1.848 1.992h-1.166c0.562-0.801 1.663-2.05 3.014-1.992m-12.86 6.021c0.387-0.048 0.781-0.119 1.186-0.228-0.365 0.358-0.744 0.764-1.118 1.202-0.021-0.34-0.044-0.669-0.068-0.974m-0.228-2.74h4.711c-1.552 0.934-3.145 1.649-4.553 1.818-0.061-0.761-0.117-1.382-0.158-1.818m2e-3 22.819c0.033 2.943-0.062 8.674-0.576 12.16-0.329-0.302-0.629-0.534-0.84-0.685 0.59-2.138 1.06-7.754 1.416-11.475" fill="#231f20"/>
</g>
</g>
<g transform="matrix(.99382 0 0 1.0047 .06648 -.39511)">
<g transform="matrix(.35496 0 0 -.35279 1.5336 88.729)" image-rendering="optimizeQuality">
<path d="m0 0s2.231-11.25 1.5-21.5c0 0-3.125-3.125 0.25-8.187l-0.28-5.472h48.795l-0.281 5.472c3.375 5.062 0.25 8.187 0.25 8.187-0.731 10.25 1.5 21.5 1.5 21.5l-1.437 1.062c0.312 0.563 1.098 4.029 1.098 4.029l-0.952 11.545c-2.853-1.177-4.693 3.139-4.693 3.139h-39.766s-1.839-4.316-4.693-3.139l-0.951-11.545s0.785-3.466 1.097-4.029z" fill="#fff"/>
</g>
<g transform="matrix(.35496 0 0 -.35279 10.715 96.864)" image-rendering="optimizeQuality">
<path d="m0 0c6.731 0 12.208-3.695 12.208-8.238s-5.477-8.24-12.208-8.24-12.208 3.697-12.208 8.24 5.477 8.238 12.208 8.238" fill="#fff"/>
</g>
<g transform="matrix(.35496 0 0 -.35279 10.715 102.24)" image-rendering="optimizeQuality">
<path d="m0 0c-5.939 0-10.958 3.201-10.958 6.989s5.019 6.989 10.958 6.989 10.958-3.201 10.958-6.989-5.019-6.989-10.958-6.989m0-2.5c7.434 0 13.458 4.249 13.458 9.489s-6.024 9.489-13.458 9.489c-7.433 0-13.458-4.249-13.458-9.489s6.025-9.489 13.458-9.489" fill="#deddde"/>
</g>
<g transform="matrix(.35496 0 0 -.35279 15.192 101.4)" image-rendering="optimizeQuality">
<path d="m0 0h1.489c-1.147-0.953-1.398-2.088-1.398-2.088 0.41-0.035 1.113-0.394 1.113-0.394-0.586 1.368 1.038 2.482 1.038 2.482l1.633 1.291h-1.521c0.345 1.019 0.523 1.93 0.58 2.734 0.54-0.736 1.693-1.844 3.423-1.18-0.392-0.113-2.002-0.347-3.448 2.686l-5e-3 -0.015c-0.289 2.405-1.656 3.497-1.656 3.497 1.419-2.79 1.092-5.267 0.63-6.763-9e-3 -0.012-0.297-0.41-0.878-0.42 0.352 0.887 0.551 1.818 0.551 2.785 0 5.619-6.354 10.192-14.161 10.192-7.81 0-14.162-4.573-14.162-10.192 0-0.967 0.2-1.898 0.549-2.785-0.58 0.01-0.868 0.408-0.876 0.42-0.462 1.496-0.79 3.973 0.63 6.763 0 0-1.369-1.092-1.657-3.497l-5e-3 0.015c-1.446-3.033-3.055-2.799-3.448-2.686 1.729-0.664 2.884 0.444 3.425 1.18 0.056-0.804 0.234-1.715 0.579-2.734h-1.522l1.621-1.281-0.011-0.01s1.624-1.114 1.038-2.482c0 0 0.703 0.359 1.113 0.394 0 0-0.251 1.135-1.398 2.088h1.512c0.555-0.781 1.245-1.502 2.05-2.151-3.82-0.383-5.859-2.443-5.859-2.443 3.402 0.938 4.927 0 4.927 0-0.156 0.781-1.017 0.938-1.017 0.938 0.078 1.094 2.702 0.377 2.702 0.377l4e-3 6e-3c0.805-0.199 1.891-0.633 2.532-1.6l5.188-0.594-0.041 0.018c0.695-0.076 1.401-0.128 2.126-0.128 0.723 0 1.43 0.052 2.126 0.128l-0.043-0.018 5.188 0.594c0.636 0.958 1.708 1.393 2.513 1.594 0 0 2.624 0.717 2.702-0.377 0 0-0.861-0.157-1.018-0.938 0 0 1.526 0.938 4.927 0 0 0-2.029 2.053-5.837 2.441 0.805 0.649 1.496 1.37 2.052 2.153m-23.442 0c-0.181 0.202-0.353 0.408-0.514 0.618-0.015 0.023-0.03 0.046-0.046 0.069-0.146 0.196-0.284 0.395-0.406 0.602-0.613 1.027-0.957 2.149-0.957 3.326 0 4.844 5.722 8.785 12.755 8.785 7.032 0 12.754-3.941 12.754-8.785 0-1.177-0.344-2.301-0.956-3.328-0.124-0.205-0.261-0.404-0.407-0.6-0.016-0.023-0.03-0.045-0.048-0.069-0.159-0.21-0.331-0.416-0.512-0.618-2.251-2.497-6.259-4.169-10.831-4.169-4.574 0-8.58 1.672-10.832 4.169m33.258 41.38c-0.362-1.538 0.168-2.859 0.888-3.868-1.083-6.091-0.028-27.822 0.109-30.346 0.501 0.638 0.958 1.668 1.205 2.284-0.051 1.316-0.087 2.738-0.105 4.212 0.591-0.969 0.849-2.002 0.754-3.09-0.11-1.258-0.661-2.472-1.377-3.556-0.036-0.055-0.068-0.101-0.101-0.149-0.097-0.142-0.198-0.283-0.299-0.421-0.022-0.029-0.035-0.047-0.035-0.047v-1e-3c-1.577-2.115-3.623-3.611-3.777-3.722-0.776-0.408-1.545-0.886-2.291-1.385h-0.012l-0.166-0.119c-0.519-0.356-1.023-0.72-1.508-1.087l-0.118-0.085h6e-3s-0.659-0.479-0.747-1.285c0 0 0.556 0.911 2.045 1.285h1.99c-2.297-1.381-3.36-3.205-3.36-3.205 0.674-0.294 1.182-1.037 1.182-1.037-0.449 1.468 0.795 2.636 2.086 3.42 0.113 0.051 2.015 0.907 3.623 0.822h2.863l-0.077 0.715c-4e-3 0.049-0.1 0.968-0.217 2.488 0.184 2e-3 0.37-2e-3 0.553-0.017h1e-3c0.088-8e-3 0.169-0.024 0.251-0.038 0.113-0.044 0.201-0.134 0.089-0.332-0.22-0.391-0.489-0.563-0.489-0.563s0.71 0.075 1.125 0.759c0.417 0.685-0.44 1.228-1.419 1.148v-2e-3c-0.054 0-0.12-6e-3 -0.18-9e-3 -0.052 0.733-0.106 1.561-0.157 2.47 0.749 1.167 1.328 2.481 1.451 3.867 0.152 1.726-0.425 3.323-1.699 4.755 0 0.253 3e-3 0.511 5e-3 0.767 0 0 0.907 16.93 1.738 19.635l0.11 0.345-0.311 0.192c-0.014 8e-3 -0.736 0.467-1.445 1.224 0 0-0.746 0.668-1.023 1.473-0.306 0.658-0.46 1.404-0.273 2.21 0.031 0.071 0.379 0.892 0.733 1.948l0.168-1.875c-0.175-0.517-0.325-1.07-0.466-1.637 0.197-0.403 0.567-1.04 1.027-1.331 0.197 0.949 0.421 1.863 0.704 2.678l0.046 0.132-0.812 9.053c0.011-1.354-0.911-4.293-0.911-4.293-0.305-1.85-1.342-4.289-1.377-4.382m1.127-36.377c0.023-0.339 0.046-0.668 0.069-0.975-0.388-0.046-0.781-0.117-1.185-0.227 0.364 0.358 0.743 0.764 1.116 1.202m-4.414-3.712c1.552 0.932 3.144 1.647 4.553 1.815 0.061-0.76 0.116-1.381 0.158-1.815zm5.285 34.977c0.329-0.302 0.629-0.535 0.84-0.685-0.59-2.138-1.061-7.753-1.415-11.476-0.033 2.944 0.06 8.674 0.575 12.161m-48.079 11.161c-0.641 1.55-0.945 4.838-0.945 4.838l0.022 0.28 0.414 0.127c0.967 0.301 3.723 1.507 3.723 3.062v0.646h40.879v-0.646c0-1.555 2.757-2.761 3.725-3.062l0.412-0.127 0.024-0.28s-0.304-3.288-0.946-4.838l-0.288 4.154c-1.067 0.392-3.66 1.532-4.14 3.508h-38.452c-0.479-1.976-3.073-3.116-4.14-3.508zm-2.865-44.417c0.417-0.684 1.126-0.759 1.126-0.759s-0.268 0.172-0.489 0.563c-0.111 0.198-0.025 0.288 0.09 0.332 0.083 0.014 0.163 0.03 0.251 0.038h2e-3c0.181 0.015 0.368 0.019 0.55 0.017-0.117-1.52-0.211-2.439-0.216-2.488l-0.077-0.715h4.83c1.45-0.602 4.372-2.107 3.719-4.242 0 0 0.508 0.743 1.182 1.037 0 0-1.064 1.824-3.361 3.205h1.99c1.49-0.374 2.046-1.285 2.046-1.285-0.088 0.806-0.749 1.285-0.749 1.285h0.031l-0.117 0.085c-0.485 0.367-0.989 0.731-1.51 1.087l-0.164 0.119h-0.012c-0.746 0.499-1.515 0.977-2.293 1.385-0.154 0.111-2.199 1.607-3.775 3.722v1e-3s-0.014 0.018-0.035 0.047c-0.102 0.138-0.202 0.279-0.299 0.421-0.033 0.048-0.067 0.094-0.101 0.149-0.716 1.084-1.267 2.298-1.378 3.556-0.095 1.088 0.164 2.121 0.754 3.09-0.017-1.474-0.054-2.896-0.104-4.212 0.247-0.616 0.703-1.646 1.206-2.284 0.137 2.524 1.191 24.255 0.107 30.346 0.721 1.009 1.25 2.33 0.887 3.868-0.033 0.093-1.07 2.532-1.376 4.382 0 0-0.922 2.939-0.911 4.293l-0.812-9.053 0.046-0.132c0.284-0.815 0.508-1.729 0.703-2.678 0.461 0.291 0.83 0.928 1.03 1.331-0.142 0.567-0.292 1.12-0.469 1.637l0.169 1.875c0.353-1.056 0.702-1.877 0.733-1.948 0.188-0.806 0.033-1.552-0.273-2.21-0.278-0.805-1.023-1.473-1.023-1.473-0.709-0.757-1.431-1.216-1.446-1.224l-0.309-0.192 0.108-0.345c0.832-2.705 1.739-19.635 1.739-19.635 2e-3 -0.256 5e-3 -0.514 5e-3 -0.767-1.272-1.432-1.851-3.029-1.699-4.755 0.123-1.386 0.701-2.7 1.451-3.867-0.051-0.909-0.105-1.737-0.156-2.47-0.061 3e-3 -0.125 9e-3 -0.182 9e-3l1e-3 2e-3c-0.978 0.08-1.835-0.463-1.42-1.148m2.964 1.991c0.374-0.438 0.754-0.844 1.117-1.202-0.404 0.11-0.797 0.181-1.185 0.227 0.023 0.307 0.046 0.636 0.068 0.975m-0.138-1.897c1.409-0.168 3.001-0.883 4.554-1.815h-4.711c0.04 0.434 0.096 1.055 0.157 1.815m-1.571 32.477c0.21 0.15 0.511 0.383 0.84 0.685 0.514-3.487 0.607-9.217 0.574-12.161-0.353 3.723-0.824 9.338-1.414 11.476" fill="#231f20"/>
</g>
</g>
<g transform="matrix(.99382 0 0 1.0046 .066363 -.6322)">
<g transform="matrix(.35496 0 0 -.35279 1.5336 113.99)" image-rendering="optimizeQuality">
<path d="m0 0s2.231-11.25 1.5-21.5c0 0-3.125-3.125 0.25-8.187l-0.28-5.472h48.795l-0.281 5.472c3.375 5.062 0.25 8.187 0.25 8.187-0.731 10.25 1.5 21.5 1.5 21.5l-1.437 1.062c0.312 0.563 1.098 4.029 1.098 4.029l-0.952 11.545c-2.853-1.177-4.693 3.139-4.693 3.139h-39.766s-1.839-4.316-4.693-3.139l-0.951-11.545s0.785-3.466 1.097-4.029z" fill="#fff"/>
</g>
<g transform="matrix(.35496 0 0 -.35279 10.715 122.12)" image-rendering="optimizeQuality">
<path d="m0 0c6.731 0 12.208-3.695 12.208-8.238s-5.477-8.24-12.208-8.24-12.208 3.697-12.208 8.24 5.477 8.238 12.208 8.238" fill="#fff"/>
</g>
<g transform="matrix(.35496 0 0 -.35279 10.715 127.49)" image-rendering="optimizeQuality">
<path d="m0 0c-5.939 0-10.958 3.2-10.958 6.989 0 3.788 5.019 6.989 10.958 6.989s10.958-3.201 10.958-6.989c0-3.789-5.019-6.989-10.958-6.989m0-2.5c7.434 0 13.458 4.249 13.458 9.489s-6.024 9.489-13.458 9.489c-7.433 0-13.458-4.249-13.458-9.489s6.025-9.489 13.458-9.489" fill="#deddde"/>
</g>
<g transform="matrix(.35496 0 0 -.35279 18.677 112.06)" image-rendering="optimizeQuality">
<path d="m0 0c-0.363-1.538 0.166-2.859 0.886-3.867-1.083-6.09-0.029-27.821 0.108-30.346 0.503 0.638 0.959 1.67 1.206 2.283-0.051 1.317-0.087 2.739-0.104 4.213 0.591-0.969 0.848-2.002 0.753-3.091-0.11-1.256-0.661-2.47-1.377-3.555-0.035-0.053-0.068-0.101-0.101-0.15-0.097-0.141-0.197-0.281-0.299-0.421-0.021-0.029-0.034-0.045-0.034-0.045v-2e-3c-1.578-2.116-3.623-3.611-3.777-3.723-0.777-0.409-1.546-0.886-2.291-1.385h-0.012l-0.166-0.119c-0.521-0.354-1.023-0.719-1.509-1.087l-0.117-0.084h6e-3s-1.162-0.829-0.394-1.711c0 0-0.221 0.941 1.703 1.711h8.372l-0.077 0.715c-5e-3 0.049-0.099 0.967-0.216 2.488 0.182 2e-3 0.37-2e-3 0.551-0.017h1e-3c0.088-8e-3 0.17-0.023 0.252-0.037 0.114-0.044 0.2-0.136 0.089-0.333-0.221-0.392-0.489-0.562-0.489-0.562s0.711 0.073 1.126 0.759c0.416 0.683-0.441 1.226-1.419 1.147v-2e-3c-0.055 0-0.12-6e-3 -0.182-9e-3 -0.051 0.733-0.105 1.561-0.155 2.47 0.749 1.168 1.327 2.48 1.45 3.867 0.152 1.725-0.426 3.322-1.698 4.754 0 0.254 3e-3 0.512 5e-3 0.77 0 0 0.906 16.928 1.738 19.633l0.109 0.346-0.31 0.19c-0.015 0.01-0.736 0.468-1.446 1.226 0 0-0.745 0.667-1.023 1.472-0.306 0.658-0.46 1.403-0.273 2.211 0.032 0.071 0.38 0.891 0.733 1.948l0.169-1.875c-0.176-0.519-0.326-1.072-0.467-1.638 0.198-0.402 0.568-1.04 1.029-1.332 0.195 0.95 0.419 1.863 0.703 2.68l0.045 0.13-0.812 9.054c0.011-1.352-0.91-4.293-0.91-4.293-0.306-1.85-1.344-4.29-1.376-4.383m1.126-36.376c0.022-0.339 0.046-0.669 0.068-0.976-0.387-0.044-0.781-0.117-1.184-0.226 0.364 0.359 0.742 0.765 1.116 1.202m-4.414-3.713c1.551 0.933 3.143 1.648 4.553 1.816 0.06-0.76 0.116-1.382 0.158-1.816zm5.285 34.978c0.328-0.301 0.628-0.535 0.84-0.685-0.59-2.138-1.062-7.754-1.415-11.475-0.033 2.944 0.059 8.673 0.575 12.16" fill="#231f20"/>
</g>
<g transform="matrix(.35496 0 0 -.35279 2.4214 108.46)" image-rendering="optimizeQuality">
<path d="m0 0c1.067 0.39 3.66 1.532 4.141 3.508h38.452c0.479-1.976 3.073-3.118 4.139-3.508l0.289-4.154c0.641 1.549 0.945 4.838 0.945 4.838l-0.024 0.278-0.412 0.129c-0.968 0.3-3.724 1.506-3.724 3.062v0.646h-40.879v-0.646c0-1.556-2.756-2.762-3.724-3.062l-0.413-0.129-0.023-0.278s0.304-3.289 0.945-4.838z" fill="#231f20"/>
</g>
<g transform="matrix(.35496 0 0 -.35279 1.3024 125.59)" image-rendering="optimizeQuality">
<path d="m0 0c0.417-0.686 1.126-0.759 1.126-0.759s-0.27 0.17-0.49 0.563c-0.11 0.196-0.024 0.288 0.09 0.332 0.083 0.014 0.164 0.029 0.252 0.037h1e-3c0.181 0.015 0.368 0.019 0.552 0.017-0.117-1.521-0.212-2.439-0.218-2.488l-0.076-0.715h8.372c1.925-0.77 1.703-1.711 1.703-1.711 0.769 0.882-0.394 1.711-0.394 1.711h7e-3l-0.117 0.084c-0.486 0.368-0.989 0.734-1.51 1.087l-0.165 0.119h-0.011c-0.746 0.499-1.516 0.976-2.293 1.385-0.154 0.112-2.199 1.608-3.776 3.723v2e-3s-0.013 0.016-0.035 0.046c-0.102 0.139-0.202 0.279-0.298 0.421-0.033 0.048-0.065 0.096-0.102 0.149-0.715 1.085-1.267 2.299-1.377 3.556-0.095 1.088 0.163 2.122 0.753 3.09-0.017-1.474-0.054-2.896-0.103-4.212 0.247-0.614 0.703-1.646 1.206-2.284 0.136 2.525 1.191 24.256 0.107 30.346 0.721 1.008 1.25 2.329 0.887 3.867-0.033 0.093-1.07 2.533-1.376 4.383 0 0-0.923 2.941-0.911 4.293l-0.813-9.054 0.047-0.13c0.283-0.817 0.508-1.73 0.703-2.679 0.46 0.291 0.83 0.929 1.03 1.331-0.143 0.566-0.292 1.119-0.469 1.638l0.169 1.875c0.354-1.057 0.702-1.877 0.733-1.948 0.187-0.807 0.033-1.553-0.273-2.211-0.276-0.804-1.024-1.471-1.024-1.471-0.709-0.759-1.43-1.217-1.445-1.227l-0.309-0.189 0.108-0.347c0.832-2.705 1.739-19.633 1.739-19.633 2e-3 -0.258 5e-3 -0.516 5e-3 -0.769-1.274-1.433-1.852-3.03-1.699-4.754 0.123-1.388 0.701-2.7 1.45-3.868-0.05-0.909-0.104-1.737-0.156-2.47-0.06 4e-3 -0.124 0.01-0.181 0.01l1e-3 1e-3c-0.979 0.08-1.835-0.463-1.42-1.147m2.964 1.99c0.373-0.437 0.753-0.843 1.117-1.202-0.404 0.109-0.797 0.182-1.185 0.227 0.023 0.306 0.046 0.636 0.068 0.975m-0.138-1.897c1.409-0.168 3.001-0.883 4.553-1.816h-4.711c0.041 0.434 0.097 1.056 0.158 1.816m-1.572 32.477c0.21 0.151 0.512 0.384 0.84 0.685 0.514-3.486 0.608-9.216 0.575-12.16-0.355 3.721-0.825 9.338-1.415 11.475" fill="#231f20"/>
</g>
<g transform="matrix(.35496 0 0 -.35279 15.889 127.4)" image-rendering="optimizeQuality">
<path d="m0 0c-0.067 0.055-1.026 0.878 0.278 2.125l1.633 1.29h-1.52c0.344 1.019 0.523 1.93 0.579 2.735 0.541-0.736 1.694-1.844 3.425-1.181-0.393-0.112-2.003-0.346-3.45 2.687l-4e-3 -0.014c-0.289 2.403-1.656 3.496-1.656 3.496 1.418-2.791 1.091-5.267 0.629-6.763-9e-3 -0.011-0.296-0.41-0.877-0.42 0.352 0.887 0.551 1.819 0.551 2.785 0 5.62-6.354 10.192-14.162 10.192-7.809 0-14.161-4.572-14.161-10.192 0-0.966 0.199-1.898 0.549-2.785-0.581 0.01-0.869 0.409-0.876 0.42-0.461 1.496-0.79 3.972 0.629 6.763 0 0-1.368-1.093-1.657-3.496l-4e-3 0.014c-1.447-3.033-3.054-2.799-3.449-2.687 1.731-0.663 2.885 0.445 3.426 1.181 0.055-0.805 0.234-1.716 0.578-2.735h-1.522l1.633-1.29c1.307-1.247 0.348-2.07 0.282-2.125-1.602-0.68-3.842-1.116-6.284-5e-3 0 0 0.977-1.446 2.463-1.839 0 0 2.335 0.851 3.559 0.549 0 0 2.034 2.58 3.949 1.524 0.097-0.084 0.203-0.16 0.305-0.24 0.025-0.02 0.05-0.04 0.076-0.06-3.945-0.541-3.657-3.27-3.657-3.27 0.397 1.198 1.985 1.069 1.985 1.069 0.35 1.321 2.367 1.122 2.389 1.118 0.199-0.05 0.416-0.114 0.637-0.197 0.062-0.024 0.123-0.058 0.185-0.084 0.164-0.069 0.329-0.137 0.492-0.229 0.127-0.072 0.242-0.169 0.363-0.255 0.096-0.069 0.198-0.123 0.286-0.201 0.204-0.18 0.392-0.387 0.552-0.629l5.188-0.592-0.041 0.017c4e-3 -2e-3 6e-3 -2e-3 0.01-2e-3 0.318-0.035 0.638-0.067 0.963-0.084 0.38-0.027 0.764-0.042 1.152-0.042s0.772 0.015 1.15 0.042c0.326 0.017 0.646 0.049 0.965 0.084 4e-3 0 6e-3 0 0.01 2e-3l-0.041-0.017 5.187 0.592c0.637 0.959 1.708 1.393 2.513 1.595 0 0 2.04 0.211 2.393-1.118 0 0 1.585 0.129 1.985-1.069 0 0 0.287 2.729-3.657 3.27 0.025 0.02 0.049 0.04 0.075 0.06 0.101 0.08 0.209 0.156 0.306 0.24 1.915 1.056 3.949-1.524 3.949-1.524 1.223 0.302 3.558-0.549 3.558-0.549 1.486 0.393 2.463 1.839 2.463 1.839-2.442-1.111-4.681-0.675-6.282 5e-3m-14.574 15.524c7.033 0 12.755-3.941 12.755-8.784 0-1.178-0.344-2.301-0.957-3.327-0.123-0.206-0.261-0.405-0.406-0.6-0.016-0.023-0.032-0.047-0.047-0.069-0.161-0.211-0.332-0.418-0.513-0.619-0.83-0.92-1.899-1.726-3.146-2.377-0.046-0.026-0.093-0.051-0.141-0.074-0.379-0.195-0.775-0.373-1.184-0.537-0.037-0.015-0.07-0.032-0.106-0.043-0.45-0.177-0.915-0.334-1.397-0.473-0.028-8e-3 -0.059-0.014-0.087-0.022-0.422-0.118-0.855-0.216-1.297-0.303-0.136-0.028-0.274-0.051-0.412-0.073-0.359-0.063-0.724-0.112-1.095-0.153-0.144-0.014-0.289-0.033-0.434-0.047-0.504-0.041-1.014-0.068-1.533-0.068-0.52 0-1.03 0.027-1.531 0.068-0.149 0.014-0.291 0.033-0.437 0.047-0.37 0.041-0.735 0.09-1.095 0.153-0.136 0.022-0.274 0.045-0.411 0.073-0.442 0.087-0.876 0.185-1.297 0.303-0.029 8e-3 -0.059 0.014-0.088 0.022-0.48 0.139-0.946 0.296-1.397 0.473-0.035 0.011-0.069 0.028-0.106 0.043-0.409 0.164-0.802 0.342-1.183 0.537-0.047 0.023-0.094 0.048-0.143 0.074-1.244 0.651-2.314 1.457-3.144 2.377-0.181 0.201-0.352 0.408-0.512 0.619-0.017 0.022-0.031 0.044-0.047 0.067-0.146 0.197-0.283 0.396-0.406 0.602-0.613 1.026-0.957 2.149-0.957 3.327 0 4.843 5.722 8.784 12.754 8.784m-13.524-15.003c0.047 0.664-0.244 1.241-0.502 1.604h1.414c0.155-0.215 0.318-0.423 0.491-0.628l-0.014-9e-3s-0.516-0.467-1.389-0.967m27.047 0c-0.872 0.5-1.389 0.967-1.389 0.967l-0.012 9e-3c0.173 0.205 0.337 0.413 0.488 0.628h1.416c-0.26-0.363-0.55-0.94-0.503-1.604" fill="#231f20"/>
</g>
</g>
<g transform="matrix(.99382 0 0 .99709 .06639 .4732)">
<g transform="matrix(.35496 0 0 -.34196 1.5337 139.54)" image-rendering="optimizeQuality">
<path d="m0 0s2.231-11.25 1.5-21.5c0 0-3.125-3.125 0.25-8.187l-0.28-5.472h48.795l-0.281 5.472c3.375 5.062 0.25 8.187 0.25 8.187-0.731 10.25 1.5 21.5 1.5 21.5l-1.437 1.062c0.312 0.563 1.098 4.029 1.098 4.029l-0.952 11.545c-2.853-1.177-4.693 3.139-4.693 3.139h-39.766s-1.839-4.316-4.693-3.139l-0.951-11.545s0.785-3.466 1.097-4.029z" fill="#fff"/>
</g>
<g transform="matrix(.35496 0 0 -.35279 10.715 147.29)" image-rendering="optimizeQuality">
<path d="m0 0c6.731 0 12.208-3.695 12.208-8.238s-5.477-8.24-12.208-8.24-12.208 3.697-12.208 8.24 5.477 8.238 12.208 8.238" fill="#fff"/>
</g>
<g transform="matrix(.35496 0 0 -.35279 10.715 152.67)" image-rendering="optimizeQuality">
<path d="m0 0c-5.939 0-10.958 3.2-10.958 6.989 0 3.788 5.019 6.989 10.958 6.989s10.958-3.201 10.958-6.989c0-3.789-5.019-6.989-10.958-6.989m0-2.5c7.434 0 13.458 4.249 13.458 9.489s-6.024 9.489-13.458 9.489c-7.433 0-13.458-4.249-13.458-9.489s6.025-9.489 13.458-9.489" fill="#deddde"/>
</g>
<g transform="matrix(.35496 0 0 -.35279 15.988 151.83)" image-rendering="optimizeQuality">
<path d="m0 0 1.633 1.29h-1.522c0.345 1.019 0.524 1.93 0.579 2.737 0.541-0.737 1.695-1.846 3.425-1.183-0.393-0.112-2.002-0.346-3.448 2.687l-5e-3 -0.014c-0.289 2.404-1.657 3.496-1.657 3.496 1.42-2.791 1.092-5.267 0.63-6.763-8e-3 -0.011-0.296-0.41-0.877-0.42 0.35 0.887 0.55 1.819 0.55 2.785 0 5.621-6.354 10.192-14.162 10.192s-14.162-4.571-14.162-10.192c0-0.966 0.201-1.898 0.552-2.785-0.582 0.01-0.869 0.409-0.878 0.42-0.462 1.496-0.789 3.972 0.63 6.763 0 0-1.368-1.092-1.657-3.496l-4e-3 0.014c-1.446-3.033-3.056-2.799-3.449-2.687 1.73-0.663 2.885 0.446 3.425 1.183 0.056-0.807 0.235-1.718 0.579-2.737h-1.522l1.634-1.29h3e-3s1.793-1.227 1.394-3.646c0 0-0.28-0.795 0.424-0.911 0.662-0.108 1.455 1.432-0.694 4.557h1.115c0.316-0.445 0.675-0.871 1.075-1.275l-5e-3 -8e-3s0.025-0.036 0.059-0.092c2.287-3.402 0.382-3.953 0.376-3.955-0.196-0.061-0.269-0.291-0.167-0.456 0.357-0.581 2.556-0.356 1.619 2.467 0.787-0.214 1.778-0.644 2.382-1.555l5.188-0.592-0.042 0.017c0.695-0.075 1.402-0.128 2.125-0.128 0.725 0 1.431 0.053 2.126 0.128l-0.042-0.017 5.188 0.592c0.606 0.911 1.597 1.343 2.386 1.557-0.939-2.825 1.26-3.052 1.618-2.469 0.1 0.165 0.029 0.395-0.167 0.456-6e-3 2e-3 -1.911 0.553 0.376 3.955 0.035 0.056 0.058 0.092 0.058 0.092l-5e-3 0.01c0.399 0.402 0.756 0.828 1.073 1.273h1.119c-2.151-3.125-1.357-4.665-0.694-4.557 0.703 0.116 0.422 0.911 0.422 0.911-0.398 2.419 1.396 3.646 1.396 3.646m-14.854-4.17c-4.572 0-8.58 1.674-10.832 4.17-0.18 0.201-0.352 0.408-0.512 0.619-0.017 0.022-0.031 0.046-0.046 0.068-0.147 0.196-0.284 0.395-0.407 0.601-0.614 1.028-0.957 2.15-0.957 3.327 0 4.843 5.722 8.784 12.754 8.784 7.033 0 12.754-3.941 12.754-8.784 0-1.177-0.343-2.301-0.956-3.327-0.123-0.206-0.26-0.405-0.406-0.601-0.017-0.022-0.03-0.046-0.048-0.068-0.159-0.211-0.331-0.418-0.511-0.619-2.252-2.496-6.259-4.17-10.833-4.17m22.428 45.549c-0.363-1.537 0.167-2.859 0.888-3.867-1.084-6.09-0.029-27.821 0.107-30.346 0.502 0.638 0.959 1.67 1.207 2.283-0.051 1.317-0.088 2.739-0.105 4.215 0.59-0.971 0.849-2.004 0.754-3.093-0.111-1.257-0.662-2.47-1.378-3.555-0.036-0.053-0.068-0.101-0.101-0.149-0.097-0.142-0.197-0.282-0.299-0.421-0.022-0.03-0.035-0.047-0.035-0.047v-2e-3c-1.577-2.115-3.622-3.61-3.775-3.721-0.778-0.408-1.546-0.885-2.293-1.386h-0.012l-0.164-0.119c-0.275-0.188-0.534-0.383-0.8-0.575l-0.015 4e-3c-0.302-0.192-0.555-0.382-0.773-0.571l-0.04-0.029h5e-3c-1.62-1.428-1.033-2.757-0.569-2.912 0.527-0.176 0.703 0.562 0.703 0.562-0.037 1.161 0.776 1.933 1.389 2.35h8.16l-0.075 0.715c-6e-3 0.049-0.101 0.967-0.219 2.488 0.184 2e-3 0.371-2e-3 0.553-0.017h1e-3c0.088-8e-3 0.168-0.023 0.251-0.038 0.114-0.044 0.201-0.135 0.09-0.332-0.22-0.391-0.489-0.562-0.489-0.562s0.709 0.073 1.125 0.759c0.416 0.683-0.44 1.226-1.42 1.147l2e-3 -2e-3c-0.057 0-0.121-6e-3 -0.183-0.01-0.05 0.734-0.104 1.562-0.155 2.471 0.749 1.168 1.327 2.481 1.449 3.867 0.154 1.726-0.423 3.322-1.697 4.755 0 0.253 2e-3 0.512 4e-3 0.769 0 0 0.908 16.928 1.74 19.633l0.109 0.346-0.311 0.19c-0.015 9e-3 -0.736 0.467-1.445 1.226 0 0-0.747 0.667-1.024 1.472-0.305 0.658-0.46 1.404-0.272 2.211 0.03 0.071 0.378 0.891 0.732 1.948l0.169-1.875c-0.176-0.519-0.326-1.072-0.467-1.639 0.198-0.401 0.568-1.04 1.028-1.331 0.196 0.95 0.42 1.863 0.704 2.68l0.046 0.13-0.813 9.055c0.012-1.353-0.911-4.294-0.911-4.294-0.305-1.85-1.343-4.289-1.376-4.383m1.128-36.376c0.021-0.339 0.044-0.668 0.068-0.974-0.389-0.047-0.782-0.119-1.186-0.228 0.364 0.359 0.744 0.764 1.118 1.202m-4.416-3.713c1.553 0.934 3.144 1.648 4.554 1.816 0.06-0.76 0.116-1.381 0.157-1.816zm5.286 34.978c0.327-0.301 0.629-0.534 0.839-0.684-0.59-2.139-1.061-7.755-1.415-11.477-0.033 2.945 0.062 8.674 0.576 12.161m-48.079 11.162c-0.642 1.549-0.946 4.838-0.946 4.838l0.024 0.278 0.412 0.129c0.968 0.3 3.725 1.506 3.725 3.062v0.646h40.878v-0.646c0-1.556 2.757-2.762 3.724-3.062l0.413-0.129 0.023-0.278s-0.305-3.289-0.945-4.838l-0.288 4.154c-1.068 0.391-3.66 1.532-4.141 3.508h-38.451c-0.481-1.976-3.074-3.117-4.141-3.508zm-2.865-44.417c0.416-0.686 1.126-0.759 1.126-0.759s-0.27 0.171-0.49 0.562c-0.111 0.197-0.024 0.288 0.09 0.332 0.082 0.015 0.164 0.03 0.25 0.038h2e-3c0.182 0.015 0.37 0.019 0.552 0.017-0.117-1.521-0.212-2.439-0.217-2.488l-0.076-0.715h8.163c0.614-0.417 1.425-1.189 1.389-2.35 0 0 0.176-0.738 0.704-0.562 0.464 0.155 1.049 1.484-0.571 2.912h2e-3l-0.016 0.01c-0.223 0.197-0.482 0.392-0.794 0.59l-0.016-4e-3c-0.267 0.192-0.525 0.387-0.8 0.575l-0.165 0.119h-0.012c-0.746 0.501-1.515 0.978-2.292 1.386-0.153 0.111-2.199 1.606-3.776 3.721v2e-3s-0.014 0.017-0.035 0.047c-0.102 0.139-0.202 0.279-0.299 0.421-0.034 0.048-0.065 0.096-0.101 0.149-0.716 1.085-1.267 2.298-1.377 3.555-0.095 1.089 0.162 2.122 0.753 3.093-0.018-1.476-0.053-2.898-0.104-4.215 0.247-0.613 0.704-1.645 1.206-2.283 0.136 2.525 1.191 24.256 0.108 30.346 0.72 1.008 1.249 2.33 0.888 3.867-0.033 0.094-1.072 2.533-1.378 4.383 0 0-0.921 2.941-0.91 4.294l-0.812-9.055 0.045-0.13c0.284-0.817 0.508-1.73 0.705-2.68 0.46 0.291 0.829 0.93 1.027 1.331-0.14 0.567-0.292 1.12-0.466 1.639l0.168 1.875c0.353-1.057 0.702-1.877 0.733-1.948 0.187-0.807 0.033-1.553-0.273-2.211-0.277-0.805-1.023-1.472-1.023-1.472-0.709-0.759-1.432-1.217-1.446-1.226l-0.31-0.19 0.109-0.346c0.832-2.705 1.738-19.633 1.738-19.633 2e-3 -0.257 5e-3 -0.516 5e-3 -0.769-1.273-1.433-1.85-3.029-1.697-4.755 0.123-1.386 0.701-2.699 1.449-3.867-0.05-0.909-0.105-1.737-0.155-2.471-0.062 4e-3 -0.126 0.01-0.183 0.01l2e-3 2e-3c-0.979 0.079-1.836-0.464-1.42-1.147m2.964 1.99c0.374-0.438 0.754-0.843 1.117-1.202-0.404 0.109-0.798 0.181-1.185 0.228 0.022 0.306 0.045 0.635 0.068 0.974m-0.139-1.897c1.409-0.168 3.002-0.882 4.554-1.816h-4.711c0.041 0.435 0.097 1.056 0.157 1.816m-1.571 32.478c0.211 0.15 0.511 0.383 0.84 0.684 0.514-3.487 0.607-9.216 0.575-12.161-0.354 3.722-0.824 9.338-1.415 11.477" fill="#231f20"/>
</g>
</g>
</g>
</svg>
