This XML file does not appear to have any style information associated with it. The document tree is shown below.
<svg viewBox="0 0 23.548 176.742" height="668" width="89">
<path d="M3.064 3.19c.41-.131.85-.215 1.333-.215h1.732c.23.227.475.434.726.63-.906-.279-2.405-.622-3.79-.415M.338 5.239A7.74 7.74 0 000 5.723V9.34l.458-1.704C.168 6.687.24 5.786.338 5.24m22.558 2.366c.368-1.18.14-2.315.04-2.703a6.19 6.19 0 00-1.303-1.164c-1.897-.919-4.676-.036-5.478.254a7.986 7.986 0 01-4.38 1.3 7.985 7.985 0 01-4.383-1.3c-.803-.29-3.589-1.175-5.485-.25-.522.342-.95.756-1.294 1.158-.1.386-.33 1.524.04 2.705l.008.027-.008.027L0 10.09v156.562l.66 2.458-.008.026c-.368 1.181-.14 2.316-.04 2.704.345.403.777.82 1.302 1.164 1.897.918 4.677.036 5.479-.255a7.986 7.986 0 014.38-1.3c1.58 0 3.089.457 4.382 1.3.804.292 3.59 1.176 5.485.251.522-.342.951-.756 1.295-1.158.1-.386.329-1.524-.04-2.706l-.009-.026.008-.027.654-2.432V10.09l-.661-2.458zm-3.495-6h1.235l-.28-.374h-3.152c-.092-.003-.18-.014-.273-.014v.014h-1.93c.135.117.264.243.386.374h3.259c2.419.536 4.134 2.07 4.902 2.886v.716c-.774-1.067-2.226-2.524-4.397-2.524h-4.843a.305.305 0 00-.266-.162.308.308 0 000 .615.305.305 0 00.266-.16h2.675A7.69 7.69 0 0111.774 5a7.691 7.691 0 01-5.209-2.025H9.24c.053.095.15.161.265.161a.308.308 0 000-.615.305.305 0 00-.265.162H4.397C2.225 2.683.773 4.14 0 5.207v-.716c.766-.816 2.48-2.35 4.898-2.885H8.16c.122-.132.25-.257.386-.375h-1.93v-.014c-.092 0-.18.01-.272.014H3.192l-.281.375h1.234C2.184 2.225.754 3.441 0 4.212v-.988s1.422-.847 1.785-1.618h.76l.501-.668H5.89C6.992.798 8.381.541 9.038.086c0 0 .467-.284.467.18 0 .283-1.068.526-1.897.672H8.67a.218.218 0 01.153-.063c.046 0 .086.018.122.043a4.9 4.9 0 015.657 0 .211.211 0 01.123-.043c.06 0 .113.024.152.063h1.062C15.11.792 14.042.55 14.042.266c0-.464.467-.18.467-.18.658.455 2.047.713 3.148.852h2.845l.5.667h.76c.364.772 1.786 1.618 1.786 1.618v.988c-.755-.77-2.185-1.987-4.147-2.606m-4.612-.304a.205.205 0 01-.064.013.22.22 0 01-.22-.22l.002-.005a4.71 4.71 0 00-5.466 0l.001.006a.22.22 0 01-.22.22.21.21 0 01-.064-.014 4.855 4.855 0 00-.335.305h.355a4.477 4.477 0 015.991 0h.355a4.76 4.76 0 00-.335-.305m8.301 6.335l.458 1.703V5.723a7.89 7.89 0 00-.339-.483c.097.549.17 1.448-.119 2.396m-3.939-4.66h-1.733c-.23.226-.475.433-.727.629.907-.278 2.405-.622 3.792-.415a4.333 4.333 0 00-1.332-.215m0 170.791c.482 0 .923-.083 1.332-.214-1.386.207-2.884-.136-3.79-.415.25.195.495.403.725.63zm4.058-2.263c.13-.173.243-.336.339-.485v-3.617l-.458 1.705c.289.949.216 1.849.119 2.397m.339.032v.715c-.767.817-2.48 2.35-4.899 2.885h-3.261c-.123.133-.251.258-.387.376h1.93v.014c.093 0 .181-.01.273-.014h3.151l.282-.376h-1.234c1.96-.618 3.39-1.835 4.145-2.605v.988s-1.422.846-1.785 1.617h-.76l-.501.669h-2.845c-1.101.14-2.49.397-3.148.852 0 0-.467.283-.467-.18 0-.284 1.068-.526 1.897-.672h-1.062a.216.216 0 01-.152.062.215.215 0 01-.123-.042 4.902 4.902 0 01-5.657 0 .214.214 0 01-.122.042.217.217 0 01-.153-.062H7.608c.83.146 1.897.388 1.897.672 0 .463-.467.18-.467.18-.657-.455-2.046-.713-3.148-.852H3.046l-.5-.668h-.761C1.422 174.364 0 173.52 0 173.52v-.989c.754.771 2.185 1.987 4.146 2.606H2.911l.281.375h3.152c.092.003.179.014.272.014v-.014h1.931a5.015 5.015 0 01-.387-.375H4.902c-2.42-.535-4.135-2.069-4.902-2.885v-.716c.773 1.067 2.225 2.524 4.396 2.524H9.24c.052.095.15.161.265.161a.308.308 0 000-.615.305.305 0 00-.265.161H6.565a7.691 7.691 0 015.208-2.024c1.946 0 3.779.721 5.21 2.024h-2.676a.305.305 0 00-.265-.16.308.308 0 000 .614.304.304 0 00.265-.161h4.844c2.171 0 3.624-1.458 4.397-2.524m-8.423 3.6h-.356a4.477 4.477 0 01-5.99 0h-.355c.106.108.218.21.335.305.02-.006.04-.013.064-.013.12 0 .22.099.22.22l-.002.005a4.707 4.707 0 005.466 0 .009.009 0 00-.002-.003.22.22 0 01.22-.222c.023 0 .044.007.064.013.117-.096.229-.197.336-.304m-14.668-6.03L0 167.403v3.615c.096.149.207.312.338.484-.097-.55-.17-1.449.12-2.396m5.672 4.66c.23-.227.475-.434.726-.63-.907.279-2.405.622-3.792.416.41.13.85.214 1.332.214z" fill="#deddde"/>
<path d="M1.881 14.331s.865 4.387.582 8.383c0 0-1.211 1.218.097 3.192l-.109 2.133h18.91l-.109-2.133c1.308-1.974.097-3.192.097-3.192-.283-3.996.582-8.383.582-8.383l-.557-.414c.12-.22.425-1.57.425-1.57l-.369-4.502c-1.105.459-1.818-1.224-1.818-1.224H4.2s-.712 1.683-1.818 1.224l-.369 4.501s.304 1.352.425 1.571z" fill="#fff"/>
<path d="M11.906 23.32c2.609 0 4.731 1.441 4.731 3.213 0 1.771-2.122 3.212-4.73 3.212-2.61 0-4.732-1.441-4.732-3.212 0-1.772 2.122-3.212 4.731-3.212" fill="#fff"/>
<path d="M11.906 29.258c-2.302 0-4.247-1.248-4.247-2.725s1.945-2.725 4.247-2.725c2.302 0 4.247 1.248 4.247 2.725s-1.945 2.725-4.247 2.725m0 .975c2.881 0 5.216-1.657 5.216-3.7s-2.335-3.7-5.216-3.7c-2.88 0-5.216 1.657-5.216 3.7s2.335 3.7 5.216 3.7" fill="#deddde"/>
<path d="M2.739 9.84c-.248-.604-.366-1.886-.366-1.886l.009-.109.16-.05c.375-.117 1.443-.587 1.443-1.194V6.35h15.842v.251c0 .607 1.068 1.077 1.444 1.194l.16.05.009.109s-.118 1.282-.367 1.887l-.111-1.62c-.414-.153-1.419-.598-1.605-1.368H4.455c-.186.77-1.19 1.215-1.604 1.368zm-.56 16.87v.002c.021 0 .047.001.07.003.02-.286.041-.609.06-.963-.29-.455-.514-.967-.561-1.508-.059-.673.165-1.295.658-1.854l-.002-.299s-.351-6.6-.674-7.655l-.042-.135.12-.074c.006-.004.286-.183.56-.479 0 0 .29-.26.397-.573.118-.257.178-.548.106-.862a10.913 10.913 0 01-.284-.76l-.066.732c.068.201.126.417.181.638-.076.157-.22.405-.398.519a8.38 8.38 0 00-.273-1.045l-.018-.05.315-3.53c-.004.527.353 1.674.353 1.674.118.72.52 1.672.533 1.708.141.6-.064 1.115-.343 1.508.42 2.375.01 10.847-.042 11.832-.195-.249-.372-.651-.468-.89.02-.514.034-1.069.041-1.643a1.95 1.95 0 00-.292 1.204c.042.491.256.964.534 1.387l.039.058c.037.056.076.11.115.164l.014.018a7.525 7.525 0 001.464 1.452c.3.16.6.345.888.54h.004l.064.047c.202.137.397.28.585.424l.046.033H5.86c.361.277.692.554.963.795.354.004.702.029 1.009.058a4.23 4.23 0 01-.813-.853H6.15l-.633-.504h.59a4.295 4.295 0 01-.225-1.066c-.21.287-.657.72-1.327.46.152.044.776.136 1.337-1.047l.001.006c.112-.938.642-1.364.642-1.364a3.486 3.486 0 00-.244 2.638c.003.003.115.16.34.163a2.945 2.945 0 01-.213-1.086c0-2.192 2.462-3.973 5.488-3.973 3.026 0 5.488 1.781 5.488 3.973 0 .377-.077.74-.213 1.086.225-.004.337-.16.34-.163a3.486 3.486 0 00-.244-2.638s.53.426.642 1.364l.002-.006c.56 1.183 1.184 1.091 1.336 1.048-.67.258-1.117-.174-1.327-.461a4.26 4.26 0 01-.224 1.066h.59l-.634.504h-.869c-.219.31-.493.596-.812.853.306-.03.654-.054 1.008-.058.272-.24.602-.518.963-.795h-.002l.045-.033c.188-.144.383-.287.585-.424l.064-.047h.005c.289-.195.587-.38.888-.54A7.54 7.54 0 0021 25.838l.014-.019c.04-.054.078-.108.116-.164l.039-.058c.277-.423.49-.896.533-1.387a1.95 1.95 0 00-.291-1.204c.006.574.02 1.13.04 1.642-.096.24-.273.642-.468.89-.053-.984-.461-9.456-.041-11.83-.28-.394-.484-.91-.344-1.509.013-.036.415-.987.533-1.708 0 0 .358-1.147.353-1.675l.315 3.53-.018.051a8.38 8.38 0 00-.272 1.045c-.178-.114-.322-.362-.399-.52.055-.22.113-.436.181-.637l-.065-.732c-.137.413-.272.732-.284.76a1.31 1.31 0 00.106.862c.107.313.396.573.396.573.275.296.554.475.56.479l.12.074-.041.135c-.323 1.055-.674 7.655-.674 7.655l-.002.3c.493.558.717 1.18.658 1.853-.048.54-.272 1.053-.562 1.508.02.354.04.677.06.963l.07-.003v-.001c.38-.032.712.18.55.447-.16.267-.436.296-.436.296s.104-.067.19-.22c.042-.076.01-.112-.035-.13-.032-.005-.063-.01-.097-.013h-.001a2.29 2.29 0 00-.214-.007c.046.593.082.95.084.97l.03.279h-3.138c-.373.268-.724.549-1.028.806 1.102-.01 1.793.542 1.793.542l-.702.28c-.338.144-.875.35-1.361.446a.2.2 0 01.007.002l-.084.014c-.021.004-.042.009-.062.011-2.46.429-2.718.193-2.718.193 1.059 0 1.726-.695 1.726-.695l.061-.061c.025-.025.158-.16.37-.36-.157.01-.31.02-.46.033h-.001l-.11.01a2.277 2.277 0 00-.802.253c-.01.005-.019.012-.028.018a1.506 1.506 0 00-.252.188c-.07.065-.136.135-.19.22l-2.011.23.016-.006c-.27.03-.543.05-.824.05-.28 0-.554-.02-.824-.05l.016.007-2.01-.231a1.195 1.195 0 00-.193-.221l-.056-.05a1.687 1.687 0 00-.202-.143l-.022-.014a1.946 1.946 0 00-.288-.128 2.424 2.424 0 00-.51-.122l-.111-.011h-.002a16.022 16.022 0 00-.46-.032c.213.2.345.334.37.359l.061.061s.667.695 1.725.695c0 0-.256.236-2.716-.193-.02-.002-.041-.007-.062-.01l-.085-.015.008-.002c-.488-.097-1.024-.302-1.362-.446l-.701-.28s.69-.552 1.793-.542a16.84 16.84 0 00-1.028-.806H2.108l.03-.279c.002-.02.039-.377.084-.97-.071 0-.143 0-.214.007-.035.003-.066.008-.098.014-.043.017-.078.053-.035.13a.65.65 0 00.19.219s-.275-.029-.436-.296c-.161-.267.17-.479.55-.447m18.97-7.778c.137-1.45.32-3.64.549-4.474a3.533 3.533 0 01-.326-.267c-.2 1.359-.235 3.593-.223 4.741m-.547 7.917c.156-.042.309-.07.459-.088-.009-.119-.018-.248-.026-.38-.145.17-.292.329-.433.468m-1.278.98h1.826c-.017-.17-.038-.412-.062-.709-.546.066-1.162.345-1.764.708m-2.784 2.216a.135.135 0 00.02.013c.268.152 1.154-.115 1.861-.406-.334-.114-.803-.155-1.294-.155-.274.246-.48.443-.587.548m-4.634-.087c1.772 0 3.325-.652 4.198-1.625.07-.079.137-.16.199-.242l.018-.026a2.97 2.97 0 00.157-.235c.238-.4.371-.838.371-1.297 0-1.888-2.217-3.425-4.943-3.425-2.725 0-4.943 1.537-4.943 3.425 0 .459.133.897.371 1.297a2.825 2.825 0 00.176.261c.062.082.128.163.198.242.873.973 2.426 1.625 4.198 1.625m-5.22-.461c-.49 0-.96.041-1.294.155.707.291 1.592.558 1.861.406a.116.116 0 00.02-.013 17.457 17.457 0 00-.588-.548m-3.934-2.735c.15.018.303.046.46.088a7.404 7.404 0 01-.433-.468 28.4 28.4 0 01-.027.38m-.088 1.067h1.826c-.602-.363-1.219-.642-1.765-.708-.024.297-.045.54-.061.708m0-8.896c.013-1.148-.023-3.382-.223-4.74a3.59 3.59 0 01-.325.266c.228.834.411 3.023.548 4.474" fill="#231f20"/>
<path d="M1.882 42.174s.864 4.42.581 8.447c0 0-1.211 1.227.097 3.216l-.109 2.15h18.911l-.11-2.15c1.309-1.989.098-3.216.098-3.216-.284-4.027.58-8.447.58-8.447l-.556-.417c.12-.221.426-1.583.426-1.583l-.37-4.535c-1.105.462-1.818-1.234-1.818-1.234H4.2s-.713 1.696-1.819 1.234l-.368 4.535s.304 1.362.425 1.583z" fill="#fff"/>
<path d="M11.906 51.232c2.609 0 4.732 1.452 4.732 3.237 0 1.784-2.123 3.237-4.732 3.237-2.608 0-4.73-1.453-4.73-3.237 0-1.785 2.122-3.237 4.73-3.237" fill="#fff"/>
<path d="M11.906 57.215c-2.302 0-4.246-1.258-4.246-2.746s1.944-2.746 4.246-2.746c2.302 0 4.247 1.258 4.247 2.746s-1.945 2.746-4.247 2.746m0 .982c2.881 0 5.216-1.67 5.216-3.728 0-2.059-2.335-3.728-5.216-3.728-2.88 0-5.215 1.67-5.215 3.728 0 2.058 2.335 3.728 5.215 3.728" fill="#deddde"/>
<path d="M15.974 57.147c.322-.26.6-.55.82-.865h.868l.633-.507h-.589c.133-.4.203-.758.224-1.075.21.29.657.725 1.328.465-.153.043-.776.136-1.337-1.056l-.001.006c-.112-.945-.643-1.374-.643-1.374.55 1.097.423 2.07.244 2.657-.003.004-.115.161-.34.165.136-.348.213-.715.213-1.094 0-2.208-2.462-4.004-5.488-4.004-3.026 0-5.488 1.796-5.488 4.004 0 .379.078.746.213 1.094-.225-.004-.336-.16-.34-.165a3.536 3.536 0 01.245-2.657s-.531.43-.643 1.374l-.001-.006c-.56 1.192-1.184 1.1-1.336 1.056.67.26 1.117-.175 1.326-.465.023.317.091.675.225 1.075h-.59l.633.507h.87c.22.314.494.603.815.862-.02.01-1.61.945-2.83.144 0 0 .359.743 1.53.698l-.007.002.047-.003.027-.001c1.344-.133 1.97.445 1.97.445-.195-.467-.579-.633-.889-.689.135-.048.275-.104.422-.17l.002-.002c.312.078.733.248.981.629l2.01.232-.015-.006c.269.03.542.05.823.05.281 0 .555-.02.824-.05l-.016.006 2.01-.232c.248-.377.662-.548.974-.627.148.066.288.122.423.17-.31.056-.694.222-.89.69 0 0 .627-.579 1.97-.446l.028.001.046.003-.005-.002c1.169.045 1.53-.698 1.53-.698-1.199.787-2.751-.097-2.826-.141m-8.265-.865a3.744 3.744 0 01-.217-.27 2.735 2.735 0 01-.158-.236 2.563 2.563 0 01-.37-1.307c0-1.903 2.217-3.451 4.942-3.451 2.726 0 4.944 1.548 4.944 3.45 0 .463-.134.904-.371 1.308-.048.08-.101.159-.158.236l-.018.027a3.876 3.876 0 01-.199.243c-.872.98-2.425 1.638-4.198 1.638-1.772 0-3.325-.657-4.197-1.638m12.89-16.256c-.141.604.064 1.123.343 1.519-.42 2.392-.011 10.93.042 11.922.194-.251.371-.656.467-.897a63.907 63.907 0 01-.04-1.655c.228.38.329.786.291 1.214-.042.493-.256.97-.533 1.397l-.04.059c-.037.055-.076.11-.115.165l-.013.018c-.612.832-1.405 1.419-1.464 1.463-.301.16-.599.348-.888.544h-.005l-.064.047c-.202.139-.397.282-.585.427l-.045.033s-.5.453-.333.753c.167.299 1.167.23 1.66-.415 0 0-.493.453-1.031.2-.238-.113-.054-.33.225-.538h3.233l-.03-.281c-.001-.02-.039-.38-.084-.977.072-.001.144 0 .214.006h.001c.034.003.065.01.097.015.044.017.078.053.035.13-.085.155-.19.221-.19.221s.275-.028.436-.298c.162-.268-.17-.481-.55-.45h.001c-.022 0-.047.002-.07.004-.02-.288-.041-.613-.06-.97.29-.46.513-.975.56-1.52.06-.677-.164-1.305-.657-1.867l.001-.303s.352-6.65.675-7.713l.041-.136-.119-.074a3.211 3.211 0 01-.561-.482s-.29-.262-.397-.578a1.333 1.333 0 01-.105-.869c.012-.028.147-.35.284-.765l.066.736a8.25 8.25 0 00-.182.644c.077.158.22.408.399.523.076-.373.162-.732.272-1.053l.018-.05-.314-3.558c.004.531-.354 1.687-.354 1.687-.118.727-.52 1.685-.532 1.722m.436 14.29l.026.383c-.15.018-.302.047-.459.09.141-.141.288-.3.433-.473m-1.711 1.46c.601-.367 1.218-.648 1.764-.714.024.298.046.543.062.713zm2.048-13.742c.127.118.244.21.326.269-.229.84-.411 3.046-.548 4.508-.013-1.157.023-3.407.222-4.777M2.74 37.649c-.25-.609-.367-1.901-.367-1.901l.01-.11.16-.05c.374-.118 1.442-.592 1.442-1.203v-.254h15.842v.254c0 .611 1.069 1.085 1.444 1.203l.16.05.009.11s-.118 1.292-.367 1.9l-.111-1.631c-.413-.154-1.419-.602-1.605-1.379H4.456c-.186.777-1.192 1.225-1.605 1.379zm-1.11 17.45c.16.269.436.297.436.297s-.105-.066-.19-.22c-.043-.078-.009-.114.035-.131.032-.006.063-.012.097-.015.071-.006.143-.007.215-.006-.046.597-.083.958-.084.977l-.03.28H5.333c.279.208.463.426.225.538-.539.254-1.03-.2-1.03-.2.492.646 1.492.715 1.659.416.166-.3-.333-.753-.333-.753H5.863l-.046-.033a13.446 13.446 0 00-.584-.427l-.064-.047h-.005a9.88 9.88 0 00-.888-.544c-.06-.044-.852-.631-1.464-1.463L2.8 53.75a7.523 7.523 0 01-.116-.165l-.039-.06c-.277-.426-.491-.903-.533-1.396a1.976 1.976 0 01.291-1.214c-.007.579-.02 1.137-.04 1.655.095.24.272.646.467.897.053-.992.462-9.53.042-11.922.279-.396.484-.915.344-1.52-.013-.036-.415-.994-.534-1.721 0 0-.357-1.156-.353-1.687l-.314 3.557.017.051c.11.321.197.68.274 1.053.178-.115.32-.365.398-.523a8.083 8.083 0 00-.182-.644l.066-.736c.137.415.272.737.284.765.072.317.013.61-.106.869-.107.316-.396.578-.396.578a3.196 3.196 0 01-.561.482l-.12.074.042.136c.323 1.063.674 7.713.674 7.713l.002.303c-.493.562-.717 1.19-.658 1.867.047.545.272 1.06.562 1.52-.02.357-.04.682-.06.97-.024-.002-.05-.004-.071-.004-.379-.031-.711.182-.55.45m1.15-.782c.144.172.291.332.432.473a3.113 3.113 0 00-.46-.09l.027-.383m-.053.746c.545.066 1.163.347 1.764.713H2.663c.016-.17.038-.415.062-.713m-.61-12.76c.082-.059.199-.15.326-.268.199 1.37.235 3.62.223 4.777-.137-1.462-.32-3.668-.549-4.508" fill="#231f20"/>
<g>
<path d="M1.881 70.157s.865 4.385.582 8.38c0 0-1.211 1.219.097 3.192l-.109 2.133h18.91l-.109-2.133c1.308-1.973.097-3.192.097-3.192-.283-3.995.582-8.38.582-8.38l-.557-.414c.12-.22.425-1.57.425-1.57l-.369-4.501c-1.105.459-1.819-1.224-1.819-1.224H4.2s-.712 1.683-1.818 1.224l-.369 4.5s.304 1.351.425 1.57z" fill="#fff"/>
<path d="M11.906 79.144c2.609 0 4.731 1.44 4.731 3.211s-2.122 3.212-4.731 3.212-4.731-1.44-4.731-3.212c0-1.77 2.122-3.21 4.731-3.21" fill="#fff"/>
<path d="M11.906 85.08c-2.302 0-4.247-1.247-4.247-2.724s1.945-2.725 4.247-2.725c2.302 0 4.247 1.248 4.247 2.725s-1.945 2.724-4.247 2.724m0 .974c2.881 0 5.216-1.656 5.216-3.698 0-2.043-2.335-3.7-5.216-3.7-2.88 0-5.216 1.657-5.216 3.7 0 2.042 2.335 3.698 5.216 3.698" fill="#deddde"/>
<path d="M2.74 65.667c-.249-.605-.367-1.886-.367-1.886l.01-.109.159-.05c.375-.117 1.443-.587 1.443-1.194v-.25h15.842v.25c0 .607 1.069 1.077 1.443 1.194l.16.05.01.109s-.118 1.281-.367 1.886l-.111-1.62c-.414-.152-1.42-.597-1.605-1.367H4.455c-.186.77-1.19 1.215-1.604 1.367zm-.56 16.866c.02 0 .046.003.069.004.02-.285.041-.608.06-.962-.29-.455-.514-.968-.561-1.508-.06-.672.165-1.295.658-1.853l-.002-.3s-.351-6.599-.674-7.652l-.042-.136.12-.074c.006-.004.286-.183.56-.478 0 0 .29-.26.397-.573.119-.257.178-.548.106-.862-.012-.028-.148-.348-.285-.76l-.064.731c.067.202.126.418.18.639-.076.156-.22.404-.398.518a8.488 8.488 0 00-.272-1.044l-.018-.051.314-3.529c-.004.528.353 1.673.353 1.673.119.722.52 1.672.534 1.709.14.599-.065 1.114-.344 1.507.42 2.375.011 10.845-.042 11.83-.195-.25-.372-.65-.467-.891.02-.513.033-1.067.04-1.642-.229.377-.329.78-.292 1.205.043.49.256.963.534 1.386l.039.058a5.618 5.618 0 00.129.182 7.55 7.55 0 001.464 1.451c.301.16.6.346.888.541h.004l.065.046c.201.138.396.28.584.424l.046.033H3.616c-.032.203-.03.802 1 1.02 0 0 .148.519 1.676.88 1.528.36.314-1.531-.151-1.9l.004-.004-.628-.499h.59a4.3 4.3 0 01-.225-1.067c-.209.288-.656.72-1.327.461.153.043.776.135 1.337-1.047l.002.005c.112-.937.641-1.363.641-1.363a3.483 3.483 0 00-.243 2.637c.003.004.114.16.34.163a2.945 2.945 0 01-.214-1.085c0-2.191 2.462-3.973 5.488-3.973 3.027 0 5.489 1.782 5.489 3.973 0 .376-.078.74-.214 1.085.225-.003.337-.16.34-.163a3.486 3.486 0 00-.244-2.637s.53.426.642 1.363l.002-.005c.56 1.182 1.184 1.09 1.337 1.047-.67.258-1.118-.173-1.328-.46a4.28 4.28 0 01-.224 1.066h.589l-.633.503c-.464.369-1.678 2.26-.15 1.9 1.528-.361 1.675-.88 1.675-.88 1.031-.218 1.032-.817 1.001-1.02H17.95l.045-.033c.188-.143.383-.286.585-.424l.064-.046h.005c.288-.195.587-.381.888-.54.06-.044.852-.627 1.463-1.451v-.001l.014-.018a4.45 4.45 0 00.155-.222c.277-.423.49-.896.534-1.386a1.952 1.952 0 00-.293-1.205c.007.575.02 1.129.041 1.642-.096.24-.273.642-.467.891-.053-.985-.462-9.455-.042-11.83-.28-.393-.485-.908-.344-1.507.013-.037.414-.987.533-1.709 0 0 .357-1.145.353-1.673l.315 3.529-.018.051c-.11.318-.197.674-.273 1.044-.178-.114-.32-.362-.398-.518.055-.22.113-.437.181-.639l-.065-.73c-.137.411-.272.731-.284.759-.073.314-.013.605.106.862.107.313.396.573.396.573.275.295.554.474.56.478l.12.074-.042.136c-.322 1.053-.674 7.653-.674 7.653l-.001.299c.493.558.716 1.18.658 1.853-.048.54-.272 1.053-.562 1.508.02.354.04.677.06.962l.07-.003v-.001c.38-.03.712.18.55.448-.16.266-.436.295-.436.295s.104-.067.19-.22c.043-.076.01-.112-.035-.129l-.097-.014h-.001a2.16 2.16 0 00-.213-.007c.045.593.081.951.083.97l.03.279h-.995c-.463 1.778-3.69 2.364-3.69 2.364-.592-.525-1.249-.368-1.249-.368.526-.281.657-.892.657-.892l-.729.174c-.312.078-.727.248-.974.621l-2.01.232.016-.007c-.27.03-.544.05-.824.05-.28 0-.554-.02-.824-.05l.017.007-2.01-.232c-.25-.377-.671-.547-.984-.624v.003l-.729-.174s.131.61.657.892c0 0-.657-.157-1.248.368 0 0-3.228-.586-3.691-2.364h-.985l.029-.278c.002-.02.04-.378.084-.97-.07-.002-.143 0-.214.006l-.098.014c-.044.017-.077.053-.034.13.085.152.19.22.19.22s-.275-.03-.437-.296c-.16-.268.171-.479.55-.448m18.97-7.776c.137-1.45.32-3.64.549-4.473a3.523 3.523 0 01-.326-.267c-.2 1.36-.236 3.593-.223 4.74m-.547 7.916a3.3 3.3 0 01.459-.089c-.009-.119-.018-.247-.026-.38a7.52 7.52 0 01-.433.469m-1.279.98h1.827a38.76 38.76 0 01-.061-.71c-.547.066-1.164.345-1.766.71m-2.53.502c-.197.28-.436.54-.714.776.518.016.94-.466 1.157-.776zm-9.83-1.8c0 .46.133.897.371 1.298.048.08.1.157.158.234l.018.027c.062.082.128.162.198.24.873.974 2.426 1.626 4.198 1.626 1.773 0 3.325-.652 4.198-1.625.07-.079.137-.16.199-.241l.018-.027c.056-.077.11-.154.157-.234.238-.4.371-.838.371-1.297 0-1.888-2.217-3.424-4.943-3.424-2.725 0-4.942 1.536-4.942 3.424m.771 2.575a4.186 4.186 0 01-.716-.776h-.452c.218.312.645.799 1.168.776m-4.984-2.347c.15.019.303.046.46.089a7.291 7.291 0 01-.433-.469c-.008.133-.017.261-.027.38m-.088 1.068h1.826c-.602-.364-1.22-.643-1.765-.709-.023.297-.045.54-.061.71m0-8.896c.014-1.147-.023-3.38-.222-4.74a3.523 3.523 0 01-.326.267c.229.834.41 3.023.549 4.473" fill="#231f20"/>
</g>
<g>
<path d="M1.882 98s.864 4.42.58 8.447c0 0-1.21 1.228.098 3.217l-.109 2.15h18.91l-.109-2.15c1.308-1.989.097-3.217.097-3.217-.283-4.027.582-8.446.582-8.446l-.557-.418c.12-.22.425-1.582.425-1.582l-.369-4.536c-1.105.462-1.818-1.233-1.818-1.233H4.2s-.713 1.695-1.82 1.233L2.014 96s.305 1.361.425 1.582z" fill="#fff"/>
<path d="M11.906 107.059c2.609 0 4.731 1.452 4.731 3.236 0 1.785-2.122 3.238-4.73 3.238-2.61 0-4.732-1.453-4.732-3.238 0-1.784 2.123-3.236 4.731-3.236" fill="#fff"/>
<path d="M11.906 113.041c-2.301 0-4.247-1.257-4.247-2.745 0-1.489 1.946-2.746 4.247-2.746 2.302 0 4.247 1.257 4.247 2.746 0 1.488-1.945 2.745-4.247 2.745m0 .982c2.881 0 5.216-1.669 5.216-3.727 0-2.06-2.335-3.728-5.216-3.728-2.88 0-5.215 1.669-5.215 3.728 0 2.058 2.335 3.727 5.215 3.727" fill="#deddde"/>
<path d="M16.794 112.109h.577c-.445.374-.542.82-.542.82.159.014.431.155.431.155-.227-.537.402-.975.402-.975l.633-.507h-.59c.135-.4.204-.758.226-1.074.209.289.656.724 1.326.463-.152.045-.776.137-1.336-1.055l-.002.006c-.112-.945-.642-1.374-.642-1.374.55 1.096.423 2.07.244 2.657-.003.005-.115.161-.34.165.137-.348.214-.714.214-1.094 0-2.208-2.463-4.004-5.488-4.004-3.027 0-5.489 1.796-5.489 4.004 0 .38.078.746.213 1.094a.435.435 0 01-.34-.165 3.534 3.534 0 01.245-2.657s-.53.43-.642 1.374l-.002-.006c-.56 1.192-1.184 1.1-1.337 1.055.67.261 1.118-.174 1.328-.463.021.316.09.673.224 1.074h-.59l.628.503-.004.004s.63.438.402.975c0 0 .273-.141.432-.155 0 0-.097-.446-.542-.82h.586c.215.307.482.59.794.845-1.48.15-2.27.96-2.27.96 1.318-.369 1.91 0 1.91 0-.061-.307-.395-.369-.395-.369.03-.43 1.047-.148 1.047-.148l.002-.002c.312.078.733.249.981.628l2.01.234-.015-.007c.27.03.543.05.824.05.28 0 .554-.02.824-.05l-.017.007 2.01-.234c.247-.376.662-.547.974-.626 0 0 1.017-.281 1.048.148 0 0-.334.062-.395.369 0 0 .591-.369 1.91 0 0 0-.787-.807-2.263-.96.312-.254.58-.537.796-.845m-9.085 0c-.07-.08-.137-.16-.2-.243l-.017-.027a2.655 2.655 0 01-.158-.236 2.56 2.56 0 01-.37-1.307c0-1.903 2.217-3.451 4.943-3.451 2.725 0 4.942 1.548 4.942 3.45 0 .463-.133.905-.37 1.308-.048.08-.101.16-.158.236l-.018.027a3.816 3.816 0 01-.199.243c-.872.981-2.425 1.638-4.197 1.638-1.773 0-3.325-.657-4.198-1.638m12.889-16.257c-.14.604.065 1.123.344 1.52-.42 2.393-.011 10.93.042 11.922.194-.251.371-.656.467-.898a63.77 63.77 0 01-.04-1.654c.228.38.328.786.292 1.214-.043.494-.257.97-.534 1.397-.014.021-.026.04-.04.058a6.261 6.261 0 01-.129.184 7.567 7.567 0 01-1.463 1.463c-.301.16-.6.348-.888.544h-.005l-.064.047c-.201.14-.397.282-.585.427l-.045.033h.002s-.255.188-.29.505c0 0 .216-.358.793-.505H19.226c-.89.543-1.302 1.26-1.302 1.26.261.115.458.407.458.407-.174-.577.308-1.036.809-1.344.043-.02.78-.356 1.404-.323h1.11l-.03-.28c-.002-.02-.04-.381-.085-.978.071-.001.144 0 .214.006.035.003.066.01.098.015.044.018.078.053.035.13-.086.154-.19.222-.19.222s.275-.03.436-.298c.162-.27-.17-.483-.55-.451-.02 0-.046.003-.07.004-.02-.288-.04-.613-.06-.97.29-.459.514-.975.562-1.52.059-.678-.165-1.305-.659-1.868l.002-.301s.352-6.651.674-7.714l.043-.136-.12-.075a3.198 3.198 0 01-.56-.48s-.29-.263-.397-.58a1.332 1.332 0 01-.106-.868c.012-.028.147-.35.284-.765l.065.737c-.068.203-.126.42-.18.643.076.158.22.408.397.523a8.66 8.66 0 01.273-1.053l.018-.051-.315-3.557c.005.532-.353 1.687-.353 1.687-.118.726-.52 1.685-.533 1.721m.436 14.291l.027.384c-.15.018-.302.045-.46.089.142-.141.289-.3.433-.473m-1.71 1.459c.601-.366 1.218-.647 1.764-.713.024.298.045.542.062.713zm2.048-13.742c.127.12.244.21.326.27-.23.84-.412 3.045-.549 4.508-.013-1.156.023-3.408.223-4.778M2.739 93.476c-.248-.61-.366-1.901-.366-1.901l.009-.11.16-.05c.375-.118 1.443-.592 1.443-1.203v-.254h15.842v.254c0 .611 1.069 1.085 1.444 1.203l.16.05.009.11s-.118 1.292-.367 1.9l-.111-1.631c-.414-.154-1.419-.602-1.605-1.378H4.455c-.185.776-1.19 1.224-1.604 1.378zm-1.11 17.45a.63.63 0 00.436.298s-.103-.068-.19-.221c-.042-.078-.009-.113.036-.13.032-.006.063-.013.097-.016.071-.006.143-.007.214-.006-.045.597-.082.958-.084.977l-.03.281H3.98c.562.236 1.695.828 1.442 1.667 0 0 .196-.292.458-.408 0 0-.413-.716-1.303-1.259H5.348c.578.147.793.505.793.505-.034-.317-.29-.505-.29-.505h.012l-.045-.033a14.934 14.934 0 00-.586-.427l-.063-.047h-.005a9.797 9.797 0 00-.888-.544 7.562 7.562 0 01-1.463-1.463l-.014-.018a5.463 5.463 0 01-.116-.166l-.039-.058c-.277-.426-.491-.903-.534-1.397a1.982 1.982 0 01.292-1.214c-.006.579-.02 1.137-.04 1.654.096.242.272.647.467.898.053-.992.462-9.53.042-11.922.28-.397.484-.916.343-1.52-.012-.036-.414-.995-.533-1.721 0 0-.357-1.155-.353-1.687l-.315 3.557.018.051c.11.32.197.68.273 1.053.178-.115.321-.365.399-.523a8.095 8.095 0 00-.182-.643l.066-.737c.136.415.272.737.284.765.073.317.013.61-.106.868-.108.317-.397.58-.397.58a3.176 3.176 0 01-.56.48l-.12.075.042.136c.323 1.063.674 7.714.674 7.714l.002.301c-.493.563-.717 1.19-.658 1.868.047.545.271 1.061.562 1.52-.02.357-.04.682-.06.97-.024-.001-.049-.004-.071-.004-.379-.032-.71.182-.55.45m1.149-.782c.145.173.292.332.433.473a3.108 3.108 0 00-.46-.09c.01-.12.018-.25.027-.383m-.054.746c.546.066 1.163.347 1.765.713H2.663a60.3 60.3 0 00.061-.713m-.609-12.76c.082-.058.198-.15.326-.269.2 1.37.235 3.622.222 4.778-.136-1.463-.319-3.668-.548-4.508" fill="#231f20"/>
</g>
<g>
<path d="M1.881 126.047s.865 4.42.582 8.447c0 0-1.211 1.227.097 3.216l-.109 2.15h18.91l-.109-2.15c1.308-1.989.097-3.216.097-3.216-.283-4.027.582-8.447.582-8.447l-.557-.417c.12-.221.425-1.583.425-1.583l-.369-4.535c-1.105.462-1.818-1.234-1.818-1.234H4.2s-.713 1.696-1.82 1.234l-.368 4.535s.304 1.362.425 1.583z" fill="#fff"/>
<path d="M11.906 135.105c2.609 0 4.731 1.452 4.731 3.237 0 1.784-2.122 3.237-4.73 3.237-2.61 0-4.732-1.453-4.732-3.237 0-1.785 2.123-3.237 4.731-3.237" fill="#fff"/>
<path d="M11.906 141.088c-2.301 0-4.247-1.258-4.247-2.746s1.946-2.746 4.247-2.746c2.302 0 4.247 1.258 4.247 2.746s-1.945 2.746-4.247 2.746m0 .982c2.881 0 5.216-1.67 5.216-3.728 0-2.059-2.335-3.728-5.216-3.728-2.88 0-5.215 1.67-5.215 3.728 0 2.058 2.335 3.728 5.215 3.728" fill="#deddde"/>
<path d="M20.598 123.899c-.14.604.065 1.123.344 1.519-.42 2.392-.012 10.93.041 11.922.195-.251.372-.656.468-.897a62.22 62.22 0 01-.04-1.655c.229.38.328.786.291 1.214-.042.493-.256.97-.533 1.397l-.04.058a7.5 7.5 0 01-.115.166l-.013.018a7.587 7.587 0 01-1.464 1.463c-.301.16-.6.348-.888.544h-.005l-.064.047c-.202.139-.397.282-.585.427l-.045.033h.002s-.45.326-.153.672c0 0-.085-.37.66-.672h3.245l-.03-.281c-.002-.02-.038-.38-.084-.977.07-.001.144 0 .214.006.034.003.066.01.098.015.044.017.077.053.034.13a.65.65 0 01-.19.221s.276-.028.437-.298c.162-.268-.17-.481-.55-.45-.021 0-.046.003-.07.004-.02-.288-.04-.613-.06-.97.29-.46.514-.975.562-1.52.059-.677-.165-1.305-.658-1.867 0-.1 0-.201.002-.303 0 0 .35-6.65.673-7.713l.042-.136-.12-.074c-.006-.004-.285-.184-.56-.482 0 0-.289-.262-.397-.578a1.333 1.333 0 01-.105-.869c.012-.028.147-.35.284-.765l.065.736a8.25 8.25 0 00-.18.644c.076.158.22.408.398.523.076-.373.162-.732.272-1.053l.018-.05-.315-3.558c.004.531-.353 1.687-.353 1.687-.118.727-.52 1.685-.533 1.722m.437 14.29c.008.134.017.263.026.384a3.05 3.05 0 00-.459.089c.141-.141.288-.3.433-.473m-1.711 1.46c.601-.367 1.218-.648 1.764-.714.024.298.045.543.062.713zm2.048-13.742c.127.118.244.21.326.269-.229.84-.412 3.046-.549 4.508-.012-1.157.023-3.408.223-4.777M2.85 119.89c.414-.154 1.42-.602 1.606-1.379h14.901c.186.777 1.191 1.225 1.604 1.379l.112 1.631c.249-.608.367-1.9.367-1.9l-.01-.11-.16-.05c-.374-.118-1.443-.592-1.443-1.203v-.254H3.985v.254c0 .611-1.068 1.085-1.443 1.203l-.16.05-.01.11s.119 1.292.367 1.9zM1.63 138.971c.16.27.435.298.435.298s-.104-.066-.19-.22c-.042-.078-.009-.114.035-.131.033-.006.064-.012.098-.015.07-.006.143-.007.214-.006-.045.597-.082.958-.084.977l-.03.281H5.353c.746.302.66.672.66.672.298-.346-.153-.672-.153-.672h.003l-.045-.033a13.716 13.716 0 00-.586-.427l-.063-.047h-.005a9.942 9.942 0 00-.888-.544 7.591 7.591 0 01-1.464-1.463l-.013-.018a5.255 5.255 0 01-.116-.166l-.04-.058c-.276-.427-.49-.904-.533-1.397a1.981 1.981 0 01.292-1.214c-.007.579-.021 1.137-.04 1.654.096.242.272.647.467.898.053-.992.462-9.53.042-11.922.28-.396.484-.915.344-1.52-.013-.036-.415-.994-.534-1.721 0 0-.357-1.156-.353-1.687l-.315 3.557.018.051c.11.321.197.68.273 1.053.178-.115.321-.365.399-.523a8.422 8.422 0 00-.182-.644l.066-.736c.137.415.272.737.284.765.072.317.013.61-.106.869-.107.316-.397.578-.397.578-.275.298-.554.478-.56.482l-.12.074.042.136c.323 1.063.674 7.713.674 7.713l.002.302c-.494.563-.718 1.19-.658 1.868.047.545.271 1.06.562 1.52-.02.357-.04.682-.06.97-.024-.002-.049-.004-.071-.004-.379-.032-.71.182-.55.45m1.149-.782c.144.172.292.332.433.473a3.108 3.108 0 00-.46-.09c.01-.12.018-.25.027-.383m-.054.746c.546.066 1.163.347 1.765.713H2.663c.016-.17.038-.415.061-.713m-.609-12.76c.081-.059.198-.15.326-.268.199 1.37.235 3.62.222 4.777-.137-1.462-.32-3.669-.548-4.508" fill="#231f20"/>
<path d="M17.554 140.99c-.026-.022-.397-.345.108-.835l.633-.507h-.59c.134-.4.204-.758.225-1.074.21.289.657.724 1.328.464-.153.044-.777.135-1.337-1.056l-.002.005c-.112-.944-.642-1.373-.642-1.373.55 1.096.423 2.07.244 2.657-.004.004-.115.161-.34.165.137-.349.214-.715.214-1.094 0-2.208-2.463-4.004-5.489-4.004s-5.488 1.796-5.488 4.004c0 .38.077.745.213 1.094a.435.435 0 01-.34-.165 3.538 3.538 0 01.244-2.657s-.53.43-.642 1.373l-.001-.005c-.561 1.191-1.184 1.1-1.337 1.056.67.26 1.118-.175 1.328-.464.021.316.09.674.224 1.074h-.59l.633.507c.506.49.135.813.109.835-.62.267-1.489.438-2.435.002 0 0 .378.568.954.722 0 0 .905-.334 1.38-.216 0 0 .788-1.013 1.53-.598.037.033.079.063.118.094l.03.024c-1.53.212-1.418 1.284-1.418 1.284.154-.47.77-.42.77-.42.135-.519.917-.44.925-.439.077.02.162.045.247.077l.072.033c.063.028.127.054.19.09.05.029.094.067.141.1.037.028.077.049.111.08.08.07.152.152.214.247l2.01.232-.015-.006h.004c.123.014.247.027.373.033a6.211 6.211 0 00.892 0c.126-.006.25-.019.374-.033h.004l-.016.006 2.01-.232c.247-.377.662-.548.974-.627 0 0 .79-.083.927.44 0 0 .615-.051.77.42 0 0 .11-1.073-1.418-1.285l.03-.024c.039-.031.08-.061.118-.094.742-.415 1.53.598 1.53.598.474-.118 1.38.216 1.38.216.575-.154.954-.722.954-.722-.947.436-1.814.265-2.435-.002m-5.648-6.1c2.726 0 4.943 1.55 4.943 3.452 0 .463-.133.904-.37 1.307-.048.08-.102.159-.158.236l-.018.027a3.876 3.876 0 01-.199.243 4.346 4.346 0 01-1.274.963c-.147.076-.3.146-.459.21l-.04.018c-.175.07-.355.13-.542.185-.01.004-.023.006-.034.01a6.524 6.524 0 01-1.086.207c-.056.005-.112.013-.169.018a7.212 7.212 0 01-.594.027c-.201 0-.399-.01-.593-.027-.058-.005-.113-.013-.17-.018a6.73 6.73 0 01-1.086-.208c-.011-.003-.023-.005-.034-.009a6.15 6.15 0 01-.541-.185l-.041-.017a5.445 5.445 0 01-.459-.211l-.055-.03a4.359 4.359 0 01-1.219-.933 3.737 3.737 0 01-.198-.243l-.018-.027a2.87 2.87 0 01-.158-.236 2.559 2.559 0 01-.37-1.307c0-1.903 2.217-3.451 4.942-3.451m-5.24 5.894a1.001 1.001 0 00-.195-.63h.548c.06.084.123.166.19.247l-.006.003s-.2.184-.538.38m10.482 0c-.338-.196-.538-.38-.538-.38l-.005-.003c.067-.081.13-.163.19-.247h.548a.997.997 0 00-.195.63" fill="#231f20"/>
</g>
<g>
<path d="M1.882 154.033s.864 4.386.58 8.383c0 0-1.21 1.218.098 3.192l-.109 2.133h18.91l-.109-2.133c1.308-1.974.097-3.192.097-3.192-.283-3.997.582-8.383.582-8.383l-.557-.414c.12-.22.425-1.571.425-1.571l-.369-4.502c-1.105.459-1.818-1.224-1.818-1.224H4.2s-.713 1.683-1.82 1.224l-.368 4.502s.305 1.351.426 1.57z" fill="#fff"/>
<path d="M11.906 163.023c2.609 0 4.731 1.44 4.731 3.212 0 1.771-2.122 3.213-4.73 3.213-2.61 0-4.732-1.442-4.732-3.213 0-1.772 2.123-3.212 4.731-3.212" fill="#fff"/>
<path d="M11.906 168.96c-2.301 0-4.246-1.248-4.246-2.725s1.945-2.725 4.246-2.725c2.302 0 4.247 1.248 4.247 2.725s-1.945 2.725-4.247 2.725m0 .975c2.881 0 5.216-1.657 5.216-3.7s-2.335-3.7-5.216-3.7c-2.88 0-5.215 1.657-5.215 3.7s2.335 3.7 5.215 3.7" fill="#deddde"/>
<path d="M17.663 168.034l.632-.503h-.59a4.26 4.26 0 00.225-1.067c.21.287.657.72 1.327.461-.152.044-.776.135-1.336-1.047l-.002.005c-.112-.937-.642-1.363-.642-1.363a3.484 3.484 0 01.244 2.637c-.003.004-.115.16-.34.164.136-.346.213-.71.213-1.086 0-2.192-2.462-3.974-5.488-3.974-3.026 0-5.488 1.782-5.488 3.974 0 .376.078.74.214 1.086-.226-.004-.337-.16-.34-.164a3.486 3.486 0 01.243-2.637s-.53.426-.642 1.363l-.001-.005c-.56 1.182-1.185 1.091-1.337 1.047.67.259 1.118-.174 1.327-.46.022.314.092.669.225 1.066h-.59l.633.503h.001s.695.479.54 1.422c0 0-.108.31.165.355.257.042.564-.558-.269-1.777h.432c.123.174.262.34.417.497l-.002.004.023.035c.886 1.327.148 1.542.145 1.542a.12.12 0 00-.064.178c.138.227.99.14.627-.962.305.084.69.251.923.607l2.01.23-.015-.006c.269.03.543.05.823.05.281 0 .555-.02.824-.05l-.016.007 2.01-.231c.235-.356.62-.524.925-.607-.364 1.101.488 1.19.627.962.039-.064.011-.154-.065-.178-.002 0-.74-.215.146-1.542l.022-.035-.002-.004c.155-.157.293-.323.416-.497h.434c-.834 1.219-.526 1.82-.269 1.777.272-.045.164-.355.164-.355-.155-.943.54-1.422.54-1.422m-5.756 1.626c-1.772 0-3.325-.653-4.198-1.626a3.846 3.846 0 01-.198-.241l-.018-.027a2.69 2.69 0 01-.158-.234c-.238-.4-.37-.838-.37-1.297 0-1.888 2.217-3.425 4.942-3.425 2.726 0 4.943 1.537 4.943 3.425 0 .459-.133.897-.37 1.297-.048.08-.102.158-.158.234l-.019.027a3.708 3.708 0 01-.198.241c-.872.973-2.425 1.626-4.198 1.626m8.692-17.76c-.14.6.065 1.115.344 1.508-.42 2.375-.011 10.848.041 11.832.195-.249.372-.651.468-.89a61.21 61.21 0 01-.04-1.643c.228.378.329.78.292 1.206-.043.49-.257.963-.534 1.386l-.04.058c-.037.055-.076.11-.115.164l-.014.018v.001a7.552 7.552 0 01-1.463 1.45c-.301.16-.599.346-.889.541h-.004l-.064.047c-.106.073-.207.149-.31.224l-.006-.002a2.51 2.51 0 00-.3.223l-.015.011h.002c-.628.557-.4 1.075-.22 1.136.204.068.272-.22.272-.22-.014-.452.301-.753.539-.916h3.162l-.03-.279c-.002-.019-.038-.377-.084-.97.071 0 .144.001.214.007.035.003.066.009.098.015.044.017.078.052.035.13-.085.152-.19.218-.19.218s.275-.028.436-.296c.161-.266-.17-.478-.55-.447v.001c-.021 0-.046.002-.07.004-.02-.286-.04-.61-.06-.964.29-.455.514-.967.561-1.507.06-.673-.164-1.296-.657-1.854l.001-.3s.352-6.6.674-7.655l.043-.135-.12-.074a3.183 3.183 0 01-.56-.478s-.29-.26-.398-.574a1.314 1.314 0 01-.105-.862c.012-.028.146-.348.284-.76l.065.731a8.103 8.103 0 00-.18.64c.076.156.22.405.398.518.076-.37.162-.726.272-1.045l.018-.05-.315-3.531c.005.528-.353 1.674-.353 1.674-.118.722-.52 1.673-.533 1.71m.437 14.183c.008.132.017.26.026.38-.15.018-.303.046-.46.088.142-.14.289-.298.434-.468m-1.711 1.447c.601-.364 1.218-.642 1.764-.708.024.297.045.539.061.708zm2.048-13.638c.127.117.244.208.325.267-.228.834-.41 3.023-.548 4.475-.013-1.149.024-3.382.223-4.742M2.74 149.541c-.25-.604-.367-1.887-.367-1.887l.01-.108.159-.05c.375-.117 1.443-.587 1.443-1.194v-.252h15.842v.252c0 .607 1.069 1.077 1.444 1.194l.16.05.009.108s-.119 1.283-.367 1.887l-.111-1.62c-.414-.152-1.419-.597-1.605-1.368H4.456c-.187.77-1.192 1.216-1.605 1.368zm-1.11 17.318a.626.626 0 00.436.296s-.105-.066-.19-.219c-.043-.077-.01-.112.035-.13l.096-.014h.001c.07-.006.144-.007.214-.007-.045.593-.082.951-.084.97l-.03.28H5.273c.238.162.552.463.538.916 0 0 .069.287.273.219.18-.06.407-.579-.221-1.136l-.005-.004a2.416 2.416 0 00-.308-.23l-.006.002c-.104-.075-.204-.151-.31-.224l-.064-.047h-.005a9.687 9.687 0 00-.888-.54 7.549 7.549 0 01-1.464-1.451l-.013-.02a5.961 5.961 0 01-.116-.163l-.04-.058c-.277-.423-.49-.896-.533-1.386a1.956 1.956 0 01.292-1.206c-.007.575-.02 1.13-.04 1.643.095.239.272.641.467.89.053-.984.462-9.457.042-11.832.279-.393.484-.909.344-1.508-.013-.036-.415-.987-.534-1.709 0 0-.357-1.146-.353-1.674l-.314 3.53.017.051c.11.319.197.675.273 1.045.179-.113.322-.362.398-.519a8.274 8.274 0 00-.18-.639l.065-.73c.137.411.272.731.284.759.072.314.013.605-.106.862-.107.314-.396.574-.396.574-.275.296-.555.474-.56.478l-.12.074.041.135c.323 1.054.674 7.655.674 7.655l.002.3c-.493.558-.717 1.18-.658 1.854.048.54.272 1.052.562 1.507-.02.355-.041.678-.06.964-.024-.002-.05-.004-.071-.004-.379-.032-.711.18-.55.446m1.149-.775c.145.17.292.328.433.468a3.247 3.247 0 00-.46-.089c.01-.119.018-.247.027-.38m-.054.74c.546.066 1.163.344 1.765.708H2.663c.016-.17.038-.411.061-.708m-.609-12.663c.082-.059.198-.15.326-.267.199 1.36.235 3.593.223 4.742-.138-1.452-.32-3.641-.549-4.475" fill="#231f20"/>
</g>
</svg>
