<svg width="60" height="136" viewBox="0 0 15.875 35.983" xmlns="http://www.w3.org/2000/svg">
  <path d="M2.4.219c-.181.75-.788 1.135-1.517 1.416L.459 5.361l.409 1.455-.703.573c.426 2.975.747 4.81.93 7.785l-.04 7.007c-.29 2.15-.506 4.312-.886 6.43l.74.56-.446 1.425.277 3.802c.24.02 1.496.464 1.61 1.385l11.036-.029c.101-.73 1.284-1.173 1.594-1.45l.408-3.72-.38-1.316.733-.672c-.423-2.004-.543-2.82-.796-4.893l-.096-8.872c.14-2.73.508-4.687.813-7.422l-.574-.574.322-1.436-.393-3.753c-.396-.208-1.202-.316-1.583-1.396z" fill="#fff" stroke="#fff" stroke-width=".063"/>
  <path d="M15.056 21.758v-6.116c.11-1.807.376-6.877.789-8.224l.03-.098-.086-.053a3.076 3.076 0 01-.527-.445c.085-.487.195-.947.335-1.353l.017-.05-.355-3.98-.154-.047c-.36-.113-1.389-.565-1.389-1.15V0H2.16v.242c0 .585-1.003 1.028-1.389 1.15l-.154.048-.355 3.98.017.049c.14.405.25.864.334 1.35-.261.279-.52.444-.526.448L0 7.32l.03.097c.412 1.345.678 6.407.789 8.216v6.117c-.11 1.807-.377 5.468-.79 6.815L0 28.664l.086.054c.006.003.265.168.527.444a8.873 8.873 0 01-.335 1.354l-.017.049.355 3.98.154.047c.386.122 1.389.565 1.389 1.15v.242h11.557v-.242c0-.585 1.003-1.028 1.39-1.15l.153-.047.355-3.98-.017-.05a8.913 8.913 0 01-.334-1.35c.26-.278.52-.444.526-.447l.086-.054-.03-.098c-.412-1.345-.679-4.998-.79-6.808m-.548 8.96c.002.005.064.152.146.37a4.171 4.171 0 01-.19 1.758c-.423 1.24-1.454 2.149-2.99 2.654H4.39c-3.298-1.08-3.262-3.638-3.171-4.403.085-.23.152-.389.156-.4.127-.545-.05-1.016-.3-1.382.483-2.666.237-6.061.225-6.214V12.9c.012-.168.259-3.57-.226-6.236.249-.37.424-.845.294-1.399a10.394 10.394 0 01-.146-.37 4.172 4.172 0 01.19-1.758C1.836 1.898 2.867.99 4.403.485h7.083c3.297 1.08 3.261 3.638 3.17 4.402-.084.23-.15.389-.155.4-.127.545.05 1.017.3 1.382-.484 2.667-.238 6.061-.225 6.214v10.2c-.013.168-.26 3.57.226 6.237-.249.369-.424.845-.294 1.398m1.06-23.283c-.245.87-.436 2.487-.572 4.027-.026-1.152-.009-2.83.215-4.319.144.135.275.235.356.292M14.75 5.37c.012-.029.162-.384.303-.823l.073.813a8.705 8.705 0 00-.25.927 1.334 1.334 0 01-.126-.917m.059-3.569l.177 1.992c-.035.172-.083.35-.136.523a4.262 4.262 0 00-.222-1.234c-.288-.848-.985-1.923-2.636-2.597h1.273c.179.74 1.146 1.17 1.544 1.316M2.611.485h1.271c-2.38.972-2.815 2.796-2.85 3.849a6.091 6.091 0 01-.143-.54L1.067 1.8c.398-.147 1.365-.575 1.544-1.316M.75 5.36l.072-.813c.14.435.288.783.297.801.08.343.011.658-.122.93A8.608 8.608 0 00.75 5.36M.665 7.142c.223 1.487.24 3.164.215 4.32C.743 9.921.553 8.304.308 7.434c.082-.057.213-.157.357-.293M.308 28.55c.245-.87.435-2.487.572-4.027.025 1.152.008 2.83-.215 4.319a3.316 3.316 0 00-.357-.292m.818 2.065c-.012.03-.162.384-.304.824l-.072-.813a8.6 8.6 0 00.249-.927c.135.268.206.579.127.916m-.06 3.57L.89 32.19a6.37 6.37 0 01.136-.522c.012.347.067.776.222 1.233.288.85.986 1.923 2.637 2.598H2.611c-.179-.742-1.146-1.17-1.544-1.317M13.264 35.5h-1.272c2.381-.972 2.816-2.796 2.852-3.85.054.178.104.363.141.54l-.177 1.993c-.398.147-1.365.575-1.544 1.317m1.86-4.875l-.072.813a9.648 9.648 0 00-.296-.802 1.364 1.364 0 01.122-.929c.07.323.15.632.247.918m.085-1.783c-.223-1.487-.24-3.163-.215-4.319.137 1.54.327 3.156.571 4.026a3.348 3.348 0 00-.356.293" fill="#231f20"/>
</svg>
