
<?xml version="1.0" encoding="UTF-8"?>
<svg width="230.19mm" height="38.894mm" version="1.1" viewBox="0 0 230.1875 38.893749" xmlns="http://www.w3.org/2000/svg" xmlns:cc="http://creativecommons.org/ns#" xmlns:dc="http://purl.org/dc/elements/1.1/" xmlns:rdf="http://www.w3.org/1999/02/22-rdf-syntax-ns#">
<defs>
<clipPath id="b">
<path d="m111.56 748h144v15.484h-144z"/>
</clipPath>
<clipPath id="a">
<path d="m0 0h612v792h-612z"/>
</clipPath>
</defs>
<metadata>
<rdf:RDF>
<cc:Work rdf:about="">
<dc:format>image/svg+xml</dc:format>
<dc:type rdf:resource="http://purl.org/dc/dcmitype/StillImage"/>
<dc:title/>
</cc:Work>
</rdf:RDF>
</metadata>
<g transform="translate(-.27808 -28.083)">
<g transform="matrix(1.1107 0 0 1.1141 -.030796 -7.6424)">
<g transform="matrix(.35278 0 0 -.35278 30.012 46.879)">
<path d="m0 0 23.255-1.74-23.255-1.739-23.252 1.739zm139.2-6.519 23.254-1.739 23.256 1.739-23.256 1.74zm114.29 16.991 22.286 1.666-27.48 2.055 42.048 3.143-37.447 2.801 51.877 3.877-88.338 6.608 23.736 1.773-43.337 3.242-38.505-2.88-17.318 2.255 42.488 3.174-34.049 2.547-23.73-1.773-27.549 2.06-25.751-1.927 26.164-1.958-28.828-2.156-28.823 2.156 16.707 1.25-19.96 1.493-63.818-4.771 22.614-1.691-71.71-5.36 42.231-3.158-22.286-1.666 27.478-2.055-42.046-3.142 37.445-2.802-51.877-3.877 71.294-5.333-32.644-2.442 34.46-2.575 8.912 0.666 25.916-1.939 38.506 2.88 17.299-2.252-44.872-3.356 61.598-4.604 13.469 1.006-24.247 1.814 34.625 2.59 24.268-1.815 15.887 1.188 22.622-1.691 63.818 4.77-22.612 1.691 71.709 5.359z" fill="#deddde"/>
</g>
<g transform="matrix(.35278 0 0 -.35278 64.84 64.61)">
<path d="m0 0 18.891-1.413-18.891-1.413-18.888 1.413zm113.07-5.295 18.89-1.413 18.891 1.413-18.891 1.413zm92.841 13.801 18.103 1.354-22.322 1.669 34.156 2.553-30.419 2.275 42.14 3.15-71.757 5.367 19.281 1.441-35.203 2.633-31.278-2.339-14.067 1.831 34.513 2.579-27.659 2.069l-19.275-1.441-22.379 1.674-20.917-1.565 21.252-1.591-23.416-1.751-23.413 1.751 13.571 1.015-16.214 1.213-51.839-3.875 18.369-1.374-58.251-4.354 34.305-2.565-18.103-1.353 22.321-1.67-34.155-2.552 30.417-2.276-42.14-3.15 57.912-4.331-26.516-1.984 27.992-2.092 7.239 0.541 21.052-1.575 31.278 2.34 14.052-1.83-36.449-2.726 50.036-3.74 10.941 0.818-19.696 1.473 28.126 2.104 19.713-1.474 12.905 0.964 18.376-1.373 51.84 3.875-18.368 1.373 58.25 4.354z" fill="#deddde"/>
</g>
<g transform="matrix(.35278 0 0 -.35278 135.48 47.855)">
<path d="m0 0 15.58-1.166-15.58-1.164-15.578 1.164zm93.256-4.367 15.579-1.165 15.58 1.165-15.58 1.166zm76.57 11.383 14.93 1.116-18.41 1.376 28.17 2.106-25.087 1.877 34.754 2.597-59.181 4.427 15.902 1.188-29.034 2.172-25.796-1.929-11.602 1.51 28.465 2.127-22.812 1.706-15.897-1.188-18.457 1.38-17.252-1.291 17.529-1.312-19.313-1.444-19.31 1.444 11.193 0.838-13.372 1-42.755-3.196 15.15-1.133-48.042-3.591 28.293-2.116-14.931-1.116 18.409-1.376-28.168-2.106 25.086-1.877-34.755-2.597 47.763-3.573-21.869-1.636 23.086-1.725 5.97 0.446 17.363-1.299 25.796 1.93 11.59-1.509-30.062-2.249 41.268-3.084 9.023 0.674-16.245 1.216 23.197 1.735 16.259-1.216 10.643 0.795 15.156-1.133 42.754 3.196-15.148 1.133 48.041 3.591z" fill="#deddde"/>
</g>
<g transform="matrix(.35278 0 0 -.35278 27.972 33.82)">
<path d="m0 0c-0.431-2.8 0.22-6.34 0.22-6.34s-2.05 1.5-4.29 2.77c-1.33 0.75-2.46 2.42-3.161 3.65-0.479 0.85-0.759 1.48-0.759 1.48-3.111-3.34-1.101-7.27-1.101-7.27-4.849 1.06-7.88-0.19-7.88-0.19 9.181-6.01 4.301-6.5-1-9.01-5.29-2.51-5.679-5.63-5.679-5.63 6.33 2.08 8.849-0.58 8.849-0.58-3.409-3.26-0.369-8.35-0.369-8.35 3.31-6.34 11.51-9.04 18.85-10.15 7.269-1.11 13.7-0.67 13.7-0.67l-16.721-5.2-15.019-3.79s-14.911 1.6-20.39 14.22c-5.471 12.63 4.09 22.57 3.13 23.22-0.91 0.62-2.07-0.76-2.191-0.91 4.161 11.91 16.691 11.78 17.191 13.04 0.51 1.27-2.471 1.35-2.471 1.35 12.671 4.17 19.091-1.64 19.091-1.64" fill="#231f20"/>
</g>
<g transform="matrix(.35278 0 0 -.35278 199.84 45.831)">
<path d="m0 0v-38.142c14.567 0.085 16.462 0 18.946 3.228v37.5c-4.659-2.474-9.473-2.549-18.946-2.586" fill="#fff"/>
</g>
<g transform="matrix(.35278 0 0 -.35278 199.84 45.831)">
<path d="m0 0v-38.142c14.567 0.085 16.462 0 18.946 3.228v37.5c-4.659-2.474-9.473-2.549-18.946-2.586z" fill="none" stroke="#231f20" stroke-miterlimit="10" stroke-width="1.375"/>
</g>
<g transform="matrix(.35278 0 0 -.35278 199.63 46.831)">
<path d="m0 0c16.235 0.054 17.687 1.176 19.157 2.303m-18.554-34.496c19.602-2.231 17.932 3.579 18.804 3.754" fill="none" stroke="#231f20" stroke-miterlimit="10" stroke-width=".75"/>
</g>
<g transform="matrix(.35278 0 0 -.35278 66.975 56.748)">
<path d="m0 0c-4e-3 -0.014-0.015-0.023-0.019-0.036-0.088-0.307-0.036-0.636 0.143-0.901 0.218-0.324 5.426-7.942 12.223-7.942 1.513 0 2.994 0.383 4.469 1.177 0.591 0.375 1.159 0.755 1.649 1.098 3.578 2.192 7.058 5.399 8.319 6.604z" fill="#fff"/>
</g>
<g transform="matrix(.35278 0 0 -.35278 7.9864 48.199)">
<path d="m0 0v-37.5l35.5 4.639v37.501z" fill="#fff"/>
</g>
<g transform="matrix(.35278 0 0 -.35278 7.9864 48.199)">
<path d="m0 0v-37.5l35.5 4.639v37.5z" fill="none" stroke="#231f20" stroke-miterlimit="10" stroke-width="1.375"/>
</g>
<g transform="matrix(.35278 0 0 -.35278 8.2603 60.446)">
<path d="M 0,0 34.724,4.925 M 0,32.207 34.724,36.625" fill="none" stroke="#231f20" stroke-miterlimit="10" stroke-width=".75"/>
</g>
<g transform="matrix(.35278 0 0 -.35278 20.51 46.562)">
<path d="m0 0-24.219 3.583v-37.5l24.219-3.583z" fill="#c1c0c2"/>
</g>
<g transform="matrix(.35278 0 0 -.35278 20.51 46.562)">
<path d="m0 0-24.219 3.583v-37.5l24.219-3.583z" fill="none" stroke="#231f20" stroke-miterlimit="10" stroke-width="1.375"/>
</g>
<g transform="matrix(.35278 0 0 -.35278 -2.7407 305.88)">
<g clip-path="url(#a)">
<g transform="translate(260.73 701.15)">
<path d="m0 0c-61.753-11.25-157.29 11.25-219.04 0v37.5c61.753 11.25 157.29-11.25 219.04 0z" fill="#fff"/>
</g>
<g transform="translate(260.73 701.15)">
<path d="m0 0c-61.753-11.25-157.29 11.25-219.04 0v37.5c61.753 11.25 157.29-11.25 219.04 0z" fill="none" stroke="#231f20" stroke-miterlimit="10" stroke-width="1.375"/>
</g>
<g transform="translate(261.61 704.77)">
<path d="m0 0s-20.5-8.666-114.67-0.333c-66.51 5.886-99.718 0.727-104.86-0.173m218.64 31.461s-19.872-8.038-114.04 0.295c-66.51 5.886-99.718 0.726-104.86-0.173" fill="none" stroke="#231f20" stroke-miterlimit="10" stroke-width=".75"/>
</g>
</g>
</g>
<path d="m199.94 62.623h-110.73v-21.393h110.73z" fill="#fff"/>
<path d="m199.94 62.623h-110.73v-21.393h110.73z" fill="none" stroke="#231f20" stroke-miterlimit="10" stroke-width=".44097"/>
<g transform="matrix(.35278 0 0 -.35278 88.465 39.004)">
<path d="m0 0-1e-3 -73.258c1.048 2.516 2.098 3.565 2.098 3.565l1e-3 66.129s-1.05 1.046-2.098 3.564" fill="#fff"/>
</g>
<g transform="matrix(.35278 0 0 -.35278 88.465 39.004)">
<path d="m0 0-1e-3 -73.258c1.048 2.516 2.098 3.565 2.098 3.565l1e-3 66.129s-1.05 1.046-2.098 3.564z" fill="none" stroke="#231f20" stroke-miterlimit="10" stroke-width="1.25"/>
</g>
<g transform="matrix(.35278 0 0 -.35278 89.205 44.012)">
<path d="m0 0s1.067 10.333 8.401 10.333h22s7.166-2.445 20.5-2.445m-50.902-52.754s1.067-10.333 8.401-10.333h22s7.166 2.445 20.5 2.445" fill="none" stroke="#231f20" stroke-miterlimit="10" stroke-width="1.25"/>
</g>
<g transform="matrix(.35278 0 0 -.35278 200.68 39.004)">
<path d="m0 0 1e-3 -73.258c-1.048 2.516-2.098 3.565-2.098 3.565l-1e-3 66.129s1.05 1.046 2.098 3.564" fill="#fff"/>
</g>
<path d="m200.68 39.004 2.6e-4 25.844c-0.36971-0.88759-0.74012-1.2577-0.74012-1.2577l-2.7e-4 -23.329s0.37042-0.36901 0.74013-1.2573z" fill="none" stroke="#231f20" stroke-miterlimit="10" stroke-width=".44097"/>
<g transform="matrix(.35278 0 0 -.35278 199.94 44.012)">
<path d="m0 0s-1.067 10.333-8.401 10.333h-22s-7.166-2.445-20.5-2.445m50.902-52.754s-1.067-10.333-8.401-10.333h-22s-7.166 2.445-20.5 2.445" fill="none" stroke="#231f20" stroke-miterlimit="10" stroke-width="1.25"/>
</g>
<g transform="matrix(.35278 0 0 -.35278 192.21 41.23)">
<path d="m0 0c-5.202-0.907-11.465-1.923-17.206-1.923h-235.68c-5.741 0-12.004 1.016-17.206 1.923m0-60.641c5.202 0.908 11.465 1.923 17.206 1.923h235.68c5.741 0 12.004-1.015 17.206-1.923" fill="none" stroke="#231f20" stroke-miterlimit="10" stroke-width=".75"/>
</g>
<g transform="matrix(.35278 0 0 -.35278 32.438 39.411)">
<path d="m0 0c3.391-1.37 4.29-4.66 4.29-4.66-2.849 0.08-3.689 2.28-4.29 4.66" fill="#fff"/>
</g>
<g transform="matrix(.35278 0 0 -.35278 87.579 60.303)">
<path d="m0 0c-0.64 3.468-3.087 9.124-7.827 12.106-3.917 2.459-7.339 1.927-7.355 3.149-0.029 1.554 4.362 1.073 4.362 1.073-4.735 2.712-11.527-0.607-12.498 0.946-0.573 0.931 3.161 2.238 3.161 2.238-5.776 0.212-12.592-2.765-15.326-5.466 6.89 2.313 16.593 0.983 21.05-2.825-1.887 1.06-3.933 1.768-6.033 2.188-7.819 1.572-16.523-0.755-21.763-2.935-5.914-2.003-10.425-4.961-10.425-4.961-3.904-2.269-11.114-4.384-16.003-2.315l-1e-3 -0.01s7.654-12.749 17.059-8.314c0.691 0.384 1.352 0.78 1.973 1.168 5.134 2.785 10.304 7.431 10.304 7.431 1.798 1.257 7.334 4.862 13.999 6.876 1.485 0.443 2.992 0.535 4.424 0.329 3.717-0.505 6.957-2.888 8.02-5.737 2.87 0.5 10.145-1.904 12.879-4.941" fill="#231f20"/>
</g>
<g transform="matrix(.35278 0 0 -.35278 33.952 41.055)">
<path d="m0 0s-0.899 3.29-4.29 4.66c0.601-2.38 1.44-4.58 4.29-4.66m-10.92-8.8c-0.79 4.26-6.67 4.99-9.699 3.03 1.05 2.82 4 5.38 6.279 6.19-1.3 0.5-2.83 0.93-4.479 1.29 1.939 1.48 6.71 2.6 9.13 2.39-0.441 0.13-0.92 0.23-1.441 0.3l0.46 2.77c-0.269 2.32-2.37 4.98-4.87 6.58-1.239 3.55-0.029 10.01 1.681 11.73-0.861-9.29 12.259-15.03 14.809-21.88-1.439 5.85-7.51 9.71-10.349 13.27-0.901 2.34-0.031 6.21 1.059 7.52-0.5-6.23 6.08-11.31 9.57-14.91 4.121-4.23 5.21-7.9 4.541-10.85 0.919-0.28 2.169-1.22 1.91-2.74 1.359 0.27 2.79 1.78 3.149 2.73 0.53-4.66-2.35-9.47-5.439-10.84 0 0 0.889 2.18-0.46 3.92-1.321 1.71-5.21 1.85-6.531 1.8 0 0 1.691 2.34 1.08 3.57-0.74 1.53-8.379 1.1-11.83-0.03 1.17 0.09 3.911-0.3 4.85-0.73-0.56-0.78-2.06-4.09-1.079-5.13 0.829-0.89 2 0.43 2.149 0.6-0.11-0.32-1.259-3.66-0.469-4.5 0.82-0.88 2.67-0.33 2.67-0.33-1.231-2.84-5.72-4.69-8.821-4.59 1.12 0.31 3.01 2.22 3.321 3.4-0.831-0.38-2.951-0.55-3.76-0.37 1.01 0.38 3.099 2.89 2.569 5.81" fill="#231f20"/>
</g>
<g transform="matrix(.35278 0 0 -.35278 24.328 38)">
<path d="m0 0c0.51 1.8-2.99 5.01-4.311 5.63 4.941 0.05 7.371-0.95 7.371-0.95-1.23 1.93-1.56 4.85-0.75 7.13 2.49-6.53 12.08-7.87 14.299-13.3l-0.46-2.77c-3.79 0.49-9.379-0.64-12.199-3.77 0.98-0.03 3.51-0.58 4.489-0.93-4.269-0.64-10.149-4.4-11.91-6.21 0.521 2.44 1.271 4.49 0.741 5.98-0.75 2.1-3.25 3.06-8.3 2.17 3.49 3.29 10.5 5.18 11.03 7.02" fill="#231f20"/>
</g>
<g transform="matrix(.35278 0 0 -.35278 14.44 43.827)">
<path d="m0 0 1.019-2.22c-1.369-0.23-2.909-5.64-2.909-5.64-3.49 2.02-0.55 8.48-0.55 8.48z" fill="#231f20"/>
</g>
<g transform="matrix(.35278 0 0 -.35278 11.751 43.502)">
<path d="m0 0s1.82 1.31 2.78 1.55l1.59-1.41-0.82-0.25s-1.529-5-0.91-7.07l1-2.9s-3.26 0.65-3.76 1.9c0 0-1.05 5.63 0.12 8.18" fill="#231f20"/>
</g>
<g transform="matrix(.35278 0 0 -.35278 11.102 44.25)">
<path d="m0 0s0.21-6.42 0.87-6.99l2.42-1.03 0.07-2.19s-4.32 1.37-4.68 3.02-0.64 5.75-0.64 5.75 0.72 1.07 1.96 1.44" fill="#231f20"/>
</g>
<g transform="matrix(.35278 0 0 -.35278 -2.7407 305.88)">
<g clip-path="url(#b)">
<g transform="translate(253.35 757.91)">
<path d="m0 0c0.386 0 0.386-0.567 0-0.567h-0.526v0.567zm0.379-0.996c0.902 0.204 0.717 1.583-0.379 1.583h-1.182v-2.481h0.656v0.771h0.23l0.59-0.771h0.704v0.143zm-0.587-1.596c1.169 0 1.827 0.854 1.827 1.938 0 1.079-0.658 1.933-1.827 1.933-1.162 0-1.82-0.854-1.826-1.933 6e-3 -1.084 0.664-1.938 1.826-1.938m2.414 1.938c0-1.322-0.868-2.437-2.413-2.437-1.54 0-2.408 1.115-2.408 2.437 0 1.319 0.868 2.431 2.408 2.431 1.545 0 2.413-1.112 2.413-2.431" fill="#231f20"/>
</g>
<g transform="translate(180.77 759.13)">
<path d="m0 0c-0.033 0.258-0.015 0.523 0.061 0.761l0.336 1.047 0.422-1.014c0.123-0.295 0.382-0.51 0.689-0.706-0.027 0.487 0.06 1.028 0.234 1.4-0.036 0.785 0.507 1.372 1.155 1.372 1.109 0 1.406-1.342 0.891-2.303 0.239-0.36 0.603-0.694 0.925-0.984 0.115-0.104 0.224-0.202 0.32-0.294 0.03-0.031 0.046-0.058 0.076-0.088 0.482 0.653 0.835 1.563 0.835 2.251 0 1.426-0.927 2.749-2.855 2.853-1.223 0.065-2.049-0.312-2.664-0.939-0.278-0.285-0.897-1.003-0.779-2.303 0.045-0.49 0.209-0.832 0.354-1.053m5.169-6.596c-0.441-0.747-1.365-1.712-2.305-1.712-1.733 0-2.602 2.448-0.67 4.456-0.109 0.035-0.215 0.04-0.252 0.04-0.163 0-0.323-0.043-0.428-0.115l-0.855-0.734 0.241 1.195c0.015 0.041 0.03 0.081 0.047 0.121-0.429-0.218-0.845-0.519-1.005-0.693l-0.774-0.843 0.078 1.189 0.053 0.262c0.04 0.185 0.088 0.416 0.059 0.491-0.01 0.023-0.028 0.041-0.05 0.057-0.359-0.277-1.335-1.139-1.45-2.42 0 0 0.19 0.269 0.356 0.332 0.109 0.042 0.204-0.012 0.1-0.332-0.04-0.125-0.99-2.694 0.877-4.472 0 0-0.205 0.521-0.081 0.681 0.06 0.076 0.138 0.083 0.248-0.055 0.079-0.107 0.162-0.209 0.253-0.309v-2e-3l1e-3 1e-3c0.154-0.176 0.324-0.342 0.509-0.485 0.558-0.39 1.317-0.705 2.18-0.705 2.299 0 3.518 1.575 4.198 2.908-0.031 0.038-0.054 0.077-0.096 0.114-0.348 0.306-0.852 0.724-1.234 1.03m5.222 4.555c-1.718-0.083-3.19-1.539-3.952-2.569 0.136-0.046 0.273-0.109 0.409-0.217 0.159-0.128 0.392-0.318 0.643-0.526 0.204 0.45 0.663 1.36 1.367 2.167 0.643 0.736 1.763 0.807 2.35 0.358 0.378 0.343 1.682 0.664 2.369 0.469-0.417 0.455-1.307 1.065-2.289 1.065-0.81 0-1.268-0.398-1.385-0.219-0.149 0.228 0.548 0.567 0.548 0.567-0.957-0.04-1.652-1.164-1.942-1.026-0.173 0.084 0.258 0.628 0.258 0.628-0.875-0.508-1.608-1.585-1.76-2.24 0.805 0.985 2.368 1.692 3.384 1.543m35.351-4.702c-0.06 0.094-0.097 0.176-0.097 0.503v2.151c0 0.325 0.029 0.386 0.091 0.483 0.067 0.107 0.184 0.265 0.185 0.266l0.04 0.053-0.059 0.031c-7e-3 4e-3 -0.156 0.082-0.322 0.099v-3e-3c-0.044 3e-3 -3.395 3e-3 -3.395 3e-3l0.171-0.105s0.5-0.304 0.724-0.445c0.218-0.137 0.33-0.293 0.33-0.768v-1.171c-0.253-0.08-0.512-0.117-0.821-0.117-1.368 0-2.061 0.74-2.061 2.195 0 1.388 0.759 2.183 2.083 2.183 0.83 0 1.703-0.189 2.765-0.99l-5e-3 0.057-0.244 2.307-0.019 0.17-0.165 0.039-0.162 0.038c-0.71 0.164-0.987 0.207-1.408 0.261-0.249 0.03-0.385 0.045-0.698 0.045 0 0-0.088 1e-3 -0.134 1e-3 -2.495 0-4.308-1.746-4.308-4.152 0-2.368 1.822-4.088 4.331-4.088 0.439 0 1.284 0.081 1.816 0.192 0.101 0.021 0.159 0.037 0.238 0.056 0.017 4e-3 0.034 7e-3 0.052 0.011 0.3 0.072 0.605 0.149 0.914 0.243l0.39 0.121-0.046 0.064c-2e-3 2e-3 -0.118 0.159-0.186 0.267m18.333 7.168h-4.519l0.17-0.103c4e-3 -3e-3 0.436-0.269 0.702-0.443 0.241-0.161 0.332-0.27 0.332-0.787v-1.931l-3.336 3.265v-1e-3h-2.653l0.158-0.102c4e-3 -3e-3 0.41-0.268 0.644-0.438 0.231-0.169 0.341-0.34 0.341-0.858v-5.255c0-0.515-0.093-0.624-0.324-0.767-0.254-0.156-0.75-0.443-0.756-0.445l-0.18-0.105h4.53l-0.181 0.105c-5e-3 3e-3 -0.508 0.292-0.751 0.445-0.227 0.143-0.326 0.26-0.326 0.767v3.17l4.845-4.744v6.894c0 0.514 0.086 0.619 0.332 0.787 0.268 0.182 0.761 0.438 0.767 0.441zm-29.056-4.683-0.719 1.96-0.781-1.96zm-7.413 2.41c0 0.408-0.266 0.681-1.034 0.684l-0.267-2e-3v-1.858c0.112-2e-3 0.224-2e-3 0.264-2e-3 0.506 0 1.037 0.112 1.037 1.178m11.091-5.168 0.674-0.529h-4.169s0.354 0.339 0.513 0.506c0.138 0.145 0.209 0.289 0.106 0.535-0.023 0.06-0.071 0.19-0.129 0.355h-2.889c-0.058-0.159-0.105-0.287-0.135-0.355-0.117-0.286-0.091-0.367 0.072-0.521 0.177-0.171 0.612-0.519 0.612-0.519l-4.373-1e-3 -2.006 2.42-6e-3 6e-3 -3e-3 5e-3c-0.218 0.299-0.383 0.469-0.535 0.549-0.02 0.011-0.057 0.024-0.124 0.039v-1.701c0-0.5 0.095-0.591 0.331-0.771 0.242-0.185 0.948-0.547 0.948-0.547h-4.662s0.713 0.399 0.934 0.549c0.206 0.139 0.329 0.261 0.329 0.769v5.309c0 0.492-0.107 0.645-0.332 0.785-0.233 0.145-0.704 0.442-0.704 0.442l-0.165 0.105s3.584 1e-3 3.795 1e-3c0.729-0.011 1.02-0.033 1.425-0.156 0.976-0.281 1.581-1.093 1.581-2.118 0-0.477-0.135-0.92-0.388-1.28-0.189-0.281-0.443-0.514-0.733-0.677 0.834-1.115 1.493-1.945 1.899-2.391 0.027 0.047 2.414 5.812 2.414 5.812 8e-3 0.041 0.013 0.078 0.013 0.109 0 0.041 0 0.089-0.12 0.198l-0.564 0.514h3.142s2.616-6.635 2.635-6.675h-2e-3c0.073-0.165 0.094-0.198 0.169-0.312 0.112-0.166 0.151-0.223 0.447-0.455m14.067 3.464c0 1.305-0.827 2.148-2.108 2.148-1.229 0-1.993-0.843-1.993-2.201 0-1.312 0.809-2.16 2.057-2.16 1.202 0 2.044 0.911 2.044 2.213m2.294 0c0-2.353-1.874-4.128-4.359-4.128-2.502 0-4.317 1.714-4.317 4.075 0 2.398 1.805 4.14 4.295 4.14 2.498 0 4.381-1.757 4.381-4.087m12.311 1.115c-0.108 0.027-0.217 0.053-0.323 0.079l-0.029 6e-3c-0.759 0.179-1.255 0.321-1.255 0.646 0 0.11 0.032 0.196 0.097 0.26 0.134 0.134 0.411 0.209 0.783 0.209 0.062 0 0.127-3e-3 0.19-8e-3h0.025c0.013-2e-3 0.025-4e-3 0.038-5e-3 0.686-0.06 1.505-0.358 2.344-0.916l-0.132 2.353-0.154 0.052-0.028 0.01c-0.012 4e-3 -0.101 0.034-0.361 0.091-0.158 0.035-0.969 0.21-1.454 0.245-0.158 0.012-0.314 0.017-0.461 0.017-1.776 0-2.814-0.842-2.926-2.372-0.056-0.765 0.321-1.512 0.956-1.9 0.568-0.345 1.417-0.605 2.036-0.796l0.142-0.043c0.388-0.119 0.834-0.359 0.773-0.823-0.033-0.242-0.127-0.502-0.856-0.502-0.105 0-0.22 5e-3 -0.348 0.017-0.502 0.044-1.089 0.331-1.74 0.85-0.026 0.022-0.047 0.039-0.062 0.048l-0.402 0.305-0.415 0.314 0.165-2.984 0.154-0.051 0.03-0.011c6e-3 -1e-3 0.092-0.029 0.362-0.089 0.268-0.06 1.149-0.213 1.598-0.245 0.144-0.011 0.292-0.017 0.44-0.017 1.939 0 3.218 0.965 3.256 2.459 0.037 1.438-0.786 2.381-2.443 2.801m-46.273-1.125c0 1.306-0.674 2.056-1.848 2.056h-0.896v-4.102h0.896c1.174 0 1.848 0.747 1.848 2.046m2.318 0.021c0-0.927-0.303-1.839-0.832-2.498-0.233-0.293-0.52-0.556-0.856-0.782-0.791-0.528-1.52-0.724-2.688-0.724h-4.167l0.177 0.103c1e-3 2e-3 0.516 0.303 0.755 0.448 0.231 0.139 0.327 0.275 0.327 0.768v4.6c0 0.505-0.14 0.646-0.338 0.788-1.028 0.75-1.114 1.611-1.117 1.647l-0.01 0.115 0.096-0.064c3e-3 -2e-3 0.346-0.222 0.724-0.309 0.439-0.101 1.042-0.118 2.309-0.118h1.603v-7e-3c0.799-0.032 1.385-0.178 1.96-0.479 1.288-0.675 2.057-1.978 2.057-3.488m-59.351-3.54c-1e-3 2e-3 -0.118 0.161-0.186 0.268-0.06 0.094-0.096 0.174-0.096 0.502l-1e-3 2.151c0 0.325 0.03 0.386 0.091 0.483 0.068 0.107 0.184 0.266 0.185 0.267l0.039 0.052-0.058 0.031c-6e-3 4e-3 -0.155 0.082-0.321 0.099v-2e-3c-0.044 2e-3 -3.395 2e-3 -3.395 2e-3l0.171-0.104s0.499-0.306 0.723-0.444c0.219-0.138 0.331-0.296 0.331-0.769v-1.171c-0.253-0.08-0.513-0.116-0.823-0.116-1.366 0-2.06 0.737-2.06 2.194 0 1.387 0.76 2.184 2.084 2.184 0.829 0 1.701-0.192 2.764-0.992l-5e-3 0.057-0.244 2.307-0.017 0.171-0.167 0.039-0.161 0.037c-0.71 0.164-0.987 0.208-1.41 0.261-0.248 0.03-0.383 0.046-0.696 0.046 0 0-0.089 1e-3 -0.134 1e-3 -2.496 0-4.308-1.747-4.308-4.152 0-2.368 1.821-4.088 4.331-4.088 0.438 0 1.284 0.081 1.816 0.191 0.101 0.022 0.158 0.037 0.238 0.054 0.016 5e-3 0.034 9e-3 0.052 0.013 0.301 0.071 0.605 0.148 0.914 0.243l0.39 0.121zm25.185 7.506h-4.518l0.169-0.103c5e-3 -4e-3 0.437-0.269 0.701-0.444 0.242-0.16 0.333-0.269 0.333-0.786v-1.932l-3.335 3.265h-2.654l0.159-0.103c4e-3 -2e-3 0.41-0.267 0.644-0.437 0.232-0.169 0.341-0.34 0.341-0.858v-5.255c0-0.515-0.093-0.624-0.325-0.767-0.255-0.156-0.749-0.443-0.754-0.445l-0.183-0.105h4.533l-0.183 0.105c-5e-3 2e-3 -0.507 0.292-0.75 0.445-0.228 0.143-0.327 0.26-0.327 0.767v3.17l4.845-4.745v6.895c0 0.513 0.085 0.619 0.332 0.787 0.268 0.182 0.761 0.438 0.767 0.441zm-6.65 1e-3v-1e-3zm-25.665-1e-3h-4.518l0.17-0.103c4e-3 -4e-3 0.437-0.269 0.701-0.444 0.242-0.16 0.333-0.269 0.333-0.786v-1.932l-3.336 3.266 1e-3 -1e-3 -5.245 1e-3c-0.156 0-0.321-0.096-0.329-0.1l-0.053-0.031 0.037-0.051c1e-3 -1e-3 0.117-0.159 0.184-0.266 0.052-0.081 0.08-0.137 0.089-0.35 0 0-1e-3 -4.055-1e-3 -4.063v-9e-3l2e-3 -0.031c-0.013-0.857-0.394-1.292-1.2-1.292-0.819 0-1.235 0.45-1.235 1.332l-2e-3 4.063c7e-3 0.213 0.037 0.269 0.088 0.35 0.068 0.107 0.184 0.265 0.186 0.266l0.037 0.051-0.054 0.031c-8e-3 4e-3 -0.174 0.1-0.33 0.1l-3.354-1e-3 0.171-0.103c4e-3 -3e-3 0.436-0.267 0.704-0.444 0.241-0.159 0.332-0.268 0.332-0.786v-3.289c0-0.724 0.087-1.307 0.25-1.684 0.118-0.269 0.302-0.527 0.565-0.79 0.685-0.675 1.548-1.002 2.639-1.002 1.515 0 2.702 0.685 3.176 1.828 0.184 0.444 0.245 0.843 0.245 1.584v3.353c0 0.518 0.092 0.627 0.333 0.786 0.144 0.095 0.334 0.214 0.48 0.305 0.135-0.09 0.309-0.207 0.433-0.298 0.232-0.169 0.342-0.34 0.342-0.858v-5.255c0-0.515-0.093-0.624-0.326-0.767-0.254-0.156-0.75-0.443-0.753-0.445l-0.182-0.105h4.532l-0.183 0.105c-5e-3 2e-3 -0.508 0.292-0.751 0.445-0.226 0.143-0.326 0.26-0.326 0.767v3.17l4.844-4.745v6.895c0 0.514 0.087 0.619 0.333 0.787 0.268 0.182 0.761 0.438 0.767 0.441zm12.41-6.034h-1.808v1.167s1.647 1e-3 1.693 1e-3c0.221 3e-3 0.461 8e-3 0.598-0.06 0.159-0.076 0.27-0.24 0.272-0.241l0.08-0.121-3e-3 2.554-0.067-0.04c-2e-3 -1e-3 -0.109-0.067-0.201-0.107-0.081-0.033-0.136-0.049-0.499-0.049h-1.873v0.995h1.876c0.482 0 0.587-0.043 0.862-0.237l0.464-0.355-0.245 2.527h-6.381l0.17-0.103c4e-3 -4e-3 0.437-0.269 0.7-0.444 0.241-0.161 0.333-0.271 0.333-0.786v-5.319c0-0.523-0.08-0.616-0.325-0.768-0.244-0.151-0.747-0.443-0.751-0.445l-0.182-0.105h6.616l0.592 2.661s-0.533-0.385-0.685-0.479c-0.295-0.181-0.525-0.246-1.236-0.246m23.199 3.172c-0.107 0.027-0.216 0.053-0.323 0.079l-0.03 6e-3c-0.757 0.179-1.253 0.321-1.253 0.646 0 0.11 0.03 0.196 0.097 0.259 0.133 0.135 0.412 0.21 0.783 0.21 0.062 0 0.126-3e-3 0.19-8e-3 8e-3 0 0.016 0 0.023-1e-3 0.014-1e-3 0.027-3e-3 0.039-4e-3 0.686-0.06 1.504-0.358 2.343-0.916l-0.13 2.353-0.154 0.052-0.029 9e-3c-0.012 5e-3 -0.101 0.035-0.363 0.092-0.157 0.035-0.967 0.21-1.453 0.244-0.157 0.012-0.313 0.018-0.46 0.018-1.775 0-2.815-0.842-2.926-2.372-0.056-0.765 0.32-1.512 0.958-1.9 0.568-0.345 1.415-0.606 2.035-0.796l0.142-0.043c0.386-0.119 0.833-0.359 0.772-0.823-0.031-0.242-0.127-0.502-0.855-0.502-0.105 0-0.221 5e-3 -0.348 0.017-0.504 0.044-1.091 0.331-1.741 0.85-0.026 0.021-0.047 0.039-0.062 0.048l-0.403 0.305-0.414 0.314 0.165-2.984 0.157-0.051 0.027-0.011c6e-3 -1e-3 0.091-0.029 0.362-0.09 0.268-0.059 1.149-0.212 1.597-0.244 0.145-0.011 0.294-0.017 0.44-0.017 1.941 0 3.219 0.965 3.257 2.459 0.036 1.438-0.786 2.381-2.443 2.801m-55.32-1.125c0 1.306-0.673 2.056-1.847 2.056h-0.896v-4.102h0.896c1.174 0 1.847 0.747 1.847 2.046m2.317 0.021c0-0.927-0.303-1.839-0.831-2.498-0.233-0.293-0.52-0.556-0.856-0.782-0.791-0.528-1.519-0.724-2.688-0.724h-4.168l0.178 0.103c0 2e-3 0.516 0.303 0.756 0.448 0.231 0.139 0.326 0.275 0.326 0.768v4.6c0 0.505-0.139 0.646-0.337 0.788-1.028 0.75-1.116 1.611-1.118 1.647l-0.01 0.115 0.096-0.064c4e-3 -2e-3 0.346-0.222 0.724-0.309 0.44-0.101 1.042-0.118 2.31-0.118h1.602v-7e-3c0.799-0.032 1.385-0.178 1.96-0.479 1.287-0.675 2.056-1.978 2.056-3.488m38.398-4e-3c0 1.305-0.827 2.149-2.107 2.149-1.228 0-1.991-0.844-1.991-2.203 0-1.311 0.806-2.159 2.054-2.159 1.203 0 2.044 0.91 2.044 2.213m2.295 0c0-2.354-1.875-4.129-4.36-4.129-2.502 0-4.317 1.714-4.317 4.075 0 2.399 1.806 4.139 4.295 4.139 2.498 0 4.382-1.756 4.382-4.085m24.622 0.8-0.075 0.244c-8e-3 0.026-0.197 0.622-0.834 0.856l-0.348 0.129 0.101-0.357c0.087-0.306 0.248-0.872 0.901-0.872zm-4.724 1.456c0.075 0.295-0.509 0.798-0.726 0.892 0.801 0.032 1.2-0.118 1.2-0.118-0.209 0.308-0.277 0.78-0.158 1.153 0.437-1.047 1.998-1.215 2.385-2.085-0.055 0.376-0.409 0.796-0.82 1.042-0.221 0.571-0.056 1.623 0.213 1.912-0.094-1.512 2.063-2.377 2.512-3.475-0.263 0.941-1.269 1.536-1.747 2.101-0.157 0.373-0.035 1.007 0.135 1.223-0.051-1.012 1.042-1.802 1.627-2.368 0.687-0.667 0.883-1.256 0.79-1.738 0.15-0.04 0.358-0.186 0.323-0.434 0.22 0.051 0.444 0.304 0.497 0.458 0.108-0.751-0.334-1.547-0.828-1.784 0 0 0.134 0.359-0.093 0.633-0.223 0.271-0.854 0.275-1.069 0.258 0 0 0.263 0.389 0.158 0.586-0.128 0.243-1.365 0.137-1.918-0.064 0.188 0.02 0.635-0.03 0.79-0.095-0.087-0.129-0.314-0.674-0.15-0.837 0.15-0.149 0.347 0.111 0.347 0.111s-0.193-0.597-0.056-0.735c0.139-0.137 0.435-0.04 0.435-0.04-0.184-0.466-0.904-0.789-1.405-0.789 0.179 0.057 0.475 0.378 0.52 0.568-0.132-0.065-0.475-0.103-0.608-0.079 0.163 0.066 0.489 0.487 0.386 0.956-0.147 0.687-1.106 0.774-1.586 0.442 0.155 0.462 0.621 0.894 0.987 1.035-0.213 0.075-0.464 0.138-0.733 0.186 0.306 0.251 1.076 0.456 1.468 0.434-0.598 0.155-1.693-0.037-2.194-0.63 0.159 0 0.573-0.078 0.733-0.128-0.689-0.125-1.624-0.765-1.901-1.067 0.073 0.398 0.185 0.734 0.09 0.974-0.132 0.335-0.541 0.478-1.357 0.31 0.551 0.55 1.677 0.892 1.753 1.192m12.918-6.615c0-1.138-1.132-2.026-2.414-1.845 0.327-0.305 1.119-0.512 1.541-0.321-0.241-0.436-1.401-1.054-2.495-0.764-1.024 0.273-1.474 1.252-1.5 1.874-0.484-0.484-0.353-1.273-8e-3 -1.585-0.4 0.104-1.002 0.519-1.104 1.264-0.086 0.64 0.27 1.371-0.398 1.959-0.399 0.351-1.006 0.853-1.399 1.162-0.824 0.645-0.512 1.119-0.697 1.46-0.142 0.263-0.488 0.411-0.695 0.651-0.209 0.242-0.201 0.601-0.084 0.807-0.035-0.288 0.171-0.503 0.445-0.594 0.304-0.1 0.56-0.017 0.819-0.168 0.312-0.18 0.167-0.667 0.393-0.84 0.203-0.153 0.709 0.05 1.141-0.298 0.434-0.348 1.406-1.157 1.825-1.502 0.753-0.62 1.53 0.087 1.272 0.797 0.765-0.453 0.849-1.72 0.213-2.162 0.599-0.136 1.68 0.132 1.68 1 0 0.531-0.49 0.906-0.84 0.965 1.229 0.115 2.305-0.747 2.305-1.86" fill="#231f20"/>
</g>
</g>
</g>
</g>
</g>
</svg>
