<svg width="64" height="64">
<metadata/>
<path d="M9.558 1.113c-2.33 2.544-4.289 5.524-5.813 8.822l15.996 15.013-1.734 1.848L2.702 12.433C1.455 15.723.616 19.278.24 22.993l15.758 7.967-1.144 2.263L.044 25.736c-.13 3.317.105 6.738.738 10.196L14.42 37.06l-.207 2.527-12.885-1.064a48.396 48.396 0 002.54 7.695c1.188-.22 2.416-.445 3.773-.7 3.63-.683 7.203-1.365 7.203-1.365l.475 2.488s-3.577.686-7.211 1.37c-1.087.204-2.143.403-3.146.59a45.285 45.285 0 004.023 6.647l8.255-4.65 1.242 2.208-7.924 4.468a41.366 41.366 0 005.376 5.427l2.328-2.76c.187-2.786.673-5.118 1.95-7.017.86-1.278 2.094-2.282 3.684-2.976a20.745 20.745 0 01-2.595-5.88c-1.97-7.346.079-14.718 4.94-18.735L9.557 1.113zm44.884 0L37.76 25.333c4.86 4.017 6.914 11.389 4.943 18.735a20.692 20.692 0 01-2.57 5.83c1.675.73 2.925 1.831 3.731 3.209 1.06 1.809 1.424 3.95 1.548 6.44L48.07 62.7a41.36 41.36 0 005.376-5.427l-7.928-4.468 1.246-2.209 8.254 4.65a45.28 45.28 0 004.024-6.647c-1.004-.186-2.063-.385-3.15-.59-3.634-.683-7.212-1.369-7.212-1.369l.475-2.488s3.578.682 7.207 1.365c1.33.25 2.605.488 3.774.704a48.387 48.387 0 002.54-7.7L49.79 39.588l-.207-2.527 13.638-1.128a46.52 46.52 0 00.734-10.196l-14.81 7.487-1.144-2.264 15.763-7.966c-.378-3.717-1.215-7.273-2.463-10.565L45.997 26.796l-1.738-1.848L60.254 9.935c-1.524-3.298-3.482-6.278-5.812-8.822z" fill="#d40000"/>
<path d="M31.752 13.068L11.277 26.594l.124 22.833L31.75 62.83l20.972-13.153L52.6 27.09z" fill="#fff" stroke="#fff" stroke-width=".09697"/>
<path d="M31.224 15.09L14.19 25.982l17.034-.37zm1.552 0v10.522l17.034.37zm3.67 5.34c.45-.011.947.17 1.316.37.59.344.796.703 1.462.41 1.037.082 2.162.562 2.673 1.52a.714.714 0 01-.501 1.227c-.943.006-1.914-.59-1.412-.806.45-.195 1.419.086.97-.54-.351-.43-1.074-.754-1.585-.571-.154.66-.91.387-1.16-.063-.228-.564-.887-.793-1.462-.767-.588.262.162.851.518.963.767.206.021.723-.394.492-.415-.232-1.453-.935-1.311-1.779.212-.323.535-.448.885-.456zm-9.211.028c.536.05 1.2.297.989.967-.415.672-.948 1.266-1.752 1.434-.631.326-1.443.426-2.099.182-.349-.217-1.302-.904-1.436-.325-.064.601.294 1.489-.592 1.534l-.487.194v-2.372c.955-.375 2.04-.437 2.935.13.773.403 1.88.146 2.352-.56.129-.63-.791-.444-1.187-.324-.26-.801.763-.725 1.277-.86zm3.395 6.718l-18.083.394 6.907 18.708zm2.74 0l11.176 19.102 6.907-18.708zm-1.37.73L20.647 47.312h22.706zm11.869 1.759c.378.004.767.112 1.061.287 1.34.799 2.08 2.535 2.139 4.165.008.553-.157 1.285-.579 1.65-.276.193-.584.31-.896.43-1.632-.114-2.32-1.865-2.883-3.164-.33-.958-.56-2.332.169-3.037.246-.237.611-.336.99-.331zm-22.073.747c.633.025 1.252.48 1.44 1.098.201.385-.055 1.11-.471 1.172-.476.071-.365-.903-.907-1.121-.57-.358-1.114.42-1.373.844-.032.093-.068.186-.087.283 1.008-.394 1.97.687 1.969 1.644-.03 1.131-.76 2.402-1.911 2.728h-.54c-1.231-.069-1.774-1.538-1.373-2.583.429-1.53 1.045-3.287 2.631-3.937a1.29 1.29 0 01.622-.128zm22.18.286c-.686-.014-.425.966-.324 1.402.15.98.626 1.917 1.275 2.647.165.137.355.206.559.264.666-.122.433-1.244.36-1.603-.456-1.058-.684-2.258-1.87-2.71zm-31.758.46V47.96l5.999-.553zm39.564 0l-5.999 16.25 5.999.552zm-11.431.068l2.762 6.157-.972.431L40.2 33.61c-.583.297-1.258.868-1.411-.126-.13-.383.828-.495.79-1.163-.038-.668.209-1.176.773-1.094zm-19.96 2.357c-.224.015-.433.135-.597.304-.234.492-.398.995-.261 1.543.161.854 1.31.621 1.51-.083.258-.482.375-1.13-.048-1.522a.822.822 0 00-.508-.242.682.682 0 00-.097 0zm30.785 3.263c.358.025.56.671.46 1.07-.014 1.806.11 3.802-.939 5.365-.093.121-.219.188-.356.248-.563-.404-.292-1.102.108-1.51.098.708.54-.279.647-.539.127-.308.342-1.72-.095-.995.067.392-.66 1.275-.91.787-.478-1.398-.001-2.957.682-4.212.148-.162.284-.222.403-.214zm-38.189.082c.057.008.13.1.24.347v5.93c-.707-.682-.345-1.689-.431-2.56-.079-.737.16-1.577-.124-2.249-.448-.162-.562-1.652-.308-1.228.428.462.452-.265.623-.24zm16.098.42a2.73 2.73 0 011.242.323c.785.429 1.332 1.394 1.046 2.285-.22.934-1.029 1.575-1.861 1.96-.394.256-.917.447-1.094.917-.116.29 2.462.157 2.935.157.045.388.147 1.036-.37 1.137-1.408-.121-2.898-.059-4.377-.059.042-1.084.72-2.07 1.65-2.6.67-.472 1.497-.9 1.755-1.738.171-.43-.054-.9-.449-1.112-.403-.279-1.061-.227-1.278.262-.193.37-.424.88-.84.931-.28.035-.87.046-.703-.472.141-.546.33-1.122.8-1.476.432-.361.988-.524 1.544-.514zm5.68.05c.246.005.493.049.723.132.663.213 1.167.769 1.386 1.421.595 1.423.54 3.202-.427 4.45-.43.458-.984.88-1.642.883-1.212-.015-2.177-1.084-2.408-2.217-.305-1.299-.173-2.775.67-3.853.358-.527.97-.797 1.592-.815a2.41 2.41 0 01.105 0zm16.134.56c-.097-.003-.196.094-.27.357-.159.572-.322 1.299-.072 1.872.494-.194.53-.933.647-1.4.11-.32-.092-.82-.305-.829zm-16.08.542c-.33-.016-.663.255-.808.547-.219.402-.2.877-.273 1.319-.079.88-.032 1.864.53 2.59l.213.142c.478.173.94-.21 1.074-.654.19-.604.227-1.25.236-1.881-.023-.683-.143-1.447-.653-1.941a.558.558 0 00-.32-.121zm14.443.5v5.93l-.432.648V41.48c-.447.722-.875.877-.588-.089.587-.693.467-1.688 1.02-2.391zm-34.848.108l.006.02c.438-.048.706.706.883 1.054.078.346.497 1.723.197 1.435l-.077-.133.178.32c-.446-.355-.618-1.017-.43-.778a10.194 10.194 0 01-.41-.896c-.006.114-.07.205-.239.27-.125.34-.122.687-.065 1.033.02-.162.114-.231.328-.073.76 1.224 1.181 2.822.708 4.218l-.216.108c-1.004-.566-1.105-1.885-1.302-2.91a9.485 9.485 0 01.223-3.56.49.49 0 01.222-.087l-.006-.02zm.006.02l.036.12-.036-.12zm.199 3.013c-.394.449-.22 1.24-.037 1.785.108.534.671.983.588.147-.005-.546.016-1.137-.291-1.59-.093-.052-.185-.183-.26-.342zm6.438 6.722L32 60.807l10.943-11.944zm-2.074.032l-5.217.48 6.228 3.983a9.186 9.186 0 01-.69-.85c-.498-.674-1.016-1.324-1.831-1.616-.847-.625-.406-.512.281-.246-.092-.18-.07-.254.012-.26.21-.014.817.41.944.618l2.396 3.065 6.318 4.04zm26.034 0L40.9 53.39c.62-.305 1.103-.827 1.654-1.211.232-.13.36-.184.416-.183.2.001-.526.69-.745 1.002-.913.951-1.558 2.233-2.78 2.823l1.834-2.372a8.93 8.93 0 01-.796.396l-3.906 4.264 7.221-4.618c.532-.651.185-.536-.546-.086l-1.11.583c1.112-1.333 2.605-2.286 3.884-3.45.307-.145.922-.55 1.066-.557.075-.004.021.101-.274.41l-1.223 1.548c.97-.73.085.38-.432.54-.067.097-.14.188-.214.277l5.286-3.38zM29.67 50.509c.132 0 .263.012.388.028v4.206h-1.295v-2.911c-.488-.134-1.01.167-1.487-.027-.364-.285.098-.663.439-.57.317-.013.732.018.904-.314.255-.324.656-.415 1.051-.412zm3.205.078a.464.464 0 01.145.018c.305.079.627.024.94.04h2.463c.146.29.073.752-.32.762-.378.05-.757-.037-1.134.02-.455.015-.945-.171-1.376.04-.303.16-.404.825.095.59.327-.109.67-.176 1.01-.087.677.107 1.45.28 1.854.891.202.306.26.711.062 1.035-.35.633-1.119.815-1.774.945-.227.043-.452.136-.682.117-.703-.057-1.513-.105-1.998-.692-.258-.242-.262-.689.185-.646.346-.014.839-.039 1 .34.315.355.857.285 1.273.192.348-.047.73-.247.736-.647.057-.409-.299-.697-.664-.757-.564-.229-1.122.137-1.684.177-.336.102-.929.047-.867-.433.074-.406.258-.786.263-1.208.009-.291.158-.681.473-.696zm12.943.483c-.02-.024-.678.557-.962.783l-1.528 1.272c.833-.423 1.598-.931 2.16-1.692.248-.252.337-.354.33-.363zm-23.955 1.373c.232-.002.731.45.916.685l2.532 3.016c-.749-.211-1.289-.697-1.712-1.336-.623-.71-1.094-1.61-2.057-1.894-.867-.486-.502-.623.207-.22-.026-.18.023-.25.114-.251z"/>
</svg>
