<?xml version="1.0" encoding="UTF-8"?>
<svg width="69.82" height="73.54" version="1.1" viewBox="0 0 18.473 19.457" xmlns="http://www.w3.org/2000/svg" xmlns:cc="http://creativecommons.org/ns#" xmlns:dc="http://purl.org/dc/elements/1.1/" xmlns:rdf="http://www.w3.org/1999/02/22-rdf-syntax-ns#">
<metadata>
<rdf:RDF>
<cc:Work rdf:about="">
<dc:format>image/svg+xml</dc:format>
<dc:type rdf:resource="http://purl.org/dc/dcmitype/StillImage"/>
<dc:title/>
</cc:Work>
</rdf:RDF>
</metadata>
<g transform="translate(90.392 -60.75)">
<g>
<path d="m-75.101 79.916v-0.23495c0-0.7747 0.25647-1.5074 0.61383-2.1594h0.5775l1.7156-1.7152v-10.623l-1.7156-1.7156h-0.56127c-0.36654-0.66005-0.63006-1.4037-0.63006-2.19v-0.2353h-12.106v0.2353c0 0.78634-0.26388 1.53-0.63041 2.19h-0.56092l-1.7152 1.7156v10.623l1.7152 1.7152h0.5775c0.35736 0.65193 0.61383 1.3847 0.61383 2.1594v0.23495z" fill="#fff"/>
<path d="m-74.915 80.208v-0.24236c0-0.79834 0.26423-1.554 0.63288-2.226h0.59549l1.7685-1.7681v-10.952l-1.7685-1.7688h-0.57891c-0.37782-0.68016-0.64946-1.4471-0.64946-2.2574v-0.24271h-12.48v0.24271c0 0.81033-0.27199 1.5773-0.64982 2.2574h-0.57856l-1.7681 1.7688v10.952l1.7681 1.7681h0.59549c0.36865 0.67204 0.63288 1.4277 0.63288 2.226v0.24236zm-8.0582-17.976c0.20743 0 0.37536-0.16792 0.37536-0.375 0-0.01693-0.0074-0.0314-0.0095-0.04762 0.49918-0.2099 1.0075-0.40146 1.5243-0.57397h-0.14358c0.51576 0.1718 1.0234 0.36336 1.5219 0.57291-0.0025 0.01658-0.0099 0.0314-0.0099 0.04868 0 0.20708 0.16757 0.375 0.375 0.375 0.11642 0 0.2159-0.05574 0.28504-0.13864 0.38488 0.17709 0.762 0.36795 1.1345 0.56762h-6.4703c0.37218-0.19932 0.74895-0.38947 1.1331-0.56656 0.06879 0.0822 0.16828 0.13758 0.28399 0.13758m-2.8434 1.0185h-1.1307c0.30057-0.46002 1.1003-1.2876 2.97-1.2876h0.50447c-0.80962 0.37924-1.5917 0.80962-2.3439 1.2876m1.0403-0.37782h7.2422c0.21696 0.12206 0.43145 0.248 0.64347 0.37782h-8.5288c0.21167-0.12982 0.42651-0.25576 0.64311-0.37782m8.2825 0.37782c-0.75212-0.47801-1.5346-0.9084-2.3442-1.2876h0.5394c1.8701 0 2.6695 0.82762 2.97 1.2876zm1.6711 0h-0.25753c-0.19191-0.3369-0.67204-0.96132-1.7113-1.2876h1.5071c0.10054 0.45261 0.26 0.88477 0.46179 1.2876m-0.57079-2.0151c0.0099 0.17462 0.03069 0.34678 0.06032 0.51576h-3.6527c-0.04657-0.15416-0.1838-0.26952-0.35384-0.26952-0.1136 0-0.21167 0.05327-0.28081 0.13264-0.3182-0.13406-0.64029-0.26-0.96625-0.37888zm-6.331 0c-0.32597 0.11889-0.6484 0.24553-0.96767 0.37994-0.06844-0.08008-0.16686-0.1337-0.28116-0.1337-0.16969 0-0.30727 0.11536-0.35348 0.26952h-3.6505c0.02963-0.16898 0.05045-0.34114 0.06032-0.51576zm-5.3012 0.72743h1.5413c-1.0389 0.32632-1.5194 0.95074-1.7113 1.2876h-0.2921c0.20179-0.40287 0.3616-0.83502 0.46214-1.2876m-2.8808 3.2572 1.4848-1.4845h0.95497c-0.80751 0.33937-1.3815 0.89218-1.7893 1.5018h-0.01587v0.02469c-0.28681 0.43462-0.49071 0.89394-0.63465 1.325zm0 2.1682c0.10654-0.49953 0.29669-1.1218 0.63465-1.7191v9.6569c-0.05927-0.10478-0.12136-0.20426-0.17498-0.31679-0.23178-0.4886-0.37289-0.97931-0.45967-1.3899zm1.4848 9.8661-1.4848-1.4841v-1.3674c0.14393 0.43109 0.34784 0.89076 0.63465 1.325v0.02505h0.01587c0.40781 0.60925 0.98178 1.162 1.7893 1.5014zm9.084 1.4718c-0.20743 0-0.375 0.16828-0.375 0.375 0 0.01693 0.0071 0.0314 0.0095 0.04763-0.49918 0.2099-1.0079 0.40146-1.5244 0.57397h0.14358c-0.51611-0.1718-1.0234-0.36336-1.5222-0.57291 0.0025-0.01658 0.01023-0.0314 0.01023-0.04868 0-0.20673-0.16792-0.375-0.37536-0.375-0.11642 0-0.2159 0.05574-0.28469 0.13864-0.38488-0.17674-0.762-0.3676-1.1345-0.56762h6.4703c-0.37218 0.19967-0.74895 0.38982-1.1331 0.56691-0.06914-0.08255-0.16863-0.13794-0.28434-0.13794m2.7933-0.98672h1.1596c-0.31609 0.46496-1.1197 1.2562-2.9485 1.2562h-0.50482c0.79163-0.37112 1.5572-0.79093 2.2938-1.2562m-0.99025 0.34643h-7.2422c-0.19932-0.1129-0.39758-0.2272-0.59302-0.34644h8.4282c-0.19544 0.11924-0.39335 0.23354-0.59302 0.34643m-8.2321-0.34643c0.7366 0.46531 1.5021 0.88512 2.2938 1.2562h-0.53869c-1.8288 0-2.6324-0.79128-2.9485-1.2562zm-1.7043 0h0.25964c0.2032 0.34325 0.68509 0.93909 1.6923 1.2562h-1.5067c-0.09843-0.44062-0.25012-0.86289-0.44521-1.2562m0.55386 1.9833c-0.0099-0.17462-0.03069-0.34643-0.06032-0.51576h3.6523c0.04657 0.15452 0.18415 0.26952 0.35384 0.26952 0.11395 0 0.21202-0.05292 0.28081-0.13264 0.31856 0.13406 0.64064 0.26 0.96626 0.37888zm6.3306 0c0.32632-0.11889 0.64876-0.24553 0.96767-0.37994 0.06844 0.08043 0.16722 0.1337 0.28116 0.1337 0.16969 0 0.30727-0.115 0.35384-0.26952h3.6505c-0.02963 0.16933-0.05045 0.34114-0.06032 0.51576zm5.3019-0.72708h-1.5413c1.0075-0.31715 1.4887-0.91299 1.6919-1.2562h0.29422c-0.19473 0.39335-0.34678 0.81562-0.44485 1.2562m-11.508-1.7413c-0.92181-0.22296-1.6598-0.7306-2.2144-1.5092v-10.492c0.48225-0.67557 1.1885-1.2626 2.2232-1.518h11.267c0.92181 0.22331 1.6602 0.7306 2.2144 1.5092v10.492c-0.48189 0.67557-1.1885 1.2626-2.2236 1.5176zm14.389-1.4841-1.4848 1.4841h-0.95497c0.80716-0.33937 1.3815-0.89218 1.7889-1.5014h0.01588v-0.02505c0.28646-0.43427 0.49107-0.89394 0.635-1.325zm0-2.1682c-0.10724 0.49989-0.29739 1.1218-0.635 1.7187v-9.6566c0.05927 0.10478 0.12171 0.2039 0.17498 0.31644 0.23107 0.4886 0.37324 0.97966 0.46002 1.3903zm0-7.015c-0.14393-0.43109-0.34854-0.89041-0.635-1.325v-0.02469h-0.01588c-0.40746-0.6096-0.98178-1.1624-1.7889-1.5018h0.95497l1.4848 1.4845z" fill="#0a0a0d"/>
</g>
</g>
</svg>
