
<svg width="870.009" height="147.001" viewBox="0 0 230.188 38.894" xmlns="http://www.w3.org/2000/svg">
  <defs>
    <clipPath id="b">
      <path d="M111.56 748h144v15.484h-144z"/>
    </clipPath>
    <clipPath id="a">
      <path d="M0 0h612v792H0z"/>
    </clipPath>
  </defs>
  <path d="M33.025 16.502l9.113.684-9.113.684-9.11-.684zm54.544 2.563l9.111.683 9.113-.683-9.113-.684zm44.782-6.678l8.733-.655-10.768-.808 16.476-1.235-14.673-1.101 20.327-1.524-34.614-2.597 9.3-.697-16.98-1.274-15.088 1.132-6.785-.886 16.648-1.248-13.342-1-9.298.696L71.492.38l-10.09.758 10.252.77-11.295.847-11.294-.848 6.546-.491-7.82-.587-25.007 1.875 8.861.665L3.547 5.476l16.547 1.24-8.732.656 10.767.807L5.654 9.414l14.672 1.101L-.001 12.04l27.935 2.096-12.791.96 13.503 1.012 3.492-.262 10.154.762 15.088-1.131 6.779.885-17.583 1.319 24.136 1.81 5.278-.396-9.5-.713 13.566-1.018 9.51.713 6.224-.467 8.864.665 25.006-1.875-8.86-.664 28.098-2.107zM71.709 36.257l7.402.555-7.402.555-7.401-.555zm44.304 2.08l7.402.556 7.402-.555-7.402-.556zm36.379-5.424l7.093-.532-8.747-.656 13.384-1.003-11.92-.894 16.513-1.238-28.117-2.11 7.555-.566-13.794-1.035-12.256.92-5.512-.72 13.524-1.014-10.838-.813-7.553.566-8.768-.658-8.196.615 8.327.626-9.175.688-9.174-.688 5.317-.4-6.353-.476-20.312 1.523 7.197.54L47.763 27.3l13.442 1.009-7.094.531 8.746.657-13.383 1.003 11.919.894-16.512 1.238 22.692 1.702-10.39.78 10.968.822 2.837-.212 8.248.619 12.256-.92 5.506.72-14.282 1.07 19.606 1.47 4.287-.32-7.717-.58 11.02-.827 7.724.58 5.057-.38 7.2.54 20.313-1.523-7.197-.54 22.824-1.71z" fill="#deddde"/>
  <path d="M150.169 17.59l6.105.458-6.105.458-6.104-.458zm36.54 1.716l6.105.458 6.105-.458-6.105-.458zm30.003-4.474l5.85-.438-7.213-.541 11.037-.828-9.83-.738 13.618-1.02-23.189-1.74 6.231-.467-11.376-.854-10.108.758-4.546-.593 11.154-.836-8.939-.67-6.229.466-7.232-.542-6.76.507 6.869.516-7.568.568-7.566-.568 4.386-.33-5.24-.392-16.753 1.256 5.936.445-18.824 1.411 11.086.832-5.85.439 7.213.54-11.037.828 9.83.738-13.619 1.02 18.715 1.405-8.569.643 9.046.678 2.34-.175 6.803.51 10.107-.758 4.542.593-11.78.884 16.17 1.212 3.536-.265-6.365-.478 9.09-.682 6.37.478 4.17-.312 5.939.445 16.752-1.256-5.935-.446 18.824-1.411z" fill="#deddde"/>
  <path d="M30.76 1.953c-.17 1.101.086 2.492.086 2.492s-.803-.59-1.681-1.088c-.521-.295-.964-.952-1.239-1.435-.187-.334-.297-.582-.297-.582-1.22 1.313-.432 2.858-.432 2.858-1.9-.417-3.087.074-3.087.074 3.597 2.362 1.685 2.555-.392 3.542-2.073.986-2.225 2.212-2.225 2.212 2.48-.817 3.467.228 3.467.228-1.336 1.282-.144 3.282-.144 3.282 1.296 2.492 4.51 3.553 7.386 3.99 2.848.436 5.368.263 5.368.263l-6.552 2.043-5.885 1.49s-5.843-.629-7.99-5.589C15 10.77 18.746 6.863 18.37 6.607c-.357-.244-.811.299-.859.358 1.63-4.681 6.54-4.63 6.736-5.126.2-.499-.968-.53-.968-.53 4.965-1.64 7.48.644 7.48.644" fill="#231f20"/>
  <path d="M221.653 15.335v14.991c5.708-.033 6.45 0 7.424-1.269V14.32c-1.825.972-3.712 1.001-7.424 1.016" fill="#fff"/>
  <path d="M0 0v-38.142c14.567.085 16.462 0 18.946 3.228v37.5C14.287.112 9.473.037 0 0z" fill="none" stroke="#231f20" stroke-miterlimit="10" stroke-width="1.375" transform="matrix(.39183 0 0 -.39303 221.653 15.335)"/>
  <path d="M0 0c16.235.054 17.687 1.176 19.157 2.303M.603-32.193c19.602-2.231 17.932 3.579 18.804 3.754" fill="none" stroke="#231f20" stroke-miterlimit="10" stroke-width=".75" transform="matrix(.39183 0 0 -.39303 221.42 16.449)"/>
  <path d="M74.08 27.498c-.001.005-.006.009-.007.014a.424.424 0 00.056.354c.085.127 2.126 3.121 4.79 3.121.592 0 1.172-.15 1.75-.462.232-.148.454-.297.646-.432 1.402-.861 2.766-2.122 3.26-2.595zM8.562 17.973v14.739l13.91-1.823v-14.74z" fill="#fff"/>
  <path d="M0 0v-37.5l35.5 4.639v37.5z" fill="none" stroke="#231f20" stroke-miterlimit="10" stroke-width="1.375" transform="matrix(.39183 0 0 -.39303 8.562 17.973)"/>
  <path d="M0 0l34.724 4.925M0 32.207l34.724 4.418" fill="none" stroke="#231f20" stroke-miterlimit="10" stroke-width=".75" transform="matrix(.39183 0 0 -.39303 8.866 31.617)"/>
  <path d="M22.472 16.15l-9.49-1.409V29.48l9.49 1.408z" fill="#c1c0c2"/>
  <path d="M0 0l-24.219 3.583v-37.5L0-37.5z" fill="none" stroke="#231f20" stroke-miterlimit="10" stroke-width="1.375" transform="matrix(.39183 0 0 -.39303 22.472 16.15)"/>
  <g clip-path="url(#a)" transform="matrix(.39183 0 0 -.39303 -3.353 305.056)">
    <path d="M260.73 701.15c-61.753-11.25-157.29 11.25-219.04 0v37.5c61.753 11.25 157.29-11.25 219.04 0z" fill="#fff"/>
    <path d="M260.73 701.15c-61.753-11.25-157.29 11.25-219.04 0v37.5c61.753 11.25 157.29-11.25 219.04 0z" fill="none" stroke="#231f20" stroke-miterlimit="10" stroke-width="1.375"/>
    <path d="M261.61 704.77s-20.5-8.666-114.67-.333c-66.51 5.886-99.718.727-104.86-.173m218.64 31.461s-19.872-8.038-114.04.295c-66.51 5.886-99.718.726-104.86-.173" fill="none" stroke="#231f20" stroke-miterlimit="10" stroke-width=".75"/>
  </g>
  <path d="M221.764 34.043H98.777V10.209h122.987z" fill="#fff"/>
  <path d="M199.94 62.623H89.21V41.23h110.73z" fill="none" stroke="#231f20" stroke-miterlimit="10" stroke-width=".441" transform="matrix(1.1107 0 0 1.1141 -.309 -35.725)"/>
  <path d="M97.95 7.729l-.001 28.793c.41-.99.822-1.401.822-1.401V9.13s-.411-.411-.822-1.401" fill="#fff"/>
  <path d="M0 0l-.001-73.258c1.048 2.516 2.098 3.565 2.098 3.565l.001 66.129S1.048-2.518 0 0z" fill="none" stroke="#231f20" stroke-miterlimit="10" stroke-width="1.25" transform="matrix(.39183 0 0 -.39303 97.95 7.729)"/>
  <path d="M0 0s1.067 10.333 8.401 10.333h22s7.166-2.445 20.5-2.445M-.001-44.866S1.066-55.199 8.4-55.199h22s7.166 2.445 20.5 2.445" fill="none" stroke="#231f20" stroke-miterlimit="10" stroke-width="1.25" transform="matrix(.39183 0 0 -.39303 98.771 13.308)"/>
  <path d="M222.586 7.729v28.793c-.41-.99-.821-1.401-.821-1.401V9.13s.41-.411.821-1.401" fill="#fff"/>
  <path d="M200.68 39.004v25.844c-.37-.888-.74-1.258-.74-1.258V40.261s.37-.369.74-1.257z" fill="none" stroke="#231f20" stroke-miterlimit="10" stroke-width=".441" transform="matrix(1.1107 0 0 1.1141 -.309 -35.725)"/>
  <path d="M0 0s-1.067 10.333-8.401 10.333h-22s-7.166-2.445-20.5-2.445M.001-44.866S-1.066-55.199-8.4-55.199h-22s-7.166 2.445-20.5 2.445" fill="none" stroke="#231f20" stroke-miterlimit="10" stroke-width="1.25" transform="matrix(.39183 0 0 -.39303 221.764 13.308)"/>
  <path d="M0 0c-5.202-.907-11.465-1.923-17.206-1.923h-235.68c-5.741 0-12.004 1.016-17.206 1.923m0-60.641c5.202.908 11.465 1.923 17.206 1.923h235.68c5.741 0 12.004-1.015 17.206-1.923" fill="none" stroke="#231f20" stroke-miterlimit="10" stroke-width=".75" transform="matrix(.39183 0 0 -.39303 213.179 10.209)"/>
  <path d="M35.72 8.182c1.329.539 1.681 1.832 1.681 1.832-1.116-.032-1.445-.896-1.681-1.832" fill="#fff"/>
  <path d="M96.965 31.458c-.25-1.363-1.21-3.586-3.067-4.758-1.535-.966-2.875-.757-2.882-1.238-.011-.61 1.71-.421 1.71-.421-1.856-1.066-4.517.238-4.898-.372-.224-.366 1.239-.88 1.239-.88-2.263-.083-4.934 1.087-6.005 2.149 2.7-.91 6.501-.387 8.248 1.11a8.011 8.011 0 00-2.364-.86c-3.064-.618-6.474.297-8.528 1.154-2.317.787-4.084 1.95-4.084 1.95-1.53.891-4.355 1.722-6.27.91l-.001.003s2.999 5.011 6.684 3.268c.27-.151.53-.307.773-.46 2.012-1.094 4.037-2.92 4.037-2.92.705-.494 2.874-1.91 5.486-2.702a4.03 4.03 0 011.733-.13c1.457.199 2.726 1.135 3.143 2.255 1.124-.196 3.975.749 5.046 1.942M37.402 10.014s-.353-1.293-1.681-1.832c.235.936.564 1.8 1.68 1.832m-4.278 3.459c-.31-1.675-2.614-1.962-3.8-1.191.41-1.109 1.567-2.115 2.46-2.433a12.238 12.238 0 00-1.755-.507c.76-.582 2.629-1.022 3.577-.94a3.762 3.762 0 00-.564-.117l.18-1.09c-.106-.91-.929-1.956-1.908-2.585C30.827 3.215 31.3.676 31.97 0c-.337 3.65 4.804 5.907 5.803 8.6-.564-2.3-2.943-3.817-4.055-5.216-.353-.92-.012-2.441.415-2.956-.196 2.449 2.382 4.445 3.75 5.86 1.614 1.663 2.041 3.105 1.779 4.264.36.11.85.48.748 1.077.533-.106 1.093-.7 1.234-1.073.208 1.832-.92 3.722-2.131 4.26 0 0 .348-.856-.18-1.54-.518-.672-2.042-.727-2.56-.707 0 0 .663-.92.424-1.403-.29-.602-3.283-.433-4.636.011.459-.035 1.533.118 1.9.287-.219.307-.806 1.608-.422 2.017.325.35.784-.17.842-.236-.043.125-.493 1.438-.184 1.768.322.346 1.047.13 1.047.13-.483 1.116-2.242 1.843-3.457 1.804.439-.122 1.18-.872 1.301-1.336-.325.15-1.156.216-1.473.145.396-.15 1.214-1.136 1.007-2.283" fill="#231f20"/>
  <path d="M26.712 6.61c.2-.707-1.171-1.969-1.689-2.212 1.936-.02 2.888.373 2.888.373-.482-.759-.611-1.906-.294-2.802.976 2.566 4.734 3.093 5.603 5.227l-.18 1.089c-1.485-.193-3.675.251-4.78 1.481.384.012 1.375.228 1.759.366-1.673.252-3.977 1.73-4.667 2.44.204-.958.498-1.764.29-2.35-.293-.825-1.273-1.202-3.252-.853 1.368-1.293 4.115-2.035 4.322-2.759M15.73 13.102l.399.873c-.537.09-1.14 2.216-1.14 2.216-1.367-.793-.215-3.332-.215-3.332z" fill="#231f20"/>
  <path d="M12.743 12.74s.713-.515 1.09-.609l.622.554-.321.098s-.6 1.966-.357 2.78l.392 1.139s-1.277-.256-1.473-.747c0 0-.411-2.213.047-3.215" fill="#231f20"/>
  <path d="M12.022 13.574s.082 2.523.341 2.747l.948.405.028.86s-1.693-.538-1.834-1.187-.25-2.26-.25-2.26.281-.42.767-.565" fill="#231f20"/>
  <g clip-path="url(#b)" transform="matrix(.39183 0 0 -.39303 -3.353 305.056)">
    <path d="M253.35 757.91c.386 0 .386-.567 0-.567h-.526v.567zm.379-.996c.902.204.717 1.583-.379 1.583h-1.182v-2.481h.656v.771h.23l.59-.771h.704v.143zm-.587-1.596c1.169 0 1.827.854 1.827 1.938 0 1.079-.658 1.933-1.827 1.933-1.162 0-1.82-.854-1.826-1.933.006-1.084.664-1.938 1.826-1.938m2.414 1.938c0-1.322-.868-2.437-2.413-2.437-1.54 0-2.408 1.115-2.408 2.437 0 1.319.868 2.431 2.408 2.431 1.545 0 2.413-1.112 2.413-2.431M180.77 759.13c-.033.258-.015.523.061.761l.336 1.047.422-1.014c.123-.295.382-.51.689-.706-.027.487.06 1.028.234 1.4-.036.785.507 1.372 1.155 1.372 1.109 0 1.406-1.342.891-2.303.239-.36.603-.694.925-.984.115-.104.224-.202.32-.294.03-.031.046-.058.076-.088.482.653.835 1.563.835 2.251 0 1.426-.927 2.749-2.855 2.853-1.223.065-2.049-.312-2.664-.939-.278-.285-.897-1.003-.779-2.303.045-.49.209-.832.354-1.053m5.169-6.596c-.441-.747-1.365-1.712-2.305-1.712-1.733 0-2.602 2.448-.67 4.456a.89.89 0 01-.252.04.787.787 0 01-.428-.115l-.855-.734.241 1.195c.015.041.03.081.047.121-.429-.218-.845-.519-1.005-.693l-.774-.843.078 1.189.053.262c.04.185.088.416.059.491a.143.143 0 01-.05.057c-.359-.277-1.335-1.139-1.45-2.42 0 0 .19.269.356.332.109.042.204-.012.1-.332-.04-.125-.99-2.694.877-4.472 0 0-.205.521-.081.681.06.076.138.083.248-.055.079-.107.162-.209.253-.309v-.002l.001.001c.154-.176.324-.342.509-.485a3.84 3.84 0 012.18-.705c2.299 0 3.518 1.575 4.198 2.908-.031.038-.054.077-.096.114-.348.306-.852.724-1.234 1.03m5.222 4.555c-1.718-.083-3.19-1.539-3.952-2.569.136-.046.273-.109.409-.217.159-.128.392-.318.643-.526.204.45.663 1.36 1.367 2.167.643.736 1.763.807 2.35.358.378.343 1.682.664 2.369.469-.417.455-1.307 1.065-2.289 1.065-.81 0-1.268-.398-1.385-.219-.149.228.548.567.548.567-.957-.04-1.652-1.164-1.942-1.026-.173.084.258.628.258.628-.875-.508-1.608-1.585-1.76-2.24.805.985 2.368 1.692 3.384 1.543m35.351-4.702c-.06.094-.097.176-.097.503v2.151c0 .325.029.386.091.483.067.107.184.265.185.266l.04.053-.059.031a.978.978 0 01-.322.099v-.003c-.044.003-3.395.003-3.395.003l.171-.105s.5-.304.724-.445c.218-.137.33-.293.33-.768v-1.171a2.644 2.644 0 00-.821-.117c-1.368 0-2.061.74-2.061 2.195 0 1.388.759 2.183 2.083 2.183.83 0 1.703-.189 2.765-.99l-.005.057-.244 2.307-.019.17-.165.039-.162.038c-.71.164-.987.207-1.408.261-.249.03-.385.045-.698.045l-.134.001c-2.495 0-4.308-1.746-4.308-4.152 0-2.368 1.822-4.088 4.331-4.088.439 0 1.284.081 1.816.192.101.021.159.037.238.056l.052.011c.3.072.605.149.914.243l.39.121-.046.064a5.033 5.033 0 00-.186.267m18.333 7.168h-4.519l.17-.103c.004-.003.436-.269.702-.443.241-.161.332-.27.332-.787v-1.931l-3.336 3.265v-.001h-2.653l.158-.102c.004-.003.41-.268.644-.438.231-.169.341-.34.341-.858v-5.255c0-.515-.093-.624-.324-.767a34.8 34.8 0 00-.756-.445l-.18-.105h4.53l-.181.105c-.005.003-.508.292-.751.445-.227.143-.326.26-.326.767v3.17l4.845-4.744v6.894c0 .514.086.619.332.787.268.182.761.438.767.441zm-29.056-4.683l-.719 1.96-.781-1.96zm-7.413 2.41c0 .408-.266.681-1.034.684l-.267-.002v-1.858c.112-.002.224-.002.264-.002.506 0 1.037.112 1.037 1.178m11.091-5.168l.674-.529h-4.169s.354.339.513.506c.138.145.209.289.106.535-.023.06-.071.19-.129.355h-2.889a7.515 7.515 0 00-.135-.355c-.117-.286-.091-.367.072-.521.177-.171.612-.519.612-.519l-4.373-.001-2.006 2.42-.006.006-.003.005c-.218.299-.383.469-.535.549a.511.511 0 01-.124.039v-1.701c0-.5.095-.591.331-.771.242-.185.948-.547.948-.547h-4.662s.713.399.934.549c.206.139.329.261.329.769v5.309c0 .492-.107.645-.332.785-.233.145-.704.442-.704.442l-.165.105 3.795.001c.729-.011 1.02-.033 1.425-.156.976-.281 1.581-1.093 1.581-2.118 0-.477-.135-.92-.388-1.28a2.167 2.167 0 00-.733-.677c.834-1.115 1.493-1.945 1.899-2.391.027.047 2.414 5.812 2.414 5.812a.592.592 0 01.013.109c0 .041 0 .089-.12.198l-.564.514h3.142s2.616-6.635 2.635-6.675h-.002c.073-.165.094-.198.169-.312.112-.166.151-.223.447-.455m14.067 3.464c0 1.305-.827 2.148-2.108 2.148-1.229 0-1.993-.843-1.993-2.201 0-1.312.809-2.16 2.057-2.16 1.202 0 2.044.911 2.044 2.213m2.294 0c0-2.353-1.874-4.128-4.359-4.128-2.502 0-4.317 1.714-4.317 4.075 0 2.398 1.805 4.14 4.295 4.14 2.498 0 4.381-1.757 4.381-4.087m12.311 1.115l-.323.079-.029.006c-.759.179-1.255.321-1.255.646 0 .11.032.196.097.26.134.134.411.209.783.209.062 0 .127-.003.19-.008h.025l.038-.005c.686-.06 1.505-.358 2.344-.916l-.132 2.353-.154.052-.028.01c-.012.004-.101.034-.361.091-.158.035-.969.21-1.454.245a6.122 6.122 0 01-.461.017c-1.776 0-2.814-.842-2.926-2.372-.056-.765.321-1.512.956-1.9.568-.345 1.417-.605 2.036-.796l.142-.043c.388-.119.834-.359.773-.823-.033-.242-.127-.502-.856-.502-.105 0-.22.005-.348.017-.502.044-1.089.331-1.74.85a.564.564 0 01-.062.048l-.402.305-.415.314.165-2.984.154-.051.03-.011c.006-.001.092-.029.362-.089.268-.06 1.149-.213 1.598-.245a5.8 5.8 0 01.44-.017c1.939 0 3.218.965 3.256 2.459.037 1.438-.786 2.381-2.443 2.801m-46.273-1.125c0 1.306-.674 2.056-1.848 2.056h-.896v-4.102h.896c1.174 0 1.848.747 1.848 2.046m2.318.021c0-.927-.303-1.839-.832-2.498a3.788 3.788 0 00-.856-.782c-.791-.528-1.52-.724-2.688-.724h-4.167l.177.103c.001.002.516.303.755.448.231.139.327.275.327.768v4.6c0 .505-.14.646-.338.788-1.028.75-1.114 1.611-1.117 1.647l-.01.115.096-.064a2.62 2.62 0 01.724-.309c.439-.101 1.042-.118 2.309-.118h1.603v-.007c.799-.032 1.385-.178 1.96-.479 1.288-.675 2.057-1.978 2.057-3.488m-59.351-3.54c-.001.002-.118.161-.186.268-.06.094-.096.174-.096.502l-.001 2.151c0 .325.03.386.091.483.068.107.184.266.185.267l.039.052-.058.031a.959.959 0 01-.321.099v-.002c-.044.002-3.395.002-3.395.002l.171-.104.723-.444c.219-.138.331-.296.331-.769v-1.171a2.653 2.653 0 00-.823-.116c-1.366 0-2.06.737-2.06 2.194 0 1.387.76 2.184 2.084 2.184.829 0 1.701-.192 2.764-.992l-.005.057-.244 2.307-.017.171-.167.039-.161.037c-.71.164-.987.208-1.41.261-.248.03-.383.046-.696.046l-.134.001c-2.496 0-4.308-1.747-4.308-4.152 0-2.368 1.821-4.088 4.331-4.088.438 0 1.284.081 1.816.191.101.022.158.037.238.054l.052.013c.301.071.605.148.914.243l.39.121zm25.185 7.506H165.5l.169-.103c.005-.004.437-.269.701-.444.242-.16.333-.269.333-.786v-1.932l-3.335 3.265h-2.654l.159-.103c.004-.002.41-.267.644-.437.232-.169.341-.34.341-.858v-5.255c0-.515-.093-.624-.325-.767a43.067 43.067 0 00-.754-.445l-.183-.105h4.533l-.183.105c-.005.002-.507.292-.75.445-.228.143-.327.26-.327.767v3.17l4.845-4.745v6.895c0 .513.085.619.332.787.268.182.761.438.767.441zm-6.65.001v-.001zm-25.665-.001h-4.518l.17-.103c.004-.004.437-.269.701-.444.242-.16.333-.269.333-.786v-1.932l-3.336 3.266.001-.001-5.245.001c-.156 0-.321-.096-.329-.1l-.053-.031.037-.051c.001-.001.117-.159.184-.266.052-.081.08-.137.089-.35l-.001-4.063v-.009l.002-.031c-.013-.857-.394-1.292-1.2-1.292-.819 0-1.235.45-1.235 1.332l-.002 4.063c.007.213.037.269.088.35.068.107.184.265.186.266l.037.051-.054.031c-.008.004-.174.1-.33.1l-3.354-.001.171-.103c.004-.003.436-.267.704-.444.241-.159.332-.268.332-.786v-3.289c0-.724.087-1.307.25-1.684.118-.269.302-.527.565-.79.685-.675 1.548-1.002 2.639-1.002 1.515 0 2.702.685 3.176 1.828.184.444.245.843.245 1.584v3.353c0 .518.092.627.333.786.144.095.334.214.48.305.135-.09.309-.207.433-.298.232-.169.342-.34.342-.858v-5.255c0-.515-.093-.624-.326-.767-.254-.156-.75-.443-.753-.445l-.182-.105h4.532l-.183.105c-.005.002-.508.292-.751.445-.226.143-.326.26-.326.767v3.17l4.844-4.745v6.895c0 .514.087.619.333.787.268.182.761.438.767.441zm12.41-6.034h-1.808v1.167l1.693.001c.221.003.461.008.598-.06.159-.076.27-.24.272-.241l.08-.121-.003 2.554-.067-.04c-.002-.001-.109-.067-.201-.107-.081-.033-.136-.049-.499-.049h-1.873v.995h1.876c.482 0 .587-.043.862-.237l.464-.355-.245 2.527h-6.381l.17-.103c.004-.004.437-.269.7-.444.241-.161.333-.271.333-.786v-5.319c0-.523-.08-.616-.325-.768a40.927 40.927 0 00-.751-.445l-.182-.105h6.616l.592 2.661s-.533-.385-.685-.479c-.295-.181-.525-.246-1.236-.246m23.199 3.172l-.323.079-.03.006c-.757.179-1.253.321-1.253.646 0 .11.03.196.097.259.133.135.412.21.783.21.062 0 .126-.003.19-.008l.023-.001.039-.004c.686-.06 1.504-.358 2.343-.916l-.13 2.353-.154.052-.029.009a3.14 3.14 0 01-.363.092c-.157.035-.967.21-1.453.244a6.09 6.09 0 01-.46.018c-1.775 0-2.815-.842-2.926-2.372-.056-.765.32-1.512.958-1.9.568-.345 1.415-.606 2.035-.796l.142-.043c.386-.119.833-.359.772-.823-.031-.242-.127-.502-.855-.502-.105 0-.221.005-.348.017-.504.044-1.091.331-1.741.85-.026.021-.047.039-.062.048l-.403.305-.414.314.165-2.984.157-.051.027-.011c.006-.001.091-.029.362-.09a16.053 16.053 0 011.597-.244c.145-.011.294-.017.44-.017 1.941 0 3.219.965 3.257 2.459.036 1.438-.786 2.381-2.443 2.801m-55.32-1.125c0 1.306-.673 2.056-1.847 2.056h-.896v-4.102h.896c1.174 0 1.847.747 1.847 2.046m2.317.021c0-.927-.303-1.839-.831-2.498a3.788 3.788 0 00-.856-.782c-.791-.528-1.519-.724-2.688-.724h-4.168l.178.103c0 .002.516.303.756.448.231.139.326.275.326.768v4.6c0 .505-.139.646-.337.788-1.028.75-1.116 1.611-1.118 1.647l-.01.115.096-.064c.004-.002.346-.222.724-.309.44-.101 1.042-.118 2.31-.118h1.602v-.007c.799-.032 1.385-.178 1.96-.479 1.287-.675 2.056-1.978 2.056-3.488m38.398-.004c0 1.305-.827 2.149-2.107 2.149-1.228 0-1.991-.844-1.991-2.203 0-1.311.806-2.159 2.054-2.159 1.203 0 2.044.91 2.044 2.213m2.295 0c0-2.354-1.875-4.129-4.36-4.129-2.502 0-4.317 1.714-4.317 4.075 0 2.399 1.806 4.139 4.295 4.139 2.498 0 4.382-1.756 4.382-4.085m24.622.8l-.075.244a1.421 1.421 0 01-.834.856l-.348.129.101-.357c.087-.306.248-.872.901-.872zm-4.724 1.456c.075.295-.509.798-.726.892.801.032 1.2-.118 1.2-.118-.209.308-.277.78-.158 1.153.437-1.047 1.998-1.215 2.385-2.085-.055.376-.409.796-.82 1.042-.221.571-.056 1.623.213 1.912-.094-1.512 2.063-2.377 2.512-3.475-.263.941-1.269 1.536-1.747 2.101-.157.373-.035 1.007.135 1.223-.051-1.012 1.042-1.802 1.627-2.368.687-.667.883-1.256.79-1.738.15-.04.358-.186.323-.434.22.051.444.304.497.458.108-.751-.334-1.547-.828-1.784 0 0 .134.359-.093.633-.223.271-.854.275-1.069.258 0 0 .263.389.158.586-.128.243-1.365.137-1.918-.064.188.02.635-.03.79-.095-.087-.129-.314-.674-.15-.837.15-.149.347.111.347.111s-.193-.597-.056-.735c.139-.137.435-.04.435-.04-.184-.466-.904-.789-1.405-.789.179.057.475.378.52.568-.132-.065-.475-.103-.608-.079.163.066.489.487.386.956-.147.687-1.106.774-1.586.442.155.462.621.894.987 1.035a4.77 4.77 0 01-.733.186c.306.251 1.076.456 1.468.434-.598.155-1.693-.037-2.194-.63.159 0 .573-.078.733-.128-.689-.125-1.624-.765-1.901-1.067.073.398.185.734.09.974-.132.335-.541.478-1.357.31.551.55 1.677.892 1.753 1.192m12.918-6.615c0-1.138-1.132-2.026-2.414-1.845.327-.305 1.119-.512 1.541-.321-.241-.436-1.401-1.054-2.495-.764-1.024.273-1.474 1.252-1.5 1.874-.484-.484-.353-1.273-.008-1.585-.4.104-1.002.519-1.104 1.264-.086.64.27 1.371-.398 1.959-.399.351-1.006.853-1.399 1.162-.824.645-.512 1.119-.697 1.46-.142.263-.488.411-.695.651a.742.742 0 00-.084.807c-.035-.288.171-.503.445-.594.304-.1.56-.017.819-.168.312-.18.167-.667.393-.84.203-.153.709.05 1.141-.298.434-.348 1.406-1.157 1.825-1.502.753-.62 1.53.087 1.272.797.765-.453.849-1.72.213-2.162.599-.136 1.68.132 1.68 1 0 .531-.49.906-.84.965 1.229.115 2.305-.747 2.305-1.86" fill="#231f20"/>
  </g>
</svg>
