<svg width="17" height="18" viewBox="0 0 4.498 4.763">
<path style="-inkscape-font-specification:ScalaSans-BoldLF" d="M.474 3.771q.083-.042.168-.05.085-.007.163.017.097.031.175.1.077.07.145.202l.086.163.461-.236.085.162-1.238.634-.174-.332q-.057-.11-.078-.197Q.245 4.15.254 4.07q.01-.094.062-.168.05-.075.158-.13zm.093.167q-.064.033-.1.08-.035.046-.042.106-.005.053.011.11.015.055.055.133l.084.16.495-.252-.072-.138q-.051-.098-.101-.15-.05-.053-.11-.072-.06-.018-.112-.011-.053.006-.108.034zM1.457 2.202l-.013.237-.58.43-.015.257.553.03-.01.184L0 3.26l.022-.385q.007-.124.029-.206.02-.083.067-.147.052-.072.127-.11.074-.038.185-.032.151.009.249.09.096.08.14.214zm-1.024.371q-.06-.003-.107.016-.048.017-.083.064-.03.038-.043.092-.014.053-.018.127l-.013.215.526.03.01-.185Q.71 2.846.7 2.78q-.012-.065-.052-.113Q.611 2.623.561 2.6q-.05-.023-.129-.028z" font-weight="500" font-size="4.5" font-family="Scala Sans LF" fill="#9c9a9b"/>
<path style="-inkscape-font-specification:ScalaSans-BoldLF" d="M1.155.864q.126-.006.26.045.133.05.266.158t.21.23q.075.12.092.24.018.126-.02.246-.037.119-.133.234-.093.112-.208.173-.114.061-.239.067-.125.006-.258-.043-.133-.05-.266-.16-.132-.106-.207-.225-.077-.12-.096-.246-.019-.12.02-.244.041-.124.133-.234Q.804.991.918.931q.114-.06.237-.067zm.404.35q-.21-.17-.4-.17-.192 0-.326.161-.135.162-.098.348.037.184.246.355.212.172.403.17.19-.004.323-.162.132-.159.098-.344-.034-.186-.246-.358zM2.842.157l-.678.19.108.374.582-.164.045.157-.582.163.184.638-.179.05L1.941.241 2.797 0z" font-weight="500" font-size="4.5" font-family="Scala Sans LF" fill="#9c9a9b"/>
<path d="M3.08 4.316c.699 0 1.265-.56 1.265-1.251 0-.69-.566-1.25-1.266-1.25-.7 0-1.266.56-1.266 1.25s.567 1.25 1.266 1.25" fill="#fff"/>
<path d="M3.08 4.466a1.411 1.411 0 01-1.42-1.4c0-.774.637-1.402 1.42-1.402.782 0 1.418.628 1.418 1.401s-.636 1.401-1.419 1.401m0-2.5c-.614 0-1.113.492-1.113 1.1 0 .606.5 1.099 1.113 1.099.614 0 1.114-.493 1.114-1.1 0-.607-.5-1.1-1.114-1.1" fill="#0a0a0d"/>
</svg>
